<svg width="175" height="175" viewBox="0 0 175 175" fill="none" xmlns="http://www.w3.org/2000/svg">
<path d="M146.907 39.5164C146.07 39.0404 145.781 39.5296 146.429 39.0019C148.813 37.0638 146.315 35.6769 144.154 36.9422C144.226 36.7096 144.221 36.4598 144.139 36.2305C144.057 36.0013 143.902 35.8051 143.698 35.6717C143.369 35.5105 143.007 35.4304 142.641 35.438C142.274 35.4456 141.916 35.5407 141.594 35.7154C139.773 36.407 138.258 37.724 137.319 39.4307C139.894 38.3019 143.094 41.1308 141.704 43.6062C143.141 42.8737 144.687 42.3752 146.281 42.1292C146.59 42.1039 146.885 41.9904 147.131 41.8022C147.378 41.6141 147.565 41.3592 147.671 41.0678C147.715 40.7624 147.666 40.4506 147.53 40.1737C147.393 39.8969 147.176 39.6679 146.907 39.5173V39.5164Z" fill="black"/>
<path d="M100.529 72.4711C100.519 72.5084 100.516 72.5474 100.521 72.5859C100.526 72.6243 100.538 72.6615 100.557 72.6951C100.576 72.7288 100.602 72.7583 100.633 72.7821C100.663 72.8058 100.698 72.8232 100.736 72.8333C100.811 72.8528 100.891 72.8423 100.958 72.8039C101.026 72.7655 101.076 72.7023 101.098 72.6277L102.655 68.9133L102.119 68.6797L100.529 72.4711Z" fill="black"/>
<path d="M116.493 79.0183C116.327 79.3578 116.834 79.6571 117.001 79.3158L118.676 75.9033L118.137 75.668L116.493 79.0192V79.0183Z" fill="black"/>
<path d="M139.89 39.4491C139.438 39.2238 138.935 39.1189 138.43 39.1444C137.925 39.1699 137.435 39.3249 137.007 39.5946C136.58 39.8644 136.229 40.2396 135.988 40.6843C135.748 41.129 135.626 41.6281 135.634 42.1336C135.897 44.2511 138.572 45.5199 140.291 44.8461C140.723 44.6756 141.106 44.3994 141.404 44.0428C141.702 43.6862 141.905 43.2605 141.996 42.8047C142.072 42.0904 141.905 41.3713 141.523 40.7629C141.141 40.1545 140.566 39.6918 139.89 39.4491Z" fill="white"/>
<path d="M131.889 76.3877C130.822 74.7917 130.181 73.5982 129.676 72.9297L128.174 76.3754C129.578 76.3877 130.113 76.3877 131.889 76.3877Z" fill="white"/>
<path d="M156.158 58.0884C154.596 54.521 151.223 51.763 147.509 50.3219C145.824 49.6464 144.009 49.357 142.198 49.4749C140.036 49.5532 137.894 49.9162 135.826 50.5546C136.365 53.0178 136.36 55.5687 135.812 58.0297C135.939 58.1995 136.022 58.3972 136.055 58.6072C136.1 59.1906 136.084 59.7772 136.008 60.3572C135.892 61.2735 135.985 62.2041 136.28 63.0794C136.97 64.6145 137.807 66.0796 138.778 67.4544C139.425 68.4107 140.219 69.2583 141.132 69.9656C142.385 70.9185 143.515 70.8345 144.282 69.48C145.216 67.8324 144.972 67.3756 145.672 65.098C146.119 63.9661 146.927 63.0132 147.971 62.387C149.015 61.7607 150.236 61.4961 151.445 61.634C152.654 61.7719 153.784 62.3047 154.66 63.1499C155.536 63.995 156.109 65.1054 156.29 66.309C156.378 67.0917 156.358 67.8829 156.23 68.6601C156.003 71.3252 155.347 73.9361 154.286 76.3916H158.267C158.344 76.3932 158.418 76.4246 158.473 76.4794C158.528 76.5342 158.56 76.6081 158.562 76.6856C158.181 71.034 158.429 63.2745 156.158 58.0884ZM147.486 52.9565C145.935 53.415 144.397 53.9133 142.872 54.451C142.513 54.5779 142.36 54.0082 142.715 53.8831C144.238 53.3459 145.765 52.7929 147.329 52.3877C147.405 52.367 147.485 52.377 147.553 52.4157C147.621 52.4543 147.671 52.5184 147.692 52.5938C147.713 52.6692 147.703 52.7498 147.664 52.8178C147.625 52.8858 147.561 52.9357 147.486 52.9565Z" fill="white"/>
<path d="M116.317 46.2576C116.229 46.2469 116.141 46.2593 116.059 46.2936C115.978 46.3278 115.907 46.3827 115.854 46.4528C115.455 46.8658 115.416 48.5694 116.466 49.5459C116.621 48.8179 116.734 48.082 116.807 47.3409C116.83 46.9611 116.703 46.3233 116.317 46.2576Z" fill="#2BFF01"/>
<path d="M121.089 47.9818C121.121 47.8716 121.135 47.7613 121.058 47.7027C120.943 47.6323 120.81 47.5959 120.674 47.5977C120.155 47.6266 120.015 48.8078 120.034 49.3337C120.503 48.989 120.869 48.5211 121.089 47.9818Z" fill="#2BFF01"/>
<path d="M127.43 52.4042C127.461 52.3406 127.476 52.2704 127.474 52.1997C127.472 52.129 127.453 52.0598 127.418 51.9982C127.295 51.7856 127.043 51.9921 126.893 52.1137C126.262 52.6937 125.664 53.3092 125.104 53.9573C125.595 53.8532 126.062 53.6605 126.484 53.3886C126.895 53.1678 127.226 52.8238 127.43 52.4051V52.4042Z" fill="#2BFF01"/>
<path d="M124.365 50.3678C124.441 50.2138 124.48 50.0449 124.481 49.8734C124.494 49.8078 124.435 49.7483 124.378 49.7133C124.33 49.6943 124.278 49.6856 124.226 49.6879C124.175 49.6901 124.124 49.7032 124.078 49.7264C123.231 50.0335 122.931 51.2209 122.965 52.095C123.548 51.6242 124.025 51.0356 124.365 50.3678Z" fill="#2BFF01"/>
<path d="M125.922 38.5126C121.891 36.7451 117.336 36.5875 113.193 38.0721C109.049 39.5566 105.631 42.5708 103.639 46.4961C103.346 47.0736 103.243 47.3353 102.093 49.9743C102.334 49.801 102.606 49.6733 102.894 49.5998C103.087 49.5526 103.288 49.5493 103.482 49.5899C103.676 49.6306 103.858 49.7143 104.016 49.8349C104.173 49.9554 104.302 50.1098 104.392 50.2865C104.482 50.4633 104.531 50.658 104.536 50.8563C104.542 51.1223 104.467 51.383 104.323 51.6061C103.872 52.4706 103.318 52.524 102.469 53.3474C101.787 54.1524 103.14 54.6949 103.694 54.9486C104.387 55.2663 105.349 55.9803 104.919 56.8649C104.789 57.1276 104.578 57.3419 104.317 57.4765C104.056 57.611 103.76 57.6589 103.47 57.613C102.089 57.403 100.788 55.8788 100.553 55.8438C100.584 55.919 100.624 55.9899 100.669 56.0573C101.513 57.5859 102.507 58.285 102.682 59.2029C102.802 59.8303 102.484 60.6423 101.727 60.5696C100.934 60.4935 100.306 59.8206 99.2989 59.132C99.2236 59.0795 99.0276 58.8931 98.9384 58.9509C98.9279 58.957 98.9279 58.9509 98.969 59.0051C99.0101 59.0594 99.3566 59.5634 99.5754 59.9169C99.9096 60.4568 100.45 61.2583 100.252 61.9294C100.191 62.1278 100.085 62.3095 99.9427 62.4606C99.8004 62.6117 99.6254 62.7281 99.431 62.8009C99.2371 62.8746 99.029 62.9031 98.8224 62.8842C98.6159 62.8652 98.4164 62.7993 98.2392 62.6915C97.797 62.3794 97.3837 62.0279 97.0046 61.6415C96.4717 62.8665 95.3832 65.3603 95.371 65.3883C95.3325 65.4559 95.322 65.5359 95.3418 65.6111C95.3616 65.6863 95.4101 65.7508 95.4769 65.7908L126.527 79.3288C126.595 79.3671 126.675 79.3774 126.75 79.3577C126.826 79.3379 126.89 79.2895 126.93 79.2229L129.673 72.9316C129.426 72.5317 129.085 72.1978 128.681 71.9589C128.276 71.72 127.819 71.5833 127.35 71.5605C126.591 71.5483 125.649 71.6305 125.107 70.9743C124.922 70.7528 124.819 70.4743 124.816 70.1858C124.812 69.8973 124.908 69.6164 125.088 69.3905C125.906 68.6398 126.895 68.6144 129.31 68.2031C129.063 68.1355 128.81 68.0945 128.555 68.0806C127.745 68.044 126.937 67.9564 126.138 67.8181C125.644 67.7835 125.169 67.6193 124.76 67.3421C124.629 67.2248 124.522 67.0825 124.447 66.9235C124.371 66.7646 124.328 66.5922 124.32 66.4165C124.312 66.2407 124.34 66.0651 124.4 65.9C124.461 65.7349 124.554 65.5835 124.674 65.4548C124.834 65.2824 125.037 65.1564 125.262 65.0873C126.562 64.5623 127.355 64.9849 129.27 64.9298C129.328 64.9298 129.492 64.9499 129.452 64.8423C129.421 64.7548 129.245 64.7338 129.164 64.7049C128.757 64.5561 128.351 64.4039 127.945 64.2499C127.366 64.0294 126.644 63.8824 126.376 63.2559C126.272 63.0173 126.244 62.7527 126.295 62.4976C126.346 62.2425 126.473 62.0091 126.661 61.8288C127.155 61.3598 128.012 61.47 128.638 61.4893C130.01 61.5181 131.357 61.848 132.586 62.4561C133.078 59.4015 133.145 58.6009 133.823 57.8379C134.013 57.6815 134.241 57.5785 134.484 57.5393C134.727 57.5001 134.976 57.5261 135.205 57.6148C135.239 57.6235 135.263 57.6436 135.293 57.6559C135.496 57.7329 135.673 57.865 135.806 58.0365C136.68 54.1409 136.171 50.0629 134.368 46.501C132.565 42.9392 129.579 40.1151 125.922 38.5126ZM127.609 53.2083C126.807 54.0605 125.701 54.5612 124.531 54.6013C119.57 60.038 115.447 66.1838 112.298 72.8363C112.134 73.1801 111.627 72.88 111.789 72.5405C114.902 65.9666 118.962 59.8846 123.84 54.4884C123.539 54.3588 123.269 54.1664 123.048 53.924C122.827 53.6817 122.66 53.395 122.559 53.0831L122.546 53.091C122.339 53.2338 122.097 53.3183 121.846 53.3355C121.595 53.3527 121.344 53.3021 121.12 53.189C120.254 52.4906 119.699 51.4791 119.575 50.3741C119.171 50.6117 118.716 50.7495 118.248 50.7761C117.779 50.8027 117.312 50.7174 116.883 50.5273C115.501 57.9061 112.631 64.926 108.447 71.1589C108.236 71.473 107.726 71.1764 107.938 70.8614C112.126 64.6275 114.987 57.5984 116.343 50.2114C114.976 49.1693 114.654 47.1261 115.349 46.1514C115.479 45.9642 115.664 45.8217 115.878 45.7434C116.093 45.6652 116.326 45.6548 116.546 45.7139C117.298 45.9239 117.448 46.9258 117.382 47.5855C117.299 48.3751 117.172 49.1594 117.002 49.9349C117.393 50.1388 117.833 50.2296 118.272 50.1971C118.712 50.1647 119.134 50.0102 119.49 49.7511C119.431 49.2373 119.455 48.7171 119.563 48.2111C119.597 47.9913 119.677 47.7811 119.798 47.5942C119.918 47.4072 120.077 47.2478 120.263 47.1261C120.476 47.0223 120.718 46.9907 120.951 47.0362C121.184 47.0817 121.396 47.2017 121.554 47.3781C122.144 48.1446 120.882 49.4781 120.106 50.0486C120.215 50.9579 120.597 51.8128 121.202 52.5004C121.307 52.6141 121.436 52.7008 121.581 52.7559C121.879 52.7611 122.17 52.6684 122.412 52.4934C122.157 50.5684 123.207 49.1159 124.255 49.0966C124.955 49.0835 125.188 49.7809 125.002 50.3374C124.599 51.3117 123.929 52.1525 123.069 52.7629C123.133 53.0615 123.28 53.3358 123.494 53.5536C123.708 53.7714 123.98 53.9235 124.277 53.9923C124.92 53.2809 125.559 52.5503 126.257 51.8923C126.515 51.5976 126.861 51.3949 127.245 51.3148C128.114 51.2658 128.339 52.531 127.609 53.2083Z" fill="#2BFF01"/>
<path d="M71.7316 57.9552C71.405 56.3268 70.7337 54.7871 69.7626 53.4397C68.7916 52.0922 67.5434 50.9682 66.1019 50.1432C61.9237 47.7125 56.4147 47.4482 51.6005 47.8831C48.1182 48.1247 44.8107 49.5 42.1837 51.7987C39.6244 54.2085 35.4725 53.0815 34.9449 50.5081C34.8344 49.9421 34.8129 49.3623 34.881 48.7896C34.8792 48.867 34.8477 48.9408 34.7929 48.9955C34.7382 49.0503 34.6644 49.0818 34.587 49.0836H24.1342C24.0564 49.0829 23.9819 49.0518 23.9268 48.9968C23.8717 48.9418 23.8403 48.8675 23.8394 48.7896C23.3671 52.167 24.0968 55.6029 25.9009 58.4969C28.7385 62.7187 33.2972 64.985 38.3372 65.7331C38.2874 68.2417 38.0975 79.237 38.052 82.2251C39.7125 83.0142 41.2118 84.1052 42.4734 85.4425C45.8185 83.1587 46.4634 79.8294 46.4607 75.7615C46.4607 70.9735 46.8449 75.2872 46.2752 59.5539C46.2276 59.1399 46.2276 58.7218 46.2752 58.3079C46.3463 57.9399 46.551 57.6112 46.8497 57.385C47.1485 57.1588 47.5204 57.051 47.8938 57.0824C48.2673 57.1138 48.6159 57.2821 48.8728 57.555C49.1296 57.8279 49.2765 58.1861 49.2852 58.5607C49.5425 59.9327 49.8339 62.6137 49.9415 63.9586C50.6629 63.3599 51.5874 63.0626 52.5225 63.1286C53.4577 63.1946 54.3313 63.6189 54.9614 64.313C55.7681 62.8684 58.2278 63.06 58.9864 65.8932C59.2086 66.5171 59.3661 67.162 59.4545 67.8182C60.206 74.9094 59.1638 82.0757 56.4235 88.659C54.7827 92.6689 52.266 96.2612 49.0577 99.173C49.5677 101.342 49.9447 103.541 50.1865 105.756C50.1907 105.804 50.179 105.851 50.1532 105.89C50.2407 106.132 50.5566 107.011 50.624 107.208L61.2404 107.296C61.2404 94.4909 61.1949 95.1445 61.3112 95.0106C61.3769 94.9231 61.1257 95.0981 72.6924 88.064C72.7764 79.7707 72.9759 63.7862 71.7316 57.9552Z" fill="white"/>
<path d="M58.0127 32.155C58.0382 31.6863 57.9373 31.2194 57.7204 30.8031C57.6994 30.7883 57.6833 30.7676 57.674 30.7436C57.1549 30.2801 56.4877 30.0164 55.7919 29.9998C55.1155 29.864 54.416 29.8976 53.7558 30.0978C53.4729 30.2364 53.2373 30.4555 53.0786 30.7277C52.92 30.9999 52.8453 31.3129 52.8642 31.6273C52.7096 33.3676 52.7055 35.118 52.8519 36.859C52.9206 36.4412 53.0899 36.0465 53.3453 35.7089C53.6006 35.3712 53.9343 35.1008 54.3175 34.921C54.7008 34.7411 55.122 34.6572 55.5449 34.6766C55.9678 34.6959 56.3796 34.8179 56.7448 35.032C57.354 35.4666 57.7741 36.1177 57.919 36.852C58.0643 35.291 58.0958 33.7212 58.0127 32.155Z" fill="black"/>
<path d="M35.3073 72.9426C33.4217 70.7175 29.8893 71.1926 27.8926 73.1631C26.8313 74.236 26.0037 75.5171 25.4618 76.9256C24.6411 78.9818 23.9349 81.4493 23.6794 81.9253C22.1588 84.2875 19.943 86.1199 17.3374 87.1701C15.8044 87.7738 14.1743 88.0792 12.8189 89.0741C11.5532 90.0016 10.6375 91.3291 10.2202 92.8418C10.0029 93.5937 10.0243 94.3944 10.2815 95.1336C10.5387 95.8727 11.019 96.5138 11.6561 96.9683C10.2684 97.4591 9.10964 98.4429 8.40019 99.7325C7.27844 102.095 8.66882 104.324 10.6629 104.435C9.99565 105.138 9.50003 105.986 9.21482 106.913C9.05745 107.427 9.03992 107.973 9.16403 108.496C9.28815 109.019 9.54942 109.499 9.92094 109.888C10.3048 110.2 10.7546 110.421 11.2364 110.533C11.7181 110.646 12.2192 110.648 12.7017 110.538C12.7621 110.528 12.8224 110.514 12.8828 110.502C13.1094 109.321 15.0642 99.8532 15.4203 98.413C16.7836 92.9092 19.3149 87.066 23.9183 83.7217C25.6268 82.4805 27.5889 81.6328 29.6637 81.2395C31.7385 80.8462 33.8747 80.9169 35.9189 81.4467C36.0449 81.48 36.3827 81.5736 36.5061 81.6217C36.5752 77.8697 36.9952 74.9341 35.3073 72.9426ZM34.5811 77.3963C34.4072 78.1123 33.981 78.7415 33.3808 79.1687C32.7805 79.5959 32.0463 79.7924 31.3129 79.7221C30.5399 79.6532 29.8194 79.302 29.289 78.7354C28.7586 78.1688 28.4555 77.4267 28.4377 76.6508C28.3936 76.034 28.5662 75.4212 28.9258 74.9181C29.2854 74.415 29.8094 74.0533 30.4073 73.8955C31.3102 73.6564 32.2679 73.7349 33.1198 74.1177C33.6918 74.4253 34.1456 74.9139 34.41 75.5071C34.6745 76.1003 34.7346 76.7644 34.5811 77.3955V77.3963Z" fill="black"/>
<path d="M33.1222 74.118C32.4585 73.7832 31.7063 73.6657 30.9721 73.7819C30.2378 73.8981 29.5587 74.2422 29.0307 74.7655C28.7095 75.2164 28.513 75.7442 28.4611 76.2954C28.4092 76.8467 28.5038 77.4018 28.7353 77.9048C28.9667 78.4077 29.3269 78.8407 29.7793 79.1598C30.2317 79.479 30.7604 79.673 31.3119 79.7224C32.0455 79.7926 32.7798 79.5958 33.3801 79.1683C33.9805 78.7408 34.4065 78.1111 34.58 77.3949C34.7336 76.7643 34.6739 76.1007 34.4101 75.5077C34.1463 74.9148 33.6934 74.426 33.1222 74.118Z" fill="white"/>
<path d="M59.4562 67.8232C59.5857 69.0963 58.9627 70.4561 57.6651 70.5357C57.2257 70.5096 56.8015 70.3652 56.4374 70.1178C56.0733 69.8705 55.7828 69.5293 55.5966 69.1305C55.4878 69.4555 55.2903 69.7437 55.0263 69.9623C54.7624 70.181 54.4425 70.3215 54.1029 70.3679C53.7633 70.4143 53.4175 70.3648 53.1045 70.225C52.7916 70.0852 52.524 69.8606 52.332 69.5767C52.2418 70.2837 52.3355 71.003 52.6041 71.6627C52.7703 72.0022 52.262 72.3006 52.0948 71.9602C51.2995 70.3423 52.1753 68.6352 51.4692 67.3157C51.3438 67.114 51.1661 66.9501 50.9549 66.8415C50.7438 66.7328 50.5071 66.6835 50.2701 66.6988C50.0331 66.7141 49.8047 66.7933 49.6092 66.9282C49.4138 67.063 49.2585 67.2484 49.1601 67.4645C48.6974 68.5506 48.4593 69.7191 48.4601 70.8997C48.4242 71.2742 47.8345 71.2768 47.8703 70.8997C48.0217 69.3361 48.0672 67.9755 48.8836 66.817C49.0408 66.6155 49.2379 66.4487 49.4625 66.3269C49.6872 66.2052 49.9345 66.131 50.1891 66.1092C50.4437 66.0873 50.7 66.1183 50.9421 66.2C51.1842 66.2817 51.4068 66.4125 51.5961 66.5842C51.555 66.394 51.493 66.2088 51.4115 66.0321C51.2522 65.69 51.7615 65.3916 51.9198 65.7346C52.1867 66.5483 52.346 67.3945 52.3923 68.2502C52.4233 68.5921 52.5541 68.9173 52.7685 69.1853C52.9829 69.4534 53.2714 69.6525 53.5981 69.7578C53.8964 69.8338 54.2125 69.7917 54.4806 69.6403C54.7486 69.4888 54.9478 69.2397 55.0366 68.945C55.258 68.2187 55.3052 67.4487 55.1757 66.7006C55.1131 66.1313 54.9863 65.571 54.7977 65.0302C54.784 64.9939 54.7776 64.9553 54.7789 64.9165C54.7802 64.8777 54.7891 64.8395 54.8051 64.8042C54.8211 64.7689 54.8439 64.737 54.8722 64.7105C54.9005 64.684 54.9338 64.6633 54.9701 64.6496C55.0064 64.6359 55.045 64.6295 55.0838 64.6308C55.1226 64.6321 55.1607 64.6409 55.1961 64.657C55.2314 64.673 55.2633 64.6958 55.2898 64.7241C55.3163 64.7524 55.337 64.7857 55.3507 64.822C55.6984 65.8442 55.8538 66.922 55.8092 68.0008C55.8355 68.0358 55.8521 68.077 55.8591 68.1207C55.9164 68.5687 56.1143 68.9871 56.4243 69.3155C56.7344 69.644 57.1406 69.8656 57.5846 69.9486C57.8033 69.9445 58.0166 69.8793 58.2003 69.7604C58.384 69.6415 58.5308 69.4736 58.6241 69.2757C58.8342 68.8222 58.9171 68.3202 58.8638 67.8232C58.8481 67.4435 59.4378 67.4461 59.4536 67.8232C59.3606 67.1678 59.2038 66.5231 58.9855 65.8982C58.8154 65.2548 58.4989 64.6595 58.0606 64.1587C57.8722 63.92 57.6294 63.7299 57.3525 63.6043C57.0756 63.4788 56.7726 63.4214 56.4689 63.4369C56.1653 63.4525 55.8697 63.5407 55.6071 63.694C55.3445 63.8472 55.1225 64.0612 54.9596 64.318C54.3296 63.6237 53.456 63.1993 52.5208 63.1332C51.5856 63.0672 50.661 63.3647 49.9397 63.9636C49.8321 62.6231 49.5416 59.9386 49.2835 58.5657C49.2747 58.1911 49.1278 57.8328 48.871 57.56C48.6141 57.2871 48.2655 57.1187 47.892 57.0874C47.5186 57.056 47.1467 57.1638 46.8479 57.39C46.5492 57.6162 46.3446 57.9449 46.2735 58.3128C46.2186 59.2123 46.2358 60.1147 46.3251 61.0113C46.8151 74.2623 46.4546 71.871 46.4581 75.7665C46.4581 79.8335 45.8167 83.1637 42.4707 85.4475C45.9383 89.063 47.9255 94.285 49.0568 99.185C52.2651 96.2732 54.7818 92.6809 56.4226 88.671C59.1711 82.0875 60.2145 74.917 59.4562 67.8232Z" fill="white"/>
<path d="M56.7424 35.0338C56.3326 34.7962 55.8661 34.6739 55.3925 34.6799C54.9188 34.6859 54.4556 34.82 54.0519 35.0679C53.6483 35.3159 53.3192 35.6684 53.0997 36.0882C52.8802 36.5079 52.7783 36.9793 52.8049 37.4523C52.8734 37.928 53.0837 38.3721 53.4084 38.7266C53.7331 39.0811 54.157 39.3295 54.6249 39.4394C55.26 39.5896 55.9276 39.5147 56.5136 39.2274C57.0996 38.9402 57.5677 38.4584 57.8379 37.8644C57.9735 37.3373 57.9407 36.7809 57.7443 36.2733C57.5479 35.7657 57.1975 35.3323 56.7424 35.0338Z" fill="#DEFFEF"/>
<path d="M49.0611 99.1765C47.3251 91.5762 43.4759 83.4781 35.9229 81.4455C33.8787 80.916 31.7426 80.8455 29.6678 81.2388C27.593 81.6321 25.631 82.4796 23.9223 83.7205C18.6146 87.5766 16.0718 94.7026 14.8223 101.149C14.7713 101.326 14.7376 101.507 14.7217 101.69C14.9543 100.641 15.458 99.67 16.1826 98.8754C16.9071 98.0809 17.8273 97.4901 18.8513 97.162C19.8753 96.8338 20.9674 96.7798 22.0188 97.0052C23.0702 97.2306 24.0442 97.7276 24.8437 98.4467C25.5567 99.0997 26.111 99.9071 26.4642 100.807C26.8174 101.707 26.9601 102.676 26.8816 103.64C26.8658 104.594 26.9428 111.654 26.9638 114.227C27.9725 112.017 29.1398 109.882 30.4568 107.84C32.8097 104.125 36.2274 100.008 40.5561 99.2517C41.5294 99.0592 42.5312 99.0614 43.5037 99.2583C44.4761 99.4552 45.3999 99.8429 46.2217 100.399C47.8145 101.503 49.0463 103.053 49.7628 104.853C49.9019 105.203 50.0305 105.553 50.1609 105.898C50.1866 105.859 50.1983 105.811 50.1942 105.764C49.9537 103.547 49.5752 101.347 49.0611 99.1765Z" fill="#2BFF01"/>
<path d="M45.7248 37.1018C46.2603 37.1709 46.7985 37.2226 47.3357 37.2716C47.8485 37.3503 48.3682 37.3766 48.8853 37.3512C50.6205 37.1552 50.8602 34.8286 48.1477 34.6991C47.1736 34.6398 46.2108 34.4582 45.2821 34.1583C45.339 33.9387 46.4196 33.9203 47.1196 33.9921C47.5872 34.0413 48.0596 34.0168 48.5196 33.9194C48.7625 33.8337 48.9616 33.6555 49.0737 33.4236C49.1858 33.1917 49.2018 32.9249 49.1181 32.6813C48.6972 31.4362 46.0993 31.1938 44.737 31.1063C42.0533 30.8985 39.3547 31.2032 36.785 32.0041C29.4463 34.3359 24.6172 41.1916 23.835 48.7936C23.8359 48.8714 23.8673 48.9458 23.9224 49.0007C23.9775 49.0557 24.052 49.0869 24.1298 49.0876H34.5861C34.6635 49.0858 34.7373 49.0542 34.792 48.9995C34.8468 48.9447 34.8783 48.871 34.8801 48.7936C34.9849 46.9868 35.7264 45.2755 36.9731 43.9636C37.4788 43.4701 38.1106 43.1227 38.5306 43.6844C38.9681 44.2628 40.0102 46.9438 41.6412 45.8719C43.3798 44.7266 40.8537 42.2687 41.9037 41.1364C42.3666 40.7286 42.9701 40.5171 43.5863 40.5467C45.899 40.5117 46.9113 41.4812 48.1792 41.4593C49.3263 41.5127 50.2941 40.3323 49.5617 39.4074C49.2188 38.9806 48.7791 38.6416 48.279 38.4187C47.5432 38.0824 46.7697 37.8357 45.9751 37.6837C45.7721 37.6452 45.2208 37.6609 45.2112 37.3591C45.2016 37.0572 45.5175 37.0729 45.7248 37.1018ZM40.285 35.5627C40.5046 35.2591 41.0191 35.5548 40.7933 35.8602C40.6238 36.0885 40.5012 36.3482 40.4326 36.6241C40.364 36.9001 40.3508 37.187 40.3937 37.4681C40.4367 37.7492 40.535 38.0191 40.6829 38.262C40.8307 38.5049 41.0253 38.7161 41.2553 38.8833C41.5633 39.1021 41.2702 39.6087 40.9578 39.3917C40.6603 39.1858 40.4067 38.9229 40.2116 38.6182C40.0164 38.3136 39.8837 37.9732 39.8211 37.6169C39.7585 37.2605 39.7673 36.8953 39.8469 36.5424C39.9266 36.1895 40.0754 35.8559 40.285 35.5609V35.5627ZM25.8256 44.9252C25.8877 44.5516 26.4556 44.7108 26.3943 45.0818L26.0172 47.3656C25.9551 47.7392 25.3872 47.5799 25.4485 47.2089L25.8256 44.9252Z" fill="#DEFFEF"/>
<path d="M63.5489 28.1117C63.5736 28.0699 63.5876 28.0226 63.5896 27.9741C63.5915 27.9256 63.5815 27.8773 63.5602 27.8336C63.539 27.7899 63.5073 27.7522 63.4679 27.7238C63.4285 27.6953 63.3827 27.6771 63.3346 27.6707C63.2767 27.6628 63.2178 27.6722 63.1653 27.6977C63.1128 27.7232 63.0691 27.7638 63.0397 27.8142C61.9333 29.6346 60.841 31.4634 59.7628 33.3005C59.7279 33.3676 59.7201 33.4456 59.741 33.5183C59.762 33.591 59.8101 33.6529 59.8754 33.6911C59.9408 33.7293 60.0183 33.741 60.0919 33.7236C60.1656 33.7063 60.2298 33.6613 60.2712 33.598L63.5489 28.1117Z" fill="black"/>
<path d="M61.9436 34.1809L65.3009 31.6487C65.6002 31.4229 65.3071 30.911 65.0043 31.1394L61.6461 33.6769C61.3477 33.8974 61.6408 34.4093 61.9436 34.1809Z" fill="black"/>
<path d="M50.6269 107.214C50.352 106.421 50.0623 105.634 49.758 104.852C49.1263 103.266 48.0962 101.871 46.7672 100.8C43.5744 98.2864 39.552 98.7624 36.2795 101.2C32.4129 104.081 28.8236 110.118 26.959 114.355C26.959 114.875 27.0089 122.271 27.0097 122.468H61.2432V107.299L50.6269 107.214ZM41.8401 113.489C40.7013 116.289 39.6534 119.125 38.698 121.993C38.6878 122.03 38.6703 122.065 38.6465 122.096C38.6228 122.126 38.5932 122.152 38.5596 122.171C38.5259 122.19 38.4888 122.202 38.4504 122.207C38.412 122.212 38.373 122.209 38.3357 122.198C38.2603 122.178 38.1962 122.128 38.1575 122.06C38.1187 121.992 38.1086 121.912 38.1292 121.836C39.0842 118.968 40.1324 116.132 41.2722 113.332C41.414 112.985 41.9836 113.139 41.8401 113.489ZM45.4276 103.258L43.6986 102.65C43.3425 102.525 43.4965 101.956 43.8552 102.082L45.5851 102.689C45.9421 102.814 45.7881 103.383 45.4294 103.258H45.4276ZM52.1756 116.655C51.962 118.454 51.5149 120.216 50.8456 121.899C50.8356 121.937 50.8182 121.972 50.7946 122.002C50.771 122.033 50.7416 122.059 50.7081 122.078C50.6745 122.097 50.6375 122.11 50.5991 122.115C50.5607 122.12 50.5216 122.117 50.4842 122.107C50.4468 122.097 50.4118 122.08 50.3811 122.056C50.3504 122.033 50.3246 122.003 50.3053 121.97C50.2859 121.936 50.2734 121.899 50.2684 121.861C50.2633 121.822 50.2659 121.783 50.276 121.746C51.9831 117.055 52.3322 113.28 50.3635 107.95C50.2305 107.593 50.8062 107.442 50.9314 107.793C52.05 110.605 52.4773 113.644 52.1774 116.655H52.1756Z" fill="#DEFFEF"/>
<path d="M162.737 101.991C159.508 99.3294 153.322 94.0602 150.678 90.8008C145.009 94.3253 139.787 97.6713 136.444 103.488C140.307 108.131 145.245 111.76 150.828 114.064C150.878 114.077 150.931 114.077 150.981 114.064C151.032 114.051 151.078 114.024 151.115 113.987C153.986 111.173 161.713 103.438 162.737 102.408C162.792 102.352 162.823 102.277 162.823 102.199C162.823 102.121 162.792 102.046 162.737 101.991Z" fill="#DEFFEF"/>
<path d="M103.695 54.9483C103.139 54.6946 101.786 54.1521 102.47 53.3471C102.781 53.0439 103.124 52.7738 103.491 52.5412C105.576 51.0537 104.103 48.5713 102.091 49.9731C101.702 50.2434 101.34 50.5768 101.021 50.8384C99.3463 52.0433 97.8331 53.4578 96.518 55.0472C95.8914 55.8698 95.53 56.8637 95.482 57.8967C95.4341 58.9297 95.7017 59.9529 96.2494 60.8301C96.5399 61.2063 96.8733 61.5458 97.2443 61.8424C97.5496 62.1557 97.8848 62.4383 98.2444 62.6877C98.512 62.8494 98.8269 62.9145 99.1367 62.8723C99.4465 62.8302 99.7325 62.6832 99.9471 62.4558C100.09 62.3051 100.196 62.1237 100.257 61.9256C100.458 61.2562 99.9148 60.4547 99.5805 59.9131C99.3618 59.5587 99.0196 59.0599 98.9741 59.0013C98.9286 58.9427 98.933 58.9532 98.9435 58.9471C99.031 58.8893 99.2288 59.0766 99.304 59.1282C100.327 59.8282 100.94 60.4897 101.732 60.5658C102.489 60.6384 102.808 59.8264 102.687 59.1991C102.48 58.5726 102.132 58.0022 101.669 57.5322C101.254 56.9984 100.882 56.4323 100.557 55.8399C100.793 55.8749 102.102 57.4018 103.474 57.6092C103.764 57.6555 104.061 57.6078 104.322 57.4732C104.582 57.3386 104.793 57.1241 104.923 56.8611C105.349 55.9773 104.387 55.2642 103.695 54.9483ZM98.9006 53.3733C98.9422 53.3791 98.9819 53.3943 99.0166 53.4178C99.0514 53.4413 99.0802 53.4725 99.101 53.5089C99.3294 53.9018 99.5788 54.2816 99.801 54.6753C99.8359 54.7424 99.8437 54.8204 99.8228 54.8932C99.8018 54.9659 99.7537 55.0277 99.6884 55.066C99.6231 55.1042 99.5456 55.1158 99.4719 55.0985C99.3982 55.0812 99.334 55.0362 99.2926 54.9728C99.0538 54.5869 98.8236 54.1941 98.5926 53.8064C98.5658 53.7578 98.5532 53.7026 98.5564 53.6472C98.5596 53.5917 98.5783 53.5383 98.6105 53.4931C98.6427 53.4478 98.687 53.4126 98.7383 53.3914C98.7896 53.3702 98.8459 53.3639 98.9006 53.3733ZM96.8663 58.7213L96.2135 57.8192C95.9904 57.5121 96.5014 57.2181 96.7219 57.5217L97.3746 58.4229C97.5978 58.7309 97.0868 59.0249 96.8663 58.7204V58.7213Z" fill="white"/>
<path d="M41.2718 113.332C40.1325 116.132 39.0843 118.968 38.1288 121.837C38.108 121.912 38.118 121.993 38.1567 122.061C38.1953 122.129 38.2594 122.179 38.3348 122.199C38.4102 122.22 38.4908 122.21 38.5588 122.171C38.6269 122.133 38.6767 122.069 38.6975 121.993C39.6521 119.129 40.71 116.266 41.8396 113.489C41.9831 113.139 41.4135 112.985 41.2718 113.332Z" fill="#DEFFEF"/>
<path d="M158.564 76.6813C158.561 76.6039 158.529 76.5304 158.474 76.4757C158.42 76.4211 158.346 76.3894 158.269 76.3872H154.288C153.542 78.112 152.448 79.6641 151.075 80.9466C149.701 82.2291 148.077 83.2143 146.306 83.8405C142.764 84.9334 138.468 84.0068 134.598 79.8549C133.601 78.7745 132.694 77.6148 131.886 76.3872C131.886 76.3872 128.669 76.3803 128.17 76.375C128.083 76.5754 127.256 78.475 126.931 79.2188C126.89 79.2856 126.826 79.3341 126.751 79.354C126.675 79.374 126.595 79.3637 126.527 79.3255C126.527 79.3255 126.009 79.1006 125.796 79.0061C126.155 81.1675 126.739 83.2856 127.537 85.3263C124.03 88.3406 119.248 92.9956 117.394 97.2263C115.389 102.291 114.236 107.652 113.981 113.093C113.982 113.17 114.013 113.245 114.068 113.3C114.123 113.355 114.198 113.387 114.275 113.388H132.962C133.026 113.387 133.089 113.365 133.14 113.326C133.191 113.287 133.229 113.232 133.246 113.171C133.627 109.857 134.663 106.652 136.295 103.742C137.928 100.833 140.123 98.2785 142.753 96.227C145.265 94.2385 147.912 92.4259 150.674 90.802C153.824 88.9216 156.5 86.6274 157.761 83.2026C158.149 82.129 158.406 81.0125 158.527 79.8776C158.598 78.8136 158.61 77.7461 158.564 76.6813ZM124.767 92.0813C124.19 92.7109 123.677 93.3955 123.235 94.1253C123.193 94.1895 123.129 94.2355 123.055 94.2539C123 94.2669 122.942 94.2638 122.889 94.2449C122.835 94.226 122.788 94.1921 122.754 94.1473C122.719 94.1025 122.698 94.0486 122.693 93.9921C122.688 93.9356 122.699 93.8789 122.725 93.8286C123.183 93.0477 123.728 92.3216 124.35 91.6648C124.608 91.3865 125.024 91.8039 124.767 92.0821V92.0813ZM132.043 82.444C131.941 82.6715 130.489 83.4065 128.145 85.5643C127.883 85.8075 127.498 85.4461 127.698 85.188C128.93 84.0444 130.249 82.9982 131.643 82.059C131.907 81.8814 132.149 82.2078 132.043 82.444Z" fill="#DEFFEF"/>
<path d="M30.3016 125.49C29.6331 125.49 28.9646 125.476 28.297 125.459C27.8866 125.449 27.4657 125.422 27.0518 125.437C27.0273 124.447 26.8611 104.592 26.8768 103.638C26.9147 102.644 26.762 101.653 26.4271 100.717C25.98 99.5825 25.2036 98.6077 24.1978 97.9181C23.192 97.2286 22.0028 96.8558 20.7833 96.8478C19.974 96.8424 19.1716 96.9977 18.4226 97.3045C17.4901 97.6886 16.6645 98.2926 16.0162 99.0652C15.368 99.8377 14.9165 100.756 14.7003 101.741C13.065 108.972 11.322 119.037 10.2046 125.578C8.84959 125.327 7.45337 125.417 6.14196 125.841C3.87221 126.637 3.98859 128.792 5.37196 129.26C6.07896 129.451 6.13409 129.396 9.53171 129.466C8.91134 132.333 8.18421 133.116 8.75471 134.054C8.94995 134.371 9.25538 134.606 9.61261 134.712C9.96984 134.819 10.3538 134.79 10.6911 134.631C11.0988 134.388 11.4722 134.092 11.8015 133.75C14.2401 131.589 16.6043 128.665 17.6815 129.733C18.3123 130.558 18.6851 132.55 19.4437 134.006C19.5662 134.293 19.7883 134.527 20.0692 134.664C20.3501 134.801 20.671 134.833 20.9732 134.753C21.3289 134.635 21.6499 134.431 21.9076 134.159C22.1653 133.887 22.3517 133.555 22.4502 133.194C22.7713 132.013 22.8588 130.25 23.3357 129.743C23.9512 129.413 24.658 129.293 25.3482 129.401C26.2906 129.429 29.7652 129.555 30.558 129.556C31.0143 129.561 31.4587 129.41 31.8189 129.13C32.179 128.85 32.4337 128.456 32.5416 128.013C32.583 127.696 32.5557 127.373 32.4617 127.067C32.3678 126.762 32.2092 126.48 31.9969 126.241C31.7845 126.001 31.5232 125.811 31.2308 125.681C30.9383 125.552 30.6214 125.486 30.3016 125.49ZM19.5715 126.591C19.197 126.878 18.8461 127.194 18.5215 127.536C18.259 127.811 17.8425 127.392 18.105 127.118C18.4672 126.742 18.8592 126.396 19.2766 126.082C19.5776 125.853 19.8698 126.364 19.5715 126.591ZM13.9015 126.4L12.3212 127.275C11.9887 127.458 11.6912 126.949 12.0237 126.766L13.604 125.891C13.9365 125.708 14.234 126.217 13.9015 126.4ZM14.7371 112.028C15.0258 111.188 15.2376 110.324 15.3697 109.445C15.4266 109.072 15.9936 109.231 15.9385 109.602C15.8057 110.48 15.5937 111.345 15.305 112.185C15.1825 112.542 14.6128 112.388 14.7371 112.028Z" fill="white"/>
<path d="M133.843 117.712C128.665 115.296 122.819 114.717 117.268 116.07C115.746 116.453 114.271 117.001 112.87 117.707C112.813 117.738 112.768 117.787 112.741 117.847C112.722 117.891 112.714 117.94 112.718 117.989C112.722 118.037 112.737 118.084 112.764 118.125C112.79 118.166 112.826 118.2 112.869 118.224C112.911 118.247 112.959 118.26 113.007 118.261H133.694C133.97 118.261 134.117 117.84 133.843 117.712Z" fill="black"/>
<path d="M166.744 103.409C162.761 107.399 162.075 109.034 159.569 111.532C157.503 113.613 155.007 115.217 152.256 116.231C152.186 116.244 152.123 116.281 152.078 116.335C152.032 116.389 152.007 116.458 152.007 116.529C152.006 116.6 152.03 116.669 152.074 116.724C152.118 116.779 152.18 116.818 152.249 116.833C155.271 118.012 159.632 116.863 162.767 112.237C164.525 109.568 166.012 106.731 167.206 103.766C167.329 103.478 167 103.153 166.744 103.409Z" fill="black"/>
<path d="M103.007 38.6301C103.3 38.8654 103.72 38.4551 103.424 38.2136L99.9022 35.3865C99.6099 35.152 99.1899 35.5614 99.4857 35.8038L103.007 38.6301Z" fill="black"/>
<path d="M156.292 66.3049C156.112 65.1004 155.54 63.9888 154.664 63.1426C153.788 62.2965 152.658 61.763 151.448 61.625C150.237 61.487 149.016 61.7522 147.972 62.3794C146.928 63.0066 146.12 63.9608 145.674 65.0939C144.992 67.3112 145.213 67.8379 144.283 69.4759C143.513 70.8357 142.376 70.9066 141.133 69.9616C140.221 69.2543 139.426 68.4067 138.78 67.4503C137.876 66.1711 137.085 64.8155 136.417 63.3991C136.01 62.4392 135.868 61.3876 136.005 60.3541C136.082 59.774 136.098 59.1874 136.052 58.6041C136.023 58.3913 135.938 58.1902 135.805 58.0217C135.672 57.8532 135.496 57.7234 135.295 57.6459C135.264 57.6337 135.239 57.6144 135.208 57.6048C134.978 57.5163 134.729 57.4903 134.486 57.5295C134.244 57.5687 134.015 57.6717 133.825 57.8279C133.49 58.2042 133.265 58.6662 133.174 59.1614C132.898 60.2989 132.813 61.0646 132.588 62.4462C131.359 61.8386 130.012 61.5085 128.641 61.4793C128.015 61.4618 127.158 61.3498 126.664 61.8188C126.476 61.9992 126.348 62.2326 126.297 62.4877C126.246 62.7428 126.275 63.0074 126.378 63.2459C126.647 63.8724 127.369 64.0194 127.948 64.2399C128.353 64.3939 128.759 64.5471 129.167 64.6949C129.247 64.7238 129.423 64.7413 129.455 64.8323C129.495 64.9434 129.331 64.9198 129.273 64.9198C127.371 64.9749 126.56 64.5549 125.264 65.0782C125.096 65.1292 124.94 65.2132 124.804 65.3252C124.669 65.4372 124.557 65.5749 124.475 65.7305C124.394 65.8861 124.344 66.0564 124.328 66.2314C124.313 66.4065 124.333 66.5829 124.386 66.7503C124.458 66.9743 124.587 67.1756 124.762 67.3322C125.172 67.6096 125.647 67.7741 126.14 67.8091C126.94 67.9472 127.747 68.0349 128.558 68.0716C128.813 68.0856 129.065 68.1267 129.312 68.1941C126.923 68.6001 125.9 68.6359 125.09 69.3814C124.911 69.6073 124.815 69.8882 124.818 70.1767C124.822 70.4652 124.925 70.7437 125.11 70.9652C125.652 71.6214 126.597 71.5374 127.352 71.5514C130.091 71.5978 130.299 75.2387 134.597 79.8482C138.474 84.0062 142.771 84.9232 146.305 83.8338C148.076 83.2074 149.7 82.2222 151.073 80.9397C152.447 79.6573 153.541 78.1052 154.287 76.3806C155.364 73.9307 156.021 71.317 156.231 68.6491C156.358 67.8742 156.379 67.0854 156.292 66.3049ZM136.063 71.3143C136.246 71.4158 140.432 73.8151 140.432 73.8151C140.499 73.8547 140.548 73.9192 140.567 73.9945C140.587 74.0699 140.576 74.15 140.538 74.2176C140.498 74.2849 140.434 74.3338 140.358 74.3536C140.283 74.3735 140.202 74.3626 140.135 74.3234C139.952 74.2219 135.765 71.8236 135.765 71.8236C135.732 71.8042 135.703 71.7783 135.68 71.7474C135.656 71.7167 135.638 71.6815 135.628 71.6439C135.618 71.6064 135.616 71.5672 135.622 71.5287C135.633 71.4516 135.674 71.382 135.736 71.3344C135.798 71.2872 135.877 71.2665 135.954 71.2767C135.993 71.2819 136.03 71.2942 136.063 71.3143ZM142.455 81.5431C143.32 81.7802 144.236 81.7662 145.094 81.5028C145.457 81.3873 145.611 81.9578 145.25 82.0716C144.292 82.3805 143.264 82.3943 142.298 82.1109C142.241 82.0958 142.191 82.0642 142.152 82.0201C142.114 81.9759 142.089 81.9213 142.082 81.8633C142.075 81.8052 142.085 81.7463 142.112 81.694C142.138 81.6418 142.18 81.5987 142.231 81.5702C142.299 81.5316 142.379 81.5215 142.455 81.5422V81.5431ZM132.392 64.9102C132.766 64.9714 132.607 65.5402 132.236 65.4789L130.761 65.2401C130.388 65.1797 130.547 64.6118 130.918 64.6713L132.392 64.9102ZM130.925 68.2527C131.456 68.4102 132.005 68.5012 132.558 68.5248C132.936 68.5406 132.937 69.1303 132.558 69.1137C131.951 69.0913 131.35 68.9928 130.768 68.8206C130.712 68.8054 130.661 68.7738 130.622 68.7297C130.584 68.6855 130.56 68.631 130.552 68.5729C130.545 68.5148 130.555 68.4559 130.582 68.4037C130.608 68.3515 130.65 68.3083 130.701 68.2798C130.734 68.2606 130.772 68.2483 130.81 68.2434C130.848 68.2386 130.887 68.2415 130.925 68.2518V68.2527Z" fill="white"/>
<path d="M117.791 32.5824L117.063 27.8889C117.004 27.5153 116.437 27.6745 116.494 28.0455L117.222 32.739C117.28 33.1127 117.849 32.9534 117.791 32.5824Z" fill="black"/>
<path d="M131.37 34.5756L133.805 29.6144C133.971 29.2766 133.463 28.9774 133.296 29.3186L130.861 34.2781C130.694 34.6167 131.203 34.916 131.37 34.5756Z" fill="black"/>
<path d="M142.872 54.4515C144.394 53.9142 145.934 53.4155 147.486 52.957C147.526 52.949 147.563 52.933 147.597 52.9098C147.63 52.8866 147.658 52.8568 147.68 52.8222C147.701 52.7876 147.715 52.749 147.721 52.7088C147.727 52.6685 147.724 52.6275 147.713 52.5883C147.703 52.5491 147.684 52.5126 147.658 52.4809C147.633 52.4493 147.601 52.4233 147.565 52.4045C147.529 52.3858 147.489 52.3746 147.449 52.3718C147.408 52.369 147.367 52.3746 147.329 52.3882C145.765 52.7933 144.238 53.3463 142.715 53.8836C142.363 54.0087 142.513 54.5783 142.872 54.4515Z" fill="black"/>
<path d="M90.4392 48.8111C90.3639 48.7907 90.2836 48.8008 90.2157 48.8393C90.1479 48.8778 90.098 48.9416 90.0769 49.0167C90.0574 49.092 90.068 49.1719 90.1064 49.2395C90.1448 49.3071 90.208 49.3571 90.2826 49.379L94.8326 51.2882C94.9079 51.3084 94.9881 51.2982 95.0559 51.2597C95.1236 51.2212 95.1736 51.1576 95.1948 51.0826C95.2141 51.0074 95.2034 50.9276 95.1651 50.86C95.1267 50.7924 95.0637 50.7424 94.9892 50.7204L90.4392 48.8111Z" fill="black"/>
<path d="M169.887 71.4727H164.92C164.842 71.4727 164.767 71.5037 164.711 71.559C164.656 71.6143 164.625 71.6893 164.625 71.7675C164.625 71.8457 164.656 71.9207 164.711 71.976C164.767 72.0313 164.842 72.0624 164.92 72.0624H169.887C169.965 72.0624 170.04 72.0313 170.096 71.976C170.151 71.9207 170.182 71.8457 170.182 71.7675C170.182 71.6893 170.151 71.6143 170.096 71.559C170.04 71.5037 169.965 71.4727 169.887 71.4727Z" fill="black"/>
<path d="M159.951 59.871H163.564C163.642 59.871 163.717 59.8399 163.773 59.7846C163.828 59.7293 163.859 59.6543 163.859 59.5761C163.859 59.4979 163.828 59.4229 163.773 59.3676C163.717 59.3123 163.642 59.2812 163.564 59.2812H159.951C159.873 59.2812 159.798 59.3123 159.743 59.3676C159.687 59.4229 159.656 59.4979 159.656 59.5761C159.656 59.6543 159.687 59.7293 159.743 59.7846C159.798 59.8399 159.873 59.871 159.951 59.871Z" fill="black"/>
<path d="M170.34 54.0156H163.165C163.09 54.0194 163.018 54.0521 162.967 54.1068C162.915 54.1616 162.886 54.2342 162.886 54.3096C162.885 54.3852 162.914 54.4581 162.966 54.513C163.018 54.5679 163.089 54.6007 163.165 54.6045H170.34C170.396 54.6017 170.45 54.5828 170.496 54.55C170.542 54.5172 170.578 54.4719 170.598 54.4196C170.619 54.3672 170.625 54.3099 170.614 54.2546C170.603 54.1993 170.577 54.1482 170.538 54.1075C170.486 54.0527 170.415 54.0198 170.34 54.0156Z" fill="black"/>
<path d="M59.4581 67.8242C59.4424 67.447 58.8526 67.4444 58.8684 67.8242C58.9218 68.3214 58.838 68.8237 58.626 69.2766C58.5322 69.4746 58.3849 69.6424 58.2008 69.7611C58.0166 69.8797 57.8029 69.9443 57.5839 69.9478C57.1402 69.8642 56.7345 69.6422 56.4249 69.3137C56.1154 68.9851 55.9179 68.5668 55.861 68.119C55.8538 68.076 55.8368 68.0353 55.8111 68C55.8559 66.9212 55.7004 65.8434 55.3526 64.8212C55.3402 64.7832 55.3202 64.7481 55.2939 64.7181C55.2676 64.688 55.2355 64.6636 55.1994 64.6463C55.1634 64.629 55.1243 64.6192 55.0844 64.6175C55.0445 64.6157 55.0046 64.6221 54.9672 64.6362C54.9298 64.6502 54.8957 64.6718 54.8669 64.6994C54.838 64.727 54.8151 64.7602 54.7994 64.797C54.7837 64.8337 54.7757 64.8733 54.7757 64.9132C54.7757 64.9532 54.7839 64.9927 54.7996 65.0294C54.9886 65.5702 55.1146 66.1301 55.1776 66.6998C55.3069 67.4485 55.2592 68.2171 55.0385 68.9442C54.9495 69.2388 54.7503 69.4878 54.4823 69.6392C54.2143 69.7906 53.8983 69.8328 53.6 69.757C51.8622 69.1953 52.6077 67.1968 51.9174 65.7373C51.7555 65.3943 51.2497 65.6927 51.409 66.0348C51.4904 66.2115 51.5516 66.3962 51.5936 66.586C51.4035 66.4161 51.1806 66.2868 50.9387 66.2062C50.6968 66.1255 50.441 66.0952 50.1869 66.1171C49.9328 66.139 49.6859 66.2126 49.4614 66.3334C49.2368 66.4542 49.0394 66.6197 48.8811 66.8196C48.0656 67.9773 48.0219 69.3116 47.8679 70.9024C47.8311 71.2786 48.4209 71.2769 48.4576 70.9024C48.4568 69.7218 48.6949 68.5533 49.1576 67.4671C49.2561 67.251 49.4113 67.0657 49.6068 66.9309C49.8023 66.796 50.0307 66.7167 50.2676 66.7015C50.5046 66.6862 50.7413 66.7355 50.9525 66.8442C51.1636 66.9528 51.3414 67.1167 51.4667 67.3184C52.1667 68.6309 51.2987 70.3503 52.0924 71.9629C52.2595 72.3033 52.7679 72.0049 52.6016 71.6654C52.3335 71.0049 52.2398 70.2866 52.3295 69.5794C52.5215 69.8633 52.7891 70.0879 53.1021 70.2277C53.415 70.3675 53.7608 70.417 54.1004 70.3706C54.4401 70.3242 54.7599 70.1837 55.0239 69.965C55.2878 69.7463 55.4853 69.4582 55.5941 69.1332C55.7802 69.5322 56.0708 69.8736 56.4351 70.121C56.7994 70.3683 57.2239 70.5126 57.6635 70.5384C58.962 70.4579 59.5885 69.0824 59.4581 67.8242Z" fill="#DEFFEF"/>
<path d="M109.48 124.537C109.48 101.349 109.53 96.4197 109.461 95.3119C109.439 94.9619 109.405 94.9969 109.354 94.9619C109.262 94.8928 85.7862 80.387 85.6987 80.3337C85.6537 80.307 85.6023 80.293 85.55 80.293C85.4977 80.293 85.4463 80.307 85.4012 80.3337C84.8867 80.6417 61.5697 94.7974 61.4779 94.8665C61.1279 95.129 61.2512 95.1212 61.2434 95.1947C61.2434 126.535 61.2145 124.833 61.2836 125.077C61.3545 125.18 59.6701 123.987 85.0486 141.692C85.0933 141.72 85.1448 141.734 85.1974 141.734C85.2499 141.734 85.3015 141.72 85.3461 141.692C90.5279 138.127 109.3 125.219 109.394 125.136C109.533 124.992 109.48 124.72 109.48 124.537ZM85.5517 80.9357C85.5517 80.9357 108.427 95.0862 108.604 95.1982C108.604 95.1982 85.6165 109 85.3584 109.18C84.619 108.735 62.9584 95.6689 62.1166 95.185C65.6857 93.0185 85.466 80.9969 85.5517 80.9357ZM85.6944 131.878C85.6946 131.917 85.6871 131.955 85.6724 131.991C85.6577 132.027 85.6359 132.06 85.6085 132.087C85.5811 132.115 85.5485 132.136 85.5126 132.151C85.4767 132.166 85.4383 132.173 85.3995 132.173C85.3607 132.173 85.3223 132.166 85.2864 132.151C85.2505 132.136 85.2179 132.115 85.1905 132.087C85.163 132.06 85.1413 132.027 85.1266 131.991C85.1119 131.955 85.1044 131.917 85.1046 131.878V116.976C85.1068 116.919 85.1256 116.863 85.1589 116.816C85.1921 116.769 85.2383 116.733 85.2917 116.712C85.3452 116.691 85.4036 116.686 85.4599 116.698C85.5162 116.709 85.5679 116.737 85.6086 116.777C85.6611 116.83 85.6926 116.902 85.6944 116.976C85.7451 119.908 85.7609 128.037 85.6944 131.88V131.878Z" fill="#2BFF01"/>
<path d="M102.939 94.2105C102.634 93.7581 102.218 93.3924 101.729 93.1491C101.241 92.9059 100.698 92.7935 100.153 92.8228C100.153 92.8228 71.048 92.8018 70.635 92.8359C70.0913 92.8393 69.5594 92.9955 69.1003 93.2869C68.6412 93.5783 68.2734 93.993 68.0389 94.4836C67.5489 95.8416 68.9349 97.4585 71.5441 97.2765C71.5441 97.2765 99.6413 97.2713 100.105 97.2765C102.358 97.3002 103.696 95.6219 102.939 94.2105ZM93.7613 94.2438C93.767 94.1695 93.8006 94.1001 93.8552 94.0495C93.9099 93.9989 93.9816 93.9708 94.0561 93.9708C94.1306 93.9708 94.2024 93.9989 94.2571 94.0495C94.3117 94.1001 94.3453 94.1695 94.351 94.2438V95.7462C94.3453 95.8205 94.3117 95.8898 94.2571 95.9405C94.2024 95.9911 94.1306 96.0192 94.0561 96.0192C93.9816 96.0192 93.9099 95.9911 93.8552 95.9405C93.8006 95.8898 93.767 95.8205 93.7613 95.7462V94.2438ZM75.8465 94.2438C75.8503 94.1683 75.8831 94.0971 75.938 94.0452C75.993 93.9932 76.0658 93.9644 76.1414 93.9647C76.217 93.9644 76.2898 93.9932 76.3448 94.0452C76.3997 94.0971 76.4325 94.1683 76.4363 94.2438V95.6377C76.4324 95.7133 76.3995 95.7846 76.3444 95.8366C76.2893 95.8886 76.2163 95.9173 76.1405 95.9168C76.0649 95.9171 75.9921 95.8883 75.9372 95.8363C75.8823 95.7843 75.8495 95.7132 75.8456 95.6377V94.2438H75.8465Z" fill="#DEFFEF"/>
<path d="M43.7001 102.648L45.4291 103.257C45.7878 103.383 45.9427 102.813 45.5866 102.688L43.8567 102.081C43.498 101.955 43.344 102.524 43.7001 102.648Z" fill="#DEFFEF"/>
<path d="M140.437 73.8079C140.437 73.8079 136.251 71.4086 136.069 71.3071C136.002 71.2745 135.925 71.2684 135.853 71.2901C135.782 71.3118 135.722 71.3596 135.684 71.4239C135.646 71.4883 135.634 71.5645 135.651 71.6372C135.667 71.71 135.71 71.774 135.771 71.8164C135.771 71.8164 139.958 74.2139 140.141 74.3162C140.208 74.3499 140.285 74.3567 140.357 74.3354C140.429 74.314 140.49 74.2661 140.528 74.2013C140.566 74.1365 140.577 74.0598 140.561 73.9867C140.544 73.9136 140.5 73.8496 140.437 73.8079Z" fill="black"/>
<path d="M108.892 128.043V135.043C108.896 135.118 108.929 135.189 108.983 135.241C109.038 135.293 109.111 135.322 109.186 135.321C109.262 135.322 109.334 135.293 109.389 135.241C109.444 135.189 109.477 135.118 109.48 135.043V128.043C109.478 127.987 109.46 127.932 109.427 127.886C109.394 127.839 109.349 127.804 109.296 127.783C109.244 127.762 109.186 127.756 109.131 127.767C109.075 127.778 109.024 127.805 108.983 127.844C108.929 127.897 108.896 127.968 108.892 128.043Z" fill="black"/>
<path d="M13.6035 125.891L12.0233 126.766C11.6908 126.949 11.9883 127.458 12.3208 127.275L13.901 126.4C14.2335 126.216 13.936 125.707 13.6035 125.891Z" fill="#DEFFEF"/>
<path d="M62.5849 135.045V128.045C62.5849 127.967 62.5538 127.892 62.4985 127.836C62.4432 127.781 62.3682 127.75 62.29 127.75C62.2118 127.75 62.1368 127.781 62.0815 127.836C62.0262 127.892 61.9951 127.967 61.9951 128.045V135.045C61.9951 135.123 62.0262 135.198 62.0815 135.253C62.1368 135.309 62.2118 135.34 62.29 135.34C62.3682 135.34 62.4432 135.309 62.4985 135.253C62.5538 135.198 62.5849 135.123 62.5849 135.045Z" fill="black"/>
<path d="M84.9023 143.4V147.042C84.9023 147.12 84.9334 147.195 84.9887 147.251C85.044 147.306 85.119 147.337 85.1972 147.337C85.2754 147.337 85.3504 147.306 85.4057 147.251C85.461 147.195 85.4921 147.12 85.4921 147.042V143.4C85.4921 143.322 85.461 143.247 85.4057 143.192C85.3504 143.137 85.2754 143.105 85.1972 143.105C85.119 143.105 85.044 143.137 84.9887 143.192C84.9334 143.247 84.9023 143.322 84.9023 143.4Z" fill="black"/>
<path d="M19.2747 126.081C18.8573 126.395 18.4653 126.742 18.1031 127.118C17.8406 127.392 18.2571 127.81 18.5196 127.535C18.8442 127.193 19.1951 126.877 19.5696 126.59C19.8697 126.364 19.5775 125.853 19.2747 126.081Z" fill="#DEFFEF"/>
<path d="M15.3698 109.444C15.2376 110.322 15.0259 111.187 14.7371 112.027C14.6138 112.386 15.1825 112.54 15.305 112.183C15.5938 111.343 15.8055 110.479 15.9385 109.6C15.9936 109.229 15.4266 109.07 15.3698 109.444Z" fill="#DEFFEF"/>
<path d="M85.6952 131.882V116.978C85.6952 116.9 85.6642 116.825 85.6089 116.77C85.5536 116.715 85.4785 116.684 85.4003 116.684C85.3221 116.684 85.2471 116.715 85.1918 116.77C85.1365 116.825 85.1055 116.9 85.1055 116.978V131.882C85.1055 131.961 85.1365 132.036 85.1918 132.091C85.2471 132.146 85.3221 132.177 85.4003 132.177C85.4785 132.177 85.5536 132.146 85.6089 132.091C85.6642 132.036 85.6952 131.961 85.6952 131.882Z" fill="black"/>
<path d="M50.9301 107.793C50.9163 107.754 50.8946 107.719 50.8662 107.689C50.8379 107.658 50.8037 107.635 50.7656 107.618C50.5582 107.531 50.2634 107.685 50.3622 107.951C52.3187 113.24 51.9994 117.013 50.2747 121.747C50.2608 121.82 50.2751 121.896 50.3147 121.959C50.3544 122.023 50.4164 122.068 50.4885 122.088C50.5606 122.107 50.6373 122.099 50.7033 122.064C50.7693 122.029 50.8197 121.971 50.8444 121.9C51.506 120.215 51.9529 118.453 52.1744 116.656C52.4748 113.645 52.0481 110.606 50.9301 107.793Z" fill="#DEFFEF"/>
<path d="M40.9583 39.39C41.2707 39.607 41.5638 39.1003 41.2558 38.8816C41.0259 38.7143 40.8314 38.5031 40.6836 38.2601C40.5358 38.0172 40.4376 37.7474 40.3946 37.4663C40.3516 37.1852 40.3648 36.8984 40.4333 36.6225C40.5019 36.3465 40.6244 36.0868 40.7938 35.8585C41.0196 35.5531 40.5051 35.2573 40.2855 35.561C40.0762 35.8559 39.9276 36.1893 39.8481 36.5421C39.7686 36.8948 39.7599 37.2598 39.8225 37.6159C39.8851 37.9721 40.0177 38.3122 40.2127 38.6168C40.4076 38.9213 40.6611 39.1841 40.9583 39.39Z" fill="black"/>
<path d="M26.0167 47.3568L26.3938 45.0731C26.4551 44.7021 25.8872 44.5428 25.8251 44.9156L25.448 47.1993C25.3867 47.5712 25.9546 47.7304 26.0167 47.3568Z" fill="black"/>
<path d="M131.642 82.0584C130.265 82.9935 128.957 84.0257 127.726 85.1471C127.677 85.2034 127.65 85.2767 127.652 85.3519C127.655 85.4271 127.686 85.4985 127.74 85.5514C127.793 85.6045 127.864 85.6354 127.939 85.6378C128.014 85.6403 128.087 85.614 128.144 85.5645C129.334 84.4744 130.603 83.4727 131.94 82.5676C132.238 82.3655 131.963 81.8431 131.642 82.0592V82.0584Z" fill="white"/>
<path d="M124.35 91.6626C123.727 92.3196 123.182 93.0456 122.725 93.8264C122.688 93.8937 122.68 93.9725 122.701 94.0461C122.722 94.1197 122.77 94.1821 122.837 94.2202C122.903 94.2579 122.981 94.2692 123.055 94.2517C123.129 94.2333 123.193 94.1873 123.234 94.1231C123.676 93.3931 124.19 92.7085 124.766 92.0791C125.023 91.8008 124.608 91.3834 124.35 91.6626Z" fill="white"/>
<path d="M136.444 43.9497C138.075 45.5089 140.675 45.6402 141.781 43.6872C143.202 42.9669 144.728 42.4766 146.303 42.2347C148.657 41.7359 147.913 39.4811 146.36 39.1923C148.954 37.2393 146.672 35.5541 144.297 36.7371C144.326 36.5128 144.29 36.285 144.195 36.0802C144.099 35.8753 143.947 35.7017 143.757 35.5794C143.414 35.4062 143.035 35.3187 142.651 35.3245C142.266 35.3303 141.89 35.4292 141.552 35.6127C139.72 36.3096 138.192 37.6313 137.239 39.3446C136.588 39.6133 136.064 40.1209 135.775 40.7635C135.485 41.4061 135.453 42.135 135.684 42.8008C135.836 43.2418 136.097 43.6373 136.444 43.9497ZM143.341 37.5823C143.342 37.6611 143.367 37.7377 143.412 37.8027C143.456 37.8677 143.519 37.9182 143.592 37.9481C143.664 37.9784 143.744 37.9871 143.821 37.9729C143.899 37.9588 143.97 37.9225 144.028 37.8684C145.181 36.8071 147.556 36.9331 146.4 38.0889C145.769 38.6944 145.032 39.1783 144.225 39.5161C143.788 39.7033 144.086 40.4068 144.53 40.2589L144.578 40.2432C145.261 40.0174 146.197 39.7086 146.759 40.2826C146.853 40.3641 146.923 40.4698 146.961 40.5883C146.999 40.7068 147.004 40.8335 146.975 40.9546C146.526 41.7421 145.255 41.2066 142.133 42.6171C142.344 40.7096 140.36 38.9508 138.371 39.0654C139.388 37.6116 140.893 36.571 142.613 36.1324C142.766 36.0876 142.93 36.0903 143.082 36.1403C143.234 36.1903 143.368 36.2852 143.465 36.4124C143.571 36.7318 143.394 36.9103 143.341 37.5823ZM140.524 43.9217C138.841 45.1861 135.492 43.2147 136.517 41.1051C137.534 39.0094 140.651 39.7138 141.298 41.9617C141.367 42.3281 141.331 42.7067 141.194 43.0536C141.057 43.4005 140.825 43.7015 140.524 43.9217Z" fill="black"/>
<path d="M52.6924 37.455C52.783 38.0706 53.096 38.6317 53.5723 39.0321C54.0486 39.4324 54.6552 39.6443 55.2772 39.6276C55.8393 39.6224 56.3883 39.4567 56.8595 39.1501C57.3307 38.8435 57.7046 38.4087 57.9372 37.8969C58.0612 37.5613 58.0915 37.1983 58.0247 36.8469C58.1699 35.2868 58.1997 33.7188 58.1174 32.1543C58.2049 30.5338 57.3693 30.1085 55.8092 29.8924C55.1114 29.7526 54.3899 29.7881 53.7092 29.9956C53.4077 30.142 53.1558 30.3737 52.9847 30.6619C52.8136 30.9501 52.7308 31.2822 52.7467 31.617C52.5948 33.3612 52.5898 35.115 52.7318 36.86C52.6968 37.056 52.6837 37.2555 52.6924 37.455ZM57.3116 35.4005C57.064 35.1367 56.765 34.9264 56.433 34.7827C56.101 34.6389 55.7431 34.5647 55.3813 34.5647C55.0195 34.5647 54.6616 34.6389 54.3296 34.7827C53.9976 34.9264 53.6986 35.1367 53.4511 35.4005C53.3913 34.0915 53.4317 32.7799 53.5718 31.477C53.5685 31.3368 53.6015 31.1981 53.6678 31.0745C53.734 30.9509 53.8312 30.8466 53.9498 30.7718C54.2839 30.6517 54.6402 30.6063 54.9937 30.6388C55.4113 30.644 55.8269 30.6966 56.2327 30.7954C57.0946 30.9091 57.4104 31.386 57.3229 32.4518C57.3698 33.4342 57.366 34.4184 57.3116 35.4005ZM56.8137 36.0856C57.0797 36.4024 57.2363 36.797 57.2582 37.2109C57.2503 38.1524 56.0472 38.8821 55.1284 38.8209C54.7462 38.7921 54.3828 38.6434 54.0901 38.3959C53.7974 38.1484 53.5903 37.8149 53.4983 37.4428C53.3592 35.4976 55.8486 34.6489 56.8154 36.0856H56.8137Z" fill="black"/>
<path d="M31.3016 79.8292C32.0612 79.9004 32.8209 79.696 33.4423 79.2535C34.0636 78.8109 34.5051 78.1597 34.6861 77.4186C34.8445 76.7635 34.7814 76.0744 34.5065 75.4591C34.2317 74.8437 33.7607 74.3368 33.1671 74.0175C32.4801 73.6757 31.7032 73.5575 30.9456 73.6796C30.188 73.8017 29.4876 74.1579 28.9426 74.6982C28.6095 75.1647 28.4056 75.7109 28.3515 76.2815C28.2973 76.8522 28.3949 77.427 28.6343 77.9478C28.8738 78.4686 29.2466 78.9168 29.7149 79.2472C30.1833 79.5776 30.7307 79.7784 31.3016 79.8292ZM30.284 74.6729C31.9255 74.0437 33.8619 74.7726 33.9433 76.5751C33.9722 77.1555 33.7831 77.7257 33.4132 78.1738C33.0433 78.6219 32.5192 78.9155 31.9439 78.9971C31.3062 79.0906 30.6573 78.9295 30.1375 78.5485C29.6176 78.1675 29.2686 77.5972 29.1658 76.961C29.0747 76.5097 29.1349 76.041 29.337 75.6274C29.5392 75.2137 29.872 74.8783 30.284 74.6729Z" fill="black"/>
<path d="M59.8285 33.7934C59.9191 33.8417 60.0247 33.854 60.1241 33.8277C60.2234 33.8014 60.3091 33.7385 60.364 33.6516L63.6435 28.161C63.6726 28.115 63.6922 28.0635 63.701 28.0097C63.7098 27.9559 63.7077 27.9009 63.6948 27.848C63.6818 27.795 63.6583 27.7452 63.6257 27.7016C63.5931 27.6579 63.552 27.6213 63.5048 27.5939C63.4577 27.5665 63.4055 27.5489 63.3515 27.5422C63.2974 27.5354 63.2425 27.5397 63.1901 27.5546C63.1377 27.5696 63.0888 27.595 63.0464 27.6292C63.0041 27.6635 62.969 27.706 62.9435 27.7541C61.8372 29.5762 60.744 31.4062 59.664 33.2439C59.6383 33.2907 59.6221 33.3421 59.6165 33.3952C59.6109 33.4483 59.6159 33.5019 59.6312 33.5531C59.6465 33.6042 59.6718 33.6518 59.7057 33.693C59.7395 33.7343 59.7813 33.7684 59.8285 33.7934Z" fill="black"/>
<path d="M62.0096 34.2669L65.3669 31.7346C65.7791 31.4231 65.3582 30.7328 64.9373 31.0504L61.5799 33.5879C61.1661 33.8959 61.5869 34.5845 62.0096 34.2669Z" fill="black"/>
<path d="M162.814 102.479C162.889 102.401 162.93 102.297 162.93 102.189C162.928 102.081 162.883 101.978 162.806 101.902C160.129 99.6959 153.647 94.2333 150.843 90.826C152.692 89.7759 154.355 88.4261 155.762 86.8316C157.959 84.3029 158.938 80.8816 158.67 76.6703C158.17 68.7323 158.664 60.0304 154.285 54.916C151.829 52.0678 148.472 50.1458 144.772 49.4692C141.782 49.1862 138.766 49.5063 135.902 50.4107C135.106 46.9372 133.26 43.7934 130.613 41.407C127.967 39.0207 124.65 37.5077 121.113 37.0741C117.576 36.6406 113.991 37.3074 110.847 38.9839C107.703 40.6604 105.151 43.265 103.54 46.4434C103.238 47.0384 103.096 47.3884 102.004 49.8979C101.62 50.1604 101.261 50.4982 100.954 50.751C99.272 51.9621 97.7523 53.3835 96.4317 54.9808C95.9442 55.645 95.6131 56.4108 95.4633 57.221C95.3134 58.0312 95.3487 58.8648 95.5664 59.6594C95.7895 60.4455 96.2474 61.1446 96.8789 61.6631L95.2829 65.3268C95.2565 65.3736 95.2397 65.4252 95.2333 65.4786C95.227 65.532 95.2312 65.5861 95.2459 65.6378C95.2605 65.6895 95.2852 65.7378 95.3186 65.7799C95.352 65.8221 95.3934 65.8572 95.4404 65.8833L101.98 68.7349L100.428 72.4414C100.398 72.5441 100.41 72.6545 100.461 72.7484C100.513 72.8422 100.599 72.9118 100.702 72.9419C100.804 72.9719 100.915 72.96 101.009 72.9086C101.103 72.8573 101.172 72.7707 101.202 72.668L102.717 69.056L117.993 75.7148L116.399 78.9663C116.169 79.4335 116.871 79.8343 117.104 79.36L118.733 76.035L125.705 79.0748C126.063 81.198 126.636 83.2795 127.414 85.2873C123.806 88.3935 119.148 92.9619 117.301 97.1785C115.141 102.111 114.118 108.628 113.879 113.09C113.879 113.197 113.922 113.299 113.998 113.375C114.074 113.45 114.176 113.493 114.283 113.493H132.971C133.061 113.491 133.148 113.459 133.219 113.403C133.29 113.347 133.34 113.269 133.363 113.181C133.792 109.845 134.845 106.62 136.467 103.674C140.335 108.269 145.251 111.866 150.802 114.161C150.87 114.18 150.943 114.18 151.012 114.162C151.081 114.144 151.144 114.109 151.195 114.059C154.093 111.214 161.917 103.381 162.814 102.479ZM150.141 91.2592C153.098 94.8003 159.291 100.043 161.932 102.226C157.994 106.163 155.478 108.92 150.819 113.303C145.408 111.027 140.629 107.474 136.891 102.947C140.287 97.5889 145.093 94.3532 150.141 91.2592ZM114.711 112.686C114.978 108.158 115.848 103.685 117.296 99.3861C118.119 96.993 119.421 94.2289 123.338 90.2389C125.986 87.5203 128.843 85.0125 131.881 82.7384C132.027 82.6413 132.084 82.6028 132.128 82.5127C133.071 81.7966 134.028 81.0994 134.998 80.4214C138.395 83.8339 142.523 85.1184 146.336 83.9433C149.676 82.7813 152.428 80.3599 154.006 77.1961H157.89C158.146 80.2366 157.329 83.2707 155.58 85.7711C152.918 89.3648 149.449 90.1925 142.902 95.2212C140.091 97.2822 137.729 99.8947 135.962 102.899C134.194 105.903 133.058 109.237 132.622 112.695L114.711 112.686ZM127.331 52.354C127.136 52.7546 126.818 53.0832 126.425 53.2929C126.12 53.4899 125.79 53.6444 125.444 53.7523C125.927 53.1995 126.44 52.6737 126.981 52.1773C127.377 51.8596 127.418 52.1764 127.331 52.354ZM123.073 51.85C123.124 49.96 124.385 49.6083 124.37 49.8681C124.37 50.5016 123.549 51.4222 123.073 51.85ZM120.142 49.1025C120.144 48.6913 120.236 48.2835 120.41 47.9108C120.627 47.5494 121.054 47.7034 120.986 47.9396C120.805 48.3908 120.515 48.7903 120.142 49.1025ZM115.9 46.572C115.925 46.5176 115.964 46.4704 116.012 46.4347C116.061 46.3991 116.117 46.3762 116.177 46.3681C116.237 46.3606 116.297 46.3682 116.353 46.3904C116.409 46.4126 116.458 46.4486 116.496 46.495C116.817 47.0086 116.726 47.4838 116.393 49.3178C116.061 48.953 115.838 48.5017 115.751 48.016C115.663 47.5303 115.715 47.0297 115.9 46.572ZM116.961 50.6775C117.369 50.8379 117.807 50.9083 118.245 50.884C118.683 50.8597 119.111 50.7412 119.498 50.5366C119.651 51.6206 120.215 52.6043 121.073 53.2833C121.297 53.3954 121.545 53.4504 121.796 53.4434C122.046 53.4363 122.29 53.3675 122.508 53.243C122.721 53.7974 123.133 54.2531 123.663 54.5223C118.906 59.8098 114.928 65.7494 111.85 72.1614L108.788 70.8288C112.819 64.7187 115.597 57.8693 116.961 50.6775ZM124.579 54.7069C125.759 54.6565 126.873 54.1461 127.682 53.285C128.479 52.5457 128.226 51.1413 127.22 51.2017C126.551 51.3417 126.25 51.6391 124.237 53.8651C123.985 53.7923 123.757 53.6556 123.575 53.4686C123.392 53.2815 123.261 53.0504 123.194 52.7977C124.041 52.1778 124.701 51.3377 125.105 50.3687C125.175 50.2225 125.207 50.061 125.199 49.899C125.191 49.737 125.141 49.5797 125.056 49.4417C124.971 49.3037 124.852 49.1894 124.711 49.1093C124.57 49.0292 124.411 48.986 124.249 48.9835C124.01 49.0003 123.778 49.0671 123.567 49.1797C123.356 49.2924 123.171 49.4482 123.024 49.6371C122.72 50.0297 122.499 50.4797 122.374 50.96C122.248 51.4403 122.222 51.941 122.295 52.4319C122.095 52.5733 121.855 52.6488 121.61 52.648C121.484 52.5988 121.371 52.5209 121.28 52.4205C120.701 51.7676 120.332 50.9553 120.222 50.0895C120.963 49.5802 121.518 48.8429 121.801 47.9895C121.929 47.0821 120.9 46.6893 120.2 47.027C120.003 47.1571 119.835 47.3269 119.707 47.5256C119.579 47.7244 119.493 47.9476 119.456 48.1812C119.351 48.6773 119.323 49.1868 119.374 49.6914C119.048 49.9161 118.669 50.0507 118.274 50.0814C117.88 50.1121 117.484 50.038 117.127 49.8664C117.29 49.1148 117.412 48.3553 117.49 47.5914C117.554 46.9667 117.433 45.8414 116.576 45.6043C116.334 45.541 116.079 45.5531 115.845 45.6389C115.61 45.7248 115.407 45.8803 115.263 46.0847C114.554 47.0804 114.826 49.1471 116.226 50.254C114.901 57.4896 112.117 64.3796 108.043 70.5042C106.954 70.0264 97.326 65.8028 96.1666 65.311L97.5045 62.2398C97.7108 62.5089 97.9857 62.7176 98.3003 62.8442C98.6149 62.9707 98.9578 63.0104 99.293 62.959C99.4845 62.9139 99.6651 62.8307 99.824 62.7145C99.9828 62.5984 100.117 62.4515 100.218 62.2826C100.692 61.4951 100.181 60.6726 99.7305 59.9464C99.5838 59.7078 99.4315 59.4726 99.2737 59.2411C100.291 59.9411 100.903 60.5974 101.724 60.6761C102.517 60.7531 102.942 59.9359 102.796 59.1816C102.635 58.3434 101.921 57.8446 100.906 56.2399C101.616 56.9437 102.496 57.453 103.46 57.7187C104.848 57.9269 106.336 56.0203 103.643 54.8032C102.915 54.4742 102.037 54.0314 102.548 53.425C102.856 53.1265 103.194 52.8603 103.556 52.6305C105.393 51.318 104.577 49.2705 103.08 49.4534C103.08 49.4534 103.63 48.1925 103.821 47.7524C105.026 44.9541 106.98 42.543 109.469 40.7854C111.957 39.0279 114.883 37.9922 117.923 37.7926C120.963 37.5931 123.999 38.2376 126.696 39.6548C129.393 41.0721 131.645 43.207 133.205 45.8239C135.295 49.3312 136.013 53.4878 135.22 57.4929C134.973 57.4043 134.708 57.3819 134.449 57.428C134.191 57.474 133.949 57.5869 133.748 57.7554C133.055 58.5342 132.985 59.3024 132.507 62.2826C131.3 61.7086 129.985 61.3975 128.648 61.37C127.975 61.3516 127.119 61.2388 126.592 61.7393C126.389 61.9352 126.25 62.1884 126.195 62.4651C126.139 62.7418 126.17 63.0289 126.281 63.288C126.599 64.0291 127.331 64.0974 129.184 64.8167C127.434 64.8552 126.525 64.4579 125.228 64.9803C124.983 65.0541 124.762 65.1924 124.589 65.3806C124.415 65.5688 124.296 65.8 124.242 66.0503C124.188 66.3005 124.203 66.5605 124.284 66.8032C124.365 67.046 124.51 67.2625 124.703 67.4303C125.125 67.7161 125.615 67.8865 126.123 67.9247C126.963 68.0664 127.81 68.1574 128.661 68.1959C127.027 68.4584 125.821 68.5686 125.006 69.3194C124.812 69.5651 124.708 69.87 124.711 70.1831C124.715 70.4962 124.826 70.7985 125.026 71.0397C125.595 71.7283 126.513 71.6521 127.35 71.6661C127.683 71.6723 128.012 71.7452 128.317 71.8804C128.622 72.0157 128.897 72.2106 129.125 72.4536C129.125 72.4536 126.778 77.7911 126.466 78.5419L112.59 72.4921C115.697 66.0106 119.736 60.0187 124.579 54.7069ZM96.1841 57.9645L96.7774 58.7826C97.0775 59.2 97.7749 58.7879 97.4634 58.3574L96.8097 57.4553C96.7485 57.371 96.6582 57.3123 96.5563 57.2905C96.4544 57.2687 96.348 57.2853 96.2576 57.3371C96.6205 55.9741 97.4101 54.763 98.5107 53.8809C98.5107 53.8809 99.0445 54.7734 99.2011 55.0271C99.2561 55.1196 99.3449 55.1871 99.4487 55.2153C99.5262 55.2359 99.6081 55.2329 99.6838 55.2067C99.7596 55.1806 99.8258 55.1323 99.874 55.0683C99.9067 55.0262 99.9306 54.9779 99.9441 54.9263C99.9576 54.8747 99.9606 54.8209 99.9527 54.7682C99.9457 54.7153 99.9282 54.6644 99.9011 54.6185C99.6745 54.2204 99.4312 53.8503 99.2011 53.4513C99.1765 53.4089 99.1441 53.3715 99.1057 53.341C99.8696 52.6778 102.145 50.7755 102.637 50.4614C102.797 50.359 103.344 50.0571 103.671 50.4378C103.761 50.5653 103.811 50.7167 103.814 50.8726C103.817 51.0285 103.774 51.1818 103.689 51.3128C103.314 52.004 102.482 52.2753 101.951 52.8782C101.809 53.0351 101.705 53.2231 101.648 53.4273C101.591 53.6315 101.583 53.8462 101.624 54.0541C102.047 55.5154 103.768 55.2931 104.259 56.2189C104.299 56.2836 104.32 56.3588 104.317 56.4351C104.315 56.5114 104.29 56.5854 104.246 56.6477C104.166 56.7452 104.062 56.8211 103.945 56.8683C103.828 56.9156 103.701 56.9327 103.575 56.918C102.43 56.6468 101.884 55.9293 100.995 55.2835C100.84 55.1698 100.646 55.1217 100.455 55.1495C100.265 55.1773 100.093 55.2789 99.9764 55.4323C99.7095 55.791 99.9387 56.1778 100.122 56.4884C101.233 58.3749 102.323 59.0434 101.991 59.7259C101.816 60.0803 101.214 59.6428 100.892 59.4065C100.617 59.2053 100.683 59.2657 100.074 58.8115C99.4654 58.3592 99.174 58.143 98.7811 58.2515C98.5965 58.3033 98.4397 58.4257 98.3447 58.5923C98.2497 58.7588 98.2241 58.9561 98.2736 59.1414C98.3655 59.4739 99.0261 60.1126 99.4986 61.2361C99.5581 61.3371 99.5899 61.452 99.5908 61.5693C99.5917 61.6865 99.5618 61.8019 99.5039 61.9038C99.413 62.034 99.278 62.127 99.1239 62.1655C98.9698 62.2039 98.807 62.1852 98.6656 62.1129C98.3332 61.9017 98.0297 61.6481 97.7626 61.3586C97.4258 61.0945 97.1197 60.7933 96.85 60.4609C96.3807 59.7153 96.1485 58.8448 96.1841 57.9645ZM135.493 62.9205C136.172 64.5949 137.04 66.1868 138.078 67.6656C138.722 68.6071 140.985 71.6486 143.12 71.2636C144.974 70.9285 145.728 67.9317 145.92 67.0138C146.029 66.2574 146.247 65.5206 146.567 64.8263C147.178 63.6982 148.211 62.8585 149.441 62.4917C150.67 62.1249 151.995 62.2609 153.124 62.8698C153.854 63.2563 154.472 63.8265 154.915 64.5241C155.358 65.2218 155.612 66.0228 155.652 66.8484C155.66 67.6587 155.597 68.4689 155.463 69.2686C155.204 71.8178 154.511 74.3038 153.413 76.6187C151.575 80.3243 147.775 83.5653 143.525 83.5653C137.511 83.5653 133.463 77.8533 130.929 73.543C130.091 72.1159 129.067 70.8594 127.409 70.8594C126.789 70.8594 125.936 70.9749 125.616 70.4709C125.133 69.7123 126.33 69.4209 127.221 69.2503C129.157 68.8767 130.093 69.0271 130.089 68.1871C130.089 67.4416 129.066 67.3953 128.518 67.369C127.472 67.3397 126.432 67.1906 125.42 66.9245C125.302 66.8824 125.199 66.8055 125.125 66.704C125.052 66.6025 125.011 66.4811 125.007 66.3558C125.031 65.9113 125.595 65.6908 125.759 65.6365C126.426 65.488 127.114 65.4669 127.788 65.5744C128.39 65.6569 129 65.6619 129.603 65.5893C129.761 65.5438 129.901 65.4487 130.001 65.3181C130.101 65.1874 130.157 65.0281 130.16 64.8634C130.163 64.6988 130.113 64.5374 130.018 64.4032C129.923 64.2689 129.787 64.1688 129.63 64.1175C129.221 63.9574 127.73 63.4088 127.39 63.2775C127.265 63.2448 127.156 63.1694 127.081 63.0643C127.006 62.9592 126.97 62.8312 126.98 62.7025C126.99 62.5738 127.045 62.4526 127.135 62.3601C127.224 62.2675 127.344 62.2095 127.472 62.196C129.253 62.0465 131.038 62.42 132.609 63.2705C132.656 63.298 132.707 63.3159 132.76 63.3232C132.813 63.3306 132.867 63.3272 132.919 63.3134C132.971 63.2995 133.019 63.2754 133.062 63.2425C133.104 63.2096 133.14 63.1686 133.166 63.1218C133.265 62.7464 133.334 62.3631 133.372 61.9755C133.462 60.835 133.707 59.7121 134.101 58.6383C134.148 58.4927 134.247 58.37 134.38 58.2947C134.513 58.2194 134.669 58.1971 134.818 58.2323C134.93 58.2321 135.04 58.265 135.134 58.327C135.227 58.3889 135.3 58.4771 135.344 58.5805C135.373 58.6505 135.388 58.724 135.388 58.7984C135.382 60.8704 135.042 61.1303 135.493 62.9197V62.9205ZM128.339 76.2625L129.699 73.1423C130.128 73.7417 130.685 74.7689 131.684 76.2721C131.034 76.2713 129.023 76.2669 128.339 76.2625ZM127.032 79.2585L127.982 77.0798H132.237C132.904 78.0471 133.637 78.9669 134.431 79.8325C132.648 81.0908 129.518 83.4157 128.048 84.7115C127.404 83.0086 126.914 81.2516 126.582 79.4615C126.669 79.4805 126.76 79.4709 126.841 79.4344C126.922 79.3978 126.989 79.3362 127.032 79.2585ZM154.452 76.2721C155.479 73.8534 156.116 71.2868 156.338 68.6684C156.662 67.2103 156.453 65.6842 155.749 64.3669C155.226 63.4363 154.45 62.6728 153.511 62.1652C152.572 61.6575 151.508 61.4264 150.443 61.4985C149.378 61.5707 148.355 61.9432 147.493 62.5729C146.631 63.2026 145.965 64.0637 145.573 65.0564C144.892 67.2719 145.111 67.7951 144.192 69.4174C143.985 69.7965 143.684 70.1155 143.317 70.3432C142.688 70.7142 141.728 70.2688 141.203 69.8689C140.299 69.169 139.513 68.3299 138.873 67.383C138.218 66.447 137.62 65.4732 137.08 64.4667C136.741 63.8708 136.463 63.243 136.248 62.5924C135.81 60.7042 136.321 60.3524 136.168 58.5866C136.136 58.3765 136.055 58.1765 135.934 58.0021C136.427 55.7683 136.473 53.4592 136.07 51.2078C137.616 50.7451 139.202 50.4276 140.807 50.2593C142.422 50.042 144.061 50.1054 145.654 50.4465C149.487 51.3968 152.802 53.7982 154.899 57.1446C157.711 61.8959 157.474 70.211 157.845 76.2721H154.452Z" fill="black"/>
<path d="M109.589 95.2847C109.598 95.2073 109.587 95.1288 109.558 95.0568C109.528 94.9847 109.48 94.9216 109.419 94.8734C109.311 94.792 85.9688 80.3659 85.7535 80.239C85.6915 80.2019 85.6206 80.1822 85.5483 80.1822C85.4761 80.1822 85.4051 80.2019 85.3432 80.239L72.8062 87.8647C72.8683 81.5647 73.1247 63.9728 71.8375 57.9283C71.5103 56.2839 70.8336 54.729 69.8533 53.3688C68.8729 52.0087 67.6118 50.875 66.1553 50.0445C62.6089 47.9822 57.7089 47.2165 51.5892 47.7695C48.0826 48.0146 44.7526 49.4006 42.1077 51.7158C39.5973 54.0783 35.5565 52.9574 35.0508 50.4838C34.5503 48.0417 35.9914 44.3448 37.7572 43.5442C38.2235 43.3324 38.4904 43.7577 38.7328 44.2039C39.4617 45.5418 40.425 46.7957 41.7008 45.9539C43.5138 44.7604 41.006 42.2544 41.9773 41.2097C42.4199 40.8173 42.9993 40.6152 43.5899 40.647C45.8019 40.6077 46.9272 41.5807 48.1758 41.5597C49.4218 41.6139 50.4403 40.3285 49.6493 39.331C49.2954 38.8906 48.842 38.5406 48.3263 38.3099C47.5351 37.9434 46.6976 37.6866 45.8369 37.5469C45.6462 37.5277 45.3268 37.4944 45.3224 37.3457C45.3128 37.0788 45.6383 37.2179 47.3192 37.3693C47.8407 37.448 48.3683 37.4743 48.8942 37.448C49.1049 37.4487 49.313 37.4009 49.5023 37.3081C49.6916 37.2154 49.8569 37.0803 49.9856 36.9134C50.1142 36.7464 50.2026 36.552 50.244 36.3454C50.2854 36.1387 50.2786 35.9253 50.2242 35.7217C50.0409 35.3407 49.7434 35.0264 49.3731 34.8225C49.0028 34.6186 48.5782 34.5353 48.1583 34.5842C47.2638 34.5043 46.3775 34.3497 45.5088 34.1222C46.6227 33.8947 47.3025 34.2884 48.5538 34.0163C48.8231 33.9201 49.0439 33.7219 49.1684 33.4644C49.293 33.2069 49.3114 32.9108 49.2197 32.6399C48.8985 31.6897 47.4338 31.1524 44.7414 30.9949C42.0442 30.7829 39.3314 31.0888 36.7492 31.8962C24.9095 35.6587 20.5765 50.7699 25.8117 58.5557C28.4472 62.4774 32.739 64.9895 38.2279 65.8252C38.1278 71.2346 38.0342 76.6441 37.947 82.0538C37.5148 81.8578 37.072 81.6845 36.6205 81.5367C36.6905 78.0253 37.1088 74.8954 35.3955 72.8689C33.4889 70.6193 29.8953 71.0367 27.8207 73.0824C25.8265 75.0468 25.1195 77.3979 24.1798 80.2198C23.912 81.0274 23.6994 81.6635 23.5909 81.8683C22.0844 84.2118 19.8864 86.0287 17.3014 87.0675C15.7798 87.6678 14.1295 87.9784 12.7584 88.9864C11.4749 89.9304 10.5453 91.2778 10.1185 92.8128C9.90514 93.5548 9.91589 94.3434 10.1494 95.0793C10.383 95.8152 10.8288 96.4657 11.431 96.9489C10.0919 97.4487 8.98202 98.4214 8.31078 99.6833C7.17328 102.062 8.5269 104.258 10.4432 104.52C9.83892 105.205 9.38759 106.01 9.11928 106.883C8.95644 107.417 8.93928 107.985 9.06958 108.528C9.19988 109.071 9.4729 109.569 9.86041 109.972C10.2551 110.295 10.7188 110.524 11.2159 110.641C11.7129 110.758 12.2301 110.759 12.7278 110.645C12.8153 110.63 12.7882 109.951 10.1194 125.463C8.78103 125.221 7.40353 125.316 6.11103 125.739C3.74853 126.567 3.8509 128.861 5.34803 129.367C6.0629 129.56 6.1294 129.509 9.40103 129.574C8.77453 132.395 8.07015 133.133 8.66603 134.112C8.87679 134.454 9.20647 134.705 9.59159 134.818C9.97671 134.931 10.39 134.898 10.752 134.724C11.9035 134.039 14.252 131.42 15.6923 130.328C16.0347 130.037 16.4252 129.807 16.8464 129.649C16.9733 129.601 17.1114 129.589 17.2447 129.615C17.3781 129.642 17.5012 129.705 17.5998 129.799C18.2123 130.598 18.5929 132.599 19.3498 134.052C19.4854 134.363 19.7275 134.614 20.0324 134.762C20.3372 134.909 20.6848 134.943 21.0123 134.857C21.3858 134.734 21.7229 134.52 21.9933 134.235C22.2637 133.95 22.4588 133.602 22.561 133.222C22.8717 132.085 22.9837 130.283 23.4072 129.831C23.9617 129.526 24.6007 129.412 25.2263 129.506L30.5638 129.665C30.967 129.679 31.3652 129.573 31.7082 129.36C32.0513 129.148 32.3238 128.839 32.4914 128.472C32.6595 128.105 32.7157 127.697 32.653 127.298C32.5903 126.9 32.4114 126.529 32.1388 126.232C31.9129 125.967 31.6331 125.755 31.318 125.608C31.003 125.461 30.6602 125.383 30.3127 125.38C29.4657 125.38 27.1627 125.324 27.1627 125.324C27.1425 124.496 27.1303 123.616 27.1242 122.576H61.1337V124.326C61.0917 124.58 61.1039 124.84 61.1704 125.088C61.1704 125.207 60.5159 124.72 84.9905 141.792C85.053 141.83 85.125 141.851 85.1983 141.851C85.2717 141.851 85.3437 141.83 85.4062 141.792C85.4062 141.792 108.918 125.617 109.444 125.241C109.666 125.2 109.589 126.754 109.589 95.2847ZM9.36165 132.769C9.7397 131.59 10.0482 130.389 10.2857 129.174C10.2847 129.068 10.2422 128.966 10.1671 128.891C10.092 128.816 9.99034 128.773 9.88403 128.772C9.12278 128.76 6.60453 128.718 6.12153 128.69C5.95282 128.699 5.78411 128.671 5.62774 128.607C5.47136 128.543 5.33126 128.445 5.21766 128.319C5.11037 128.126 5.06882 127.904 5.09928 127.685C5.12975 127.466 5.23057 127.263 5.38653 127.107C5.68403 126.8 6.05853 126.578 6.47065 126.465C6.95338 126.309 7.45248 126.208 7.95815 126.165C8.7894 126.154 9.62065 126.198 10.4458 126.299C10.5359 126.298 10.6232 126.268 10.6941 126.212C10.765 126.157 10.8155 126.079 10.8378 125.992C11.2753 123.426 14.7149 103.128 15.757 100.743C16.0394 100.096 16.4487 99.512 16.9605 99.0258C17.4724 98.5397 18.0766 98.161 18.7373 97.9123C19.5619 97.5951 20.451 97.4823 21.3287 97.5835C22.2064 97.6847 23.0465 97.9968 23.7773 98.4933C24.5082 98.9897 25.108 99.6557 25.5254 100.434C25.9429 101.213 26.1657 102.081 26.1748 102.965L26.3612 125.746C26.3616 125.799 26.3726 125.852 26.3934 125.901C26.4143 125.95 26.4446 125.994 26.4826 126.032C26.5206 126.069 26.5657 126.099 26.6151 126.118C26.6645 126.138 26.7174 126.148 26.7707 126.148C27.3359 126.118 29.4832 126.199 30.3092 126.186C30.6793 126.188 31.0375 126.317 31.3232 126.553C31.6089 126.788 31.8046 127.115 31.8772 127.478C31.8897 127.646 31.8689 127.815 31.816 127.976C31.7631 128.136 31.6791 128.284 31.5688 128.412C31.4585 128.54 31.3241 128.645 31.1733 128.721C31.0225 128.796 30.8582 128.842 30.6898 128.854C30.5297 128.862 25.8633 128.725 25.4337 128.702C24.8588 128.664 24.2814 128.701 23.716 128.812C23.3198 128.895 22.9616 129.105 22.6958 129.411C22.5528 129.625 22.4458 129.862 22.379 130.111C21.8173 132.195 22.0754 132.633 21.5172 133.532C21.414 133.693 21.2751 133.827 21.1113 133.926C20.9476 134.024 20.7634 134.083 20.573 134.099C20.4902 134.095 20.4098 134.069 20.3397 134.025C20.2697 133.98 20.2123 133.918 20.1732 133.845C19.7285 133.06 19.3873 132.221 19.1582 131.348C18.9794 130.515 18.5923 129.74 18.0329 129.097L18.0233 129.089C16.2829 127.728 13.7743 131.16 10.8772 133.625C10.6563 133.884 10.3418 134.046 10.0022 134.074C9.78454 134.05 9.58424 133.944 9.44201 133.778C9.29979 133.611 9.22631 133.397 9.23653 133.178C9.24309 133.033 9.28613 132.893 9.36165 132.769ZM10.1404 106.423C10.549 105.656 11.0679 104.953 11.6795 104.337C11.7405 104.273 11.7789 104.19 11.7887 104.102C11.7985 104.015 11.7792 103.926 11.7338 103.85C11.6884 103.774 11.6201 103.715 11.5387 103.681C11.457 103.648 11.3668 103.642 11.2814 103.664C10.8649 103.757 10.4299 103.722 10.0336 103.563C9.63737 103.405 9.29847 103.13 9.06153 102.775C8.9045 102.539 8.79649 102.274 8.74391 101.995C8.65456 101.325 8.75476 100.643 9.03315 100.027C9.31153 99.4113 9.75696 98.8856 10.3189 98.5099C10.9749 98.0205 11.7068 97.6422 12.4854 97.3899C12.5679 97.3639 12.64 97.3123 12.6912 97.2425C12.7424 97.1727 12.77 97.0884 12.77 97.0019C12.77 96.9153 12.7424 96.831 12.6912 96.7612C12.64 96.6914 12.5679 96.6398 12.4854 96.6138C11.8898 96.361 11.3989 95.9116 11.0946 95.3406C10.7903 94.7695 10.691 94.1114 10.8133 93.476C11.0502 92.0219 11.8324 90.7127 13.0008 89.815C14.2494 88.8184 15.7535 88.4938 17.2454 87.9495C19.8957 86.9719 22.1921 85.2225 23.8385 82.927C24.2564 82.4182 24.5554 81.8224 24.7135 81.1832C25.8572 77.6954 27.0078 73.617 30.4063 72.4262C30.9869 72.2096 31.6076 72.1214 32.2256 72.1678C32.8435 72.2142 33.4441 72.394 33.9859 72.6948C34.5201 73.0771 34.9619 73.5742 35.279 74.1496C35.596 74.7249 35.7803 75.364 35.8182 76.0198C35.9308 77.7794 35.9308 79.5443 35.8182 81.3039C34.1821 80.8834 32.483 80.7648 30.8044 80.9539C20.5249 82.0914 16.3792 92.5512 14.7149 101.114C14.6895 101.201 13.3149 107.764 12.9159 109.792C12.2611 109.988 11.5595 109.96 10.9227 109.712C9.66966 109.205 9.53666 107.589 10.1369 106.423H10.1404ZM44.6154 34.3908C44.7335 34.7907 45.2279 34.9105 45.5604 34.9893C47.7584 35.5143 49.049 35.2518 49.4262 35.8818C49.46 35.9347 49.482 35.9943 49.4908 36.0565C49.4996 36.1187 49.4948 36.1821 49.4769 36.2423C49.4045 36.3745 49.2964 36.4836 49.1648 36.5571C49.0333 36.6306 48.8837 36.6656 48.7332 36.6579C47.5642 36.622 45.7048 36.3954 45.6269 36.3832C45.4541 36.3622 45.2789 36.3875 45.1191 36.4566C44.9593 36.5257 44.8208 36.636 44.7177 36.7762C44.6146 36.9165 44.5506 37.0816 44.5323 37.2547C44.514 37.4278 44.5421 37.6026 44.6137 37.7613C44.7058 37.9163 44.8345 38.0463 44.9886 38.14C45.1427 38.2336 45.3174 38.2881 45.4974 38.2985C46.6067 38.4325 47.6712 38.8163 48.6107 39.4212C48.74 39.5008 48.8523 39.6052 48.9412 39.7283C49.03 39.8514 49.0938 39.9909 49.1287 40.1387C49.1098 40.2735 49.0441 40.3974 48.9432 40.4887C48.1749 41.1624 46.8817 40.4178 45.962 40.1614C44.4982 39.7537 42.4183 39.5717 41.3823 40.6812C41.2237 40.8487 41.1018 41.0474 41.0242 41.2646C40.9467 41.4819 40.9151 41.7128 40.9317 41.9429C41.0137 42.5961 41.1756 43.2367 41.4138 43.8504C41.5398 44.2529 41.7139 44.8033 41.4593 45.1218C41.3906 45.2133 41.301 45.2871 41.198 45.337C41.095 45.3869 40.9815 45.4114 40.8671 45.4085C40.7527 45.4055 40.6406 45.3753 40.5403 45.3203C40.4399 45.2652 40.3542 45.187 40.2903 45.092C39.2193 43.7909 39.3689 43.167 38.4117 42.7575C38.1621 42.6924 37.9007 42.6872 37.6489 42.7426C37.397 42.798 37.1618 42.9122 36.9627 43.076C36.1652 43.7244 35.5105 44.5307 35.0398 45.4443C34.5691 46.3579 34.2925 47.359 34.2274 48.3847H24.591C25.0075 45.1034 26.2129 41.972 28.1042 39.2584C32.0592 33.5797 38.8912 30.8584 46.382 31.9854C46.8125 32.0475 47.236 32.1543 47.6447 32.3022C47.9789 32.4037 48.5923 32.765 48.4532 33.0897C48.405 33.1982 48.2677 33.2647 48.0647 33.2874C46.9272 33.3924 46.3908 33.1037 45.2445 33.3749C45.0267 33.4268 44.8381 33.5624 44.7197 33.7524C44.6012 33.9425 44.5625 34.1715 44.6119 34.3899H44.6154V34.3908ZM24.4992 49.1949H34.1504C33.7759 53.5865 39.4415 55.3199 42.6379 52.3265C45.5613 49.586 49.7412 48.3015 55.4042 48.4135C62.2869 48.543 66.6917 50.3018 69.2677 53.9488C70.1402 55.2074 70.7472 56.6304 71.0518 58.1313C71.498 60.5437 71.7483 62.9875 71.8017 65.4393C72.0292 71.9187 72.1228 76.298 71.9907 88.3643C65.1569 92.5205 61.348 94.8183 61.2597 94.904C61.0654 95.0572 61.1319 94.764 61.1319 106.901L50.6617 106.857C50.5619 106.594 50.3572 106.123 50.2714 105.898C50.4727 105.403 49.3089 99.804 49.1768 99.2134C52.3714 96.2944 54.8812 92.7052 56.5268 88.7029C59.2811 82.105 60.326 74.9188 59.5648 67.8097C59.4755 67.1473 59.3178 66.496 59.094 65.8663C58.919 65.2064 58.5944 64.5957 58.1455 64.0813C57.952 63.8403 57.706 63.6467 57.4263 63.5154C57.1465 63.3841 56.8404 63.3184 56.5314 63.3235C56.2224 63.3285 55.9187 63.4042 55.6434 63.5446C55.3681 63.6851 55.1285 63.8866 54.943 64.1338C54.3103 63.4859 53.4639 63.0897 52.5611 63.0187C51.6583 62.9477 50.7605 63.2069 50.0343 63.7479C49.9127 62.3173 49.6379 59.8454 49.3955 58.5504C49.3859 58.1477 49.2274 57.7629 48.9505 57.4704C48.6736 57.1779 48.298 56.9984 47.8965 56.9667C47.4949 56.935 47.0959 57.0534 46.7766 57.2989C46.4572 57.5444 46.2403 57.8996 46.1677 58.2958C46.1117 59.1999 46.1286 60.107 46.2184 61.0083C46.7163 74.478 46.3479 71.7253 46.3514 75.7599C46.3514 79.8724 45.696 83.0653 42.4874 85.2974C41.3997 84.1571 40.1376 83.197 38.7485 82.4528C38.7748 80.7229 39.0399 65.6029 39.0408 65.4865C39.0411 65.3979 39.0122 65.3117 38.9585 65.2412C38.9049 65.1707 38.8296 65.1197 38.7442 65.0963H38.7284C35.5224 64.7031 32.4657 63.514 29.8367 61.6374C25.8799 58.7972 23.989 54.3828 24.4992 49.1949ZM41.9388 113.526C42.1374 113.038 41.363 112.807 41.1679 113.287C40.0322 116.079 38.9869 118.906 38.0337 121.766C37.8517 121.78 31.1282 121.766 27.1137 121.766C27.1084 120.628 27.0848 116.92 27.0778 115.929C27.9095 113.725 28.9613 111.609 30.2173 109.615C31.6331 107.085 33.4093 104.773 35.49 102.754C40.7164 97.8117 46.8764 99.4873 49.0858 105.045C51.1858 110.325 52.1413 114.342 50.8297 119.25C50.6477 119.93 50.2653 121.343 50.1594 121.766H38.8877C39.8172 118.987 40.8353 116.239 41.9405 113.526H41.9388ZM58.5279 69.2263C58.4434 69.4049 58.3111 69.5566 58.1457 69.6647C57.9804 69.7728 57.7883 69.8331 57.5908 69.8388C56.4323 69.7688 56.1672 68.5805 55.9195 67.9777C55.9598 66.9239 55.8116 65.8714 55.482 64.8697C55.5431 64.6507 55.6757 64.4586 55.8587 64.3238C56.0417 64.189 56.2646 64.1193 56.4918 64.1259C56.7652 64.1496 57.029 64.2384 57.2612 64.3848C57.4933 64.5312 57.687 64.7311 57.8262 64.9677C58.0808 65.3999 58.2742 65.8663 58.401 66.3519C58.5684 66.8349 58.6882 67.3331 58.7589 67.8394C58.8145 68.3142 58.7344 68.7951 58.5279 69.2263ZM47.1853 75.0835C47.367 70.6943 47.322 66.2985 47.0505 61.9139C46.9849 60.3932 46.9333 59.1918 46.942 58.6152C46.9543 57.7638 48.2939 57.3989 48.517 58.3168C48.7122 59.1743 48.8487 60.044 48.9239 60.9199C48.9965 61.6357 49.2582 63.8162 49.2914 64.5949C49.2942 64.6741 49.3201 64.7508 49.3659 64.8156C49.4116 64.8803 49.4752 64.9303 49.5489 64.9595C49.6227 64.9886 49.7033 64.9956 49.7809 64.9797C49.8586 64.9638 49.9299 64.9255 49.9862 64.8697C50.2806 64.5228 50.6504 64.2479 51.0674 64.066C51.4844 63.884 51.9375 63.7998 52.392 63.8198C52.8465 63.8399 53.2904 63.9635 53.6898 64.1814C54.0892 64.3993 54.4335 64.7057 54.6963 65.077C54.88 65.6082 55.0034 66.1577 55.0647 66.7159C55.1907 67.4474 55.1434 68.1982 54.929 68.9087C54.8493 69.176 54.6695 69.4022 54.4271 69.5402C54.1848 69.6783 53.8985 69.7175 53.6279 69.6498C51.9654 69.1134 52.7162 67.1805 52.0109 65.686C51.786 65.21 51.0852 65.6073 51.3039 66.078C51.3415 66.1577 51.3739 66.239 51.4028 66.323C50.9947 66.0464 50.4961 65.9368 50.0097 66.0169C49.5232 66.097 49.0861 66.3606 48.7883 66.7535C47.9492 67.9435 47.9028 69.3409 47.7558 70.8888C47.7059 71.4138 48.5127 71.426 48.5625 70.9098C48.5625 69.739 48.7988 68.5814 49.2582 67.5052C49.3489 67.3085 49.4911 67.1399 49.6696 67.0172C49.8482 66.8945 50.0565 66.8223 50.2727 66.8082C50.4889 66.794 50.7049 66.8384 50.8979 66.9368C51.091 67.0351 51.2539 67.1837 51.3695 67.3669C52.0494 68.6383 51.1849 70.3647 51.9934 72.0044C52.2288 72.4822 52.9253 72.0692 52.7013 71.6177C52.4728 71.0536 52.3744 70.4453 52.4134 69.8379C52.6236 70.08 52.8911 70.2655 53.1914 70.3776C53.4917 70.4897 53.8153 70.5249 54.1327 70.4798C54.4501 70.4347 54.7512 70.3109 55.0084 70.1196C55.2656 69.9283 55.4709 69.6757 55.6054 69.3847C55.8192 69.7489 56.1198 70.0546 56.4804 70.2744C56.841 70.4943 57.2504 70.6215 57.6722 70.6447C58.1601 70.6141 58.6169 70.3944 58.9453 70.0322C59.5578 81.1447 55.6632 92.1942 48.9615 98.3253C47.6805 93.0753 45.7923 89.115 43.029 85.8898C47.0365 83.0714 47.1153 78.8285 47.1853 75.0835ZM34.5853 102.447C31.6803 105.257 28.7657 110.049 27.0603 113.73C27.0542 112.997 26.9728 104.306 26.9833 103.637C27.0231 102.629 26.868 101.623 26.5265 100.675C25.9283 99.1744 24.7715 97.9646 23.2996 97.2998C21.8276 96.635 20.1552 96.5669 18.634 97.1099C17.6271 97.4686 16.7293 98.0799 16.0265 98.8853C17.493 92.7472 21.3159 82.8544 30.7817 81.7659C33.0603 81.4818 35.3734 81.8142 37.4798 82.7284C44.8989 85.9747 47.9229 95.6382 49.1497 103.401C45.6164 97.6918 39.5037 97.6874 34.5853 102.447ZM51.0353 107.753L51.0274 107.733H61.1328V121.765H51.0117C52.8605 116.827 52.864 112.884 51.0327 107.753H51.0353ZM62.3307 95.1867C75.5572 87.1419 85.4735 81.1228 85.5567 81.0677C86.8114 81.8438 106.469 94.0045 108.394 95.1998C106.278 96.4703 86.6198 108.274 85.3563 109.055C85.3554 109.055 64.0912 96.2323 62.328 95.1867H62.3307ZM61.9439 95.9103L85.1585 109.878C85.2205 109.915 85.2912 109.934 85.3633 109.934C85.4353 109.934 85.5061 109.915 85.568 109.878C85.7273 109.783 106.53 97.2893 108.784 95.9164V124.717C107.34 125.708 86.5489 139.984 85.1909 140.942C85.1909 140.942 62.8399 125.325 61.9439 124.714V95.9103Z" fill="black"/>
<path d="M133.888 117.613C130.6 116.058 127.008 115.249 123.371 115.246C119.734 115.243 116.141 116.045 112.85 117.595C112.767 117.631 112.698 117.695 112.655 117.776C112.612 117.856 112.598 117.949 112.614 118.039C112.63 118.129 112.676 118.211 112.745 118.272C112.814 118.332 112.902 118.367 112.994 118.371H133.693C133.781 118.369 133.867 118.338 133.937 118.283C134.006 118.228 134.056 118.152 134.078 118.066C134.1 117.98 134.094 117.889 134.059 117.807C134.025 117.725 133.965 117.657 133.888 117.613ZM131.678 117.562H114.916C120.323 115.557 126.27 115.557 131.678 117.562Z" fill="black"/>
<path d="M166.666 103.329C162.782 107.221 161.918 109.034 159.491 111.451C157.444 113.521 154.967 115.115 152.234 116.12C152.143 116.139 152.06 116.189 152 116.261C151.94 116.332 151.906 116.422 151.904 116.516C151.901 116.609 151.929 116.701 151.985 116.777C152.04 116.852 152.119 116.906 152.21 116.931C155.206 118.102 159.631 117.055 162.858 112.294C164.623 109.622 166.114 106.778 167.308 103.807C167.354 103.721 167.367 103.622 167.346 103.527C167.325 103.433 167.271 103.349 167.193 103.291C167.115 103.233 167.019 103.205 166.923 103.212C166.826 103.219 166.735 103.26 166.666 103.329ZM165.656 105.578C164.778 107.505 163.773 109.371 162.647 111.164C160.961 113.863 159.055 115.477 156.648 116.244C155.651 116.561 154.593 116.636 153.562 116.463C159.61 113.826 161.787 109.841 165.656 105.578Z" fill="black"/>
<path d="M99.4164 35.8864C103.232 38.9489 102.993 38.8071 103.198 38.8071C103.28 38.8137 103.362 38.7944 103.432 38.7521C103.502 38.7097 103.557 38.6464 103.59 38.5711C103.622 38.4957 103.63 38.4121 103.612 38.332C103.595 38.2519 103.552 38.1794 103.491 38.1246L99.9694 35.2984C99.5652 34.9737 99.0052 35.5565 99.4164 35.8864Z" fill="black"/>
<path d="M117.114 32.7506C117.194 33.2686 117.978 33.077 117.902 32.5599L117.174 27.8672C117.095 27.3536 116.31 27.5382 116.386 28.0571L117.114 32.7506Z" fill="black"/>
<path d="M131.467 34.6212L133.902 29.6609C134.131 29.1945 133.429 28.7937 133.196 29.2671L130.761 34.2275C130.532 34.6947 131.234 35.0946 131.467 34.6212Z" fill="black"/>
<path d="M147.301 52.2796C145.736 52.6847 144.199 53.2421 142.679 53.7776C142.59 53.8074 142.514 53.8668 142.463 53.9459C142.413 54.0249 142.391 54.1189 142.401 54.2122C142.411 54.3056 142.453 54.3926 142.519 54.4588C142.586 54.5251 142.673 54.5666 142.766 54.5764C142.947 54.5764 144.231 54.0296 147.512 53.0592C147.611 53.0276 147.695 52.9586 147.745 52.8666C147.795 52.7747 147.807 52.6669 147.779 52.5661C147.751 52.4652 147.685 52.3791 147.595 52.3258C147.505 52.2726 147.398 52.2563 147.296 52.2804H147.301V52.2796Z" fill="black"/>
<path d="M90.239 49.4812C95.1915 51.5602 94.7995 51.4062 94.9063 51.4062C94.9949 51.4058 95.0809 51.3766 95.1513 51.3229C95.2218 51.2692 95.2727 51.194 95.2966 51.1087C95.3224 51.0079 95.3089 50.9011 95.2588 50.81C95.2088 50.7188 95.1259 50.6501 95.027 50.6178L90.4665 48.7042C90.3651 48.678 90.2574 48.6924 90.1664 48.7444C90.0754 48.7963 90.0082 48.8817 89.9792 48.9824C89.9498 49.0828 89.9604 49.1907 90.0089 49.2833C90.0574 49.376 90.1399 49.4463 90.239 49.4794V49.4821V49.4812Z" fill="black"/>
<path d="M169.887 71.3637H164.915C164.811 71.3685 164.713 71.4132 164.641 71.4884C164.569 71.5636 164.529 71.6635 164.529 71.7675C164.529 71.8714 164.569 71.9714 164.641 72.0466C164.713 72.1218 164.811 72.1664 164.915 72.1713H169.883C169.965 72.1753 170.047 72.154 170.117 72.1102C170.186 72.0663 170.241 72.0022 170.273 71.9263C170.307 71.8508 170.316 71.7668 170.299 71.6859C170.283 71.605 170.242 71.5312 170.181 71.4748C170.142 71.4373 170.095 71.4081 170.043 71.389C169.992 71.37 169.938 71.3613 169.883 71.3637H169.887Z" fill="black"/>
<path d="M159.949 59.9756H163.571C163.674 59.9708 163.772 59.9261 163.844 59.8509C163.916 59.7757 163.956 59.6757 163.956 59.5718C163.956 59.4678 163.916 59.3679 163.844 59.2927C163.772 59.2175 163.674 59.1728 163.571 59.168H159.949C159.845 59.1728 159.747 59.2175 159.675 59.2927C159.604 59.3679 159.563 59.4678 159.563 59.5718C159.563 59.6757 159.604 59.7757 159.675 59.8509C159.747 59.9261 159.845 59.9708 159.949 59.9756Z" fill="black"/>
<path d="M170.341 53.9062H163.157C163.053 53.9111 162.955 53.9557 162.883 54.0309C162.812 54.1061 162.771 54.2061 162.771 54.3101C162.771 54.414 162.812 54.514 162.883 54.5892C162.955 54.6644 163.053 54.709 163.157 54.7139H170.339C170.443 54.709 170.541 54.6644 170.613 54.5892C170.684 54.514 170.724 54.414 170.724 54.3101C170.724 54.2061 170.684 54.1061 170.613 54.0309C170.541 53.9557 170.443 53.9111 170.339 53.9062H170.341Z" fill="black"/>
<path d="M100.099 97.3847C100.653 97.4205 101.208 97.3144 101.71 97.0765C102.212 96.8386 102.645 96.4767 102.969 96.0249C103.828 94.6066 102.665 92.7384 100.148 92.7131C98.9587 92.7131 71.034 92.6929 70.6201 92.7262C70.0554 92.7312 69.5036 92.8952 69.0279 93.1995C68.5521 93.5038 68.1718 93.9359 67.9304 94.4464C67.415 95.8744 68.8622 97.5816 71.5389 97.3847C71.8232 97.3847 99.6439 97.3777 100.099 97.3847ZM100.525 96.5578C100.175 96.5893 72.6659 96.5578 70.9964 96.5771C69.991 96.5946 68.7546 96.1159 68.6339 95.1053C68.6339 93.9407 69.9805 93.5207 71.4207 93.5207H100.145C101.015 93.5303 102.347 93.9179 102.447 94.9487C102.549 95.8753 101.445 96.4756 100.528 96.5552L100.525 96.5578Z" fill="black"/>
<path d="M45.622 102.582L43.893 101.975C43.3986 101.8 43.1702 102.576 43.6637 102.749C44.2675 103.011 44.8913 103.222 45.5292 103.381C45.6218 103.37 45.708 103.329 45.7739 103.263C45.8398 103.197 45.8815 103.111 45.8923 103.018C45.903 102.926 45.8822 102.832 45.8331 102.753C45.784 102.674 45.7096 102.614 45.622 102.582Z" fill="black"/>
<path d="M135.711 71.909C135.711 71.909 139.901 74.31 140.086 74.4115C140.159 74.4522 140.242 74.4693 140.325 74.4605C140.408 74.4516 140.486 74.4173 140.549 74.3621C140.611 74.307 140.655 74.2338 140.674 74.1527C140.693 74.0716 140.687 73.9865 140.655 73.9093C140.624 73.8271 140.566 73.7576 140.491 73.7115C139.035 72.8738 137.577 72.0402 136.116 71.2108C136.07 71.1842 136.019 71.1668 135.967 71.1598C135.914 71.1528 135.861 71.1562 135.81 71.1698C135.759 71.1834 135.71 71.207 135.668 71.2391C135.626 71.2713 135.591 71.3115 135.564 71.3573C135.538 71.4032 135.52 71.4538 135.513 71.5063C135.506 71.5589 135.51 71.6123 135.523 71.6635C135.537 71.7147 135.56 71.7628 135.593 71.8049C135.625 71.847 135.665 71.8824 135.711 71.909Z" fill="black"/>
<path d="M109.171 127.649C109.068 127.653 108.971 127.695 108.899 127.767C108.827 127.84 108.785 127.937 108.781 128.039V135.047C108.786 135.124 108.812 135.198 108.857 135.261C108.902 135.324 108.964 135.373 109.036 135.401C109.108 135.43 109.186 135.437 109.262 135.423C109.338 135.409 109.408 135.373 109.465 135.32C109.539 135.248 109.584 135.15 109.589 135.047V128.043C109.588 127.989 109.577 127.936 109.555 127.887C109.534 127.838 109.502 127.794 109.463 127.757C109.424 127.72 109.378 127.692 109.328 127.673C109.278 127.655 109.224 127.646 109.171 127.649Z" fill="black"/>
<path d="M76.1246 93.8481C76.0215 93.8512 75.9235 93.8938 75.8509 93.9671C75.7783 94.0403 75.7366 94.1387 75.7344 94.2418V95.6418C75.7348 95.7489 75.7776 95.8515 75.8533 95.9272C75.929 96.0029 76.0316 96.0456 76.1386 96.0461C76.2456 96.0454 76.348 96.0026 76.4237 95.9269C76.4994 95.8513 76.5422 95.7488 76.5429 95.6418V94.2418C76.5421 94.1883 76.5306 94.1354 76.509 94.0863C76.4874 94.0373 76.4562 93.9931 76.4171 93.9564C76.3781 93.9196 76.3321 93.8911 76.2819 93.8725C76.2316 93.8539 76.1782 93.8456 76.1246 93.8481Z" fill="black"/>
<path d="M94.0416 93.848C93.9385 93.8512 93.8405 93.8938 93.7679 93.967C93.6953 94.0403 93.6536 94.1387 93.6514 94.2418V95.7477C93.6581 95.8503 93.7037 95.9465 93.7787 96.0168C93.8538 96.0871 93.9528 96.1262 94.0556 96.1262C94.1585 96.1262 94.2574 96.0871 94.3325 96.0168C94.4076 95.9465 94.4531 95.8503 94.4599 95.7477V94.2357C94.4582 94.1826 94.446 94.1305 94.424 94.0822C94.402 94.034 94.3706 93.9905 94.3317 93.9545C94.2928 93.9184 94.2471 93.8904 94.1973 93.8722C94.1475 93.8539 94.0946 93.8457 94.0416 93.848Z" fill="black"/>
<path d="M12.1771 127.417C12.3145 127.417 12.227 127.443 13.9525 126.494C14.04 126.438 14.1025 126.351 14.127 126.25C14.1515 126.149 14.136 126.042 14.0837 125.952C14.032 125.863 13.9478 125.796 13.8485 125.767C13.7491 125.737 13.6423 125.747 13.55 125.794L11.9689 126.669C11.8954 126.716 11.8389 126.785 11.8079 126.866C11.7768 126.947 11.7728 127.036 11.7965 127.12C11.8197 127.203 11.8692 127.278 11.9377 127.331C12.0063 127.385 12.0902 127.415 12.1771 127.417Z" fill="black"/>
<path d="M61.8849 128.041V135.041C61.8841 135.121 61.9074 135.2 61.9517 135.267C61.9961 135.334 62.0594 135.386 62.1337 135.417C62.208 135.447 62.2897 135.455 62.3684 135.439C62.4471 135.423 62.5191 135.384 62.5753 135.326C62.6128 135.289 62.6425 135.244 62.6628 135.195C62.6831 135.146 62.6935 135.094 62.6934 135.041V128.033C62.6965 127.978 62.6882 127.922 62.669 127.87C62.6498 127.818 62.6201 127.771 62.5818 127.731C62.5435 127.691 62.4974 127.659 62.4464 127.637C62.3953 127.616 62.3404 127.605 62.285 127.605C62.2296 127.606 62.1748 127.618 62.1242 127.64C62.0736 127.663 62.0281 127.696 61.9906 127.736C61.9531 127.777 61.9244 127.825 61.9062 127.878C61.888 127.93 61.8808 127.986 61.8849 128.041Z" fill="black"/>
<path d="M85.1821 143.004C85.0801 143.008 84.9833 143.051 84.911 143.123C84.8387 143.195 84.7962 143.292 84.7919 143.394V147.043C84.7882 147.098 84.796 147.153 84.8147 147.206C84.8333 147.258 84.8625 147.306 84.9004 147.346C84.9383 147.386 84.9841 147.419 85.035 147.441C85.0858 147.463 85.1407 147.474 85.1961 147.474C85.2516 147.474 85.3064 147.463 85.3573 147.441C85.4082 147.419 85.454 147.386 85.4919 147.346C85.5298 147.306 85.5589 147.258 85.5776 147.206C85.5963 147.153 85.604 147.098 85.6004 147.043V143.394C85.599 143.313 85.5732 143.235 85.5263 143.17C85.4794 143.105 85.4136 143.055 85.3379 143.028C85.2881 143.01 85.2351 143.002 85.1821 143.004Z" fill="black"/>
<path d="M18.2335 127.721C18.5966 127.809 18.5774 127.48 19.6335 126.675C20.0456 126.361 19.6248 125.674 19.2039 125.992C18.7821 126.31 18.3858 126.661 18.02 127.042C17.9713 127.095 17.9375 127.16 17.9219 127.231C17.9063 127.301 17.9094 127.374 17.931 127.443C17.9527 127.512 17.992 127.574 18.0451 127.623C18.0982 127.671 18.1632 127.705 18.2335 127.721Z" fill="black"/>
<path d="M15.4072 112.219C15.6986 111.373 15.9121 110.501 16.0451 109.617C16.1221 109.103 15.3398 108.907 15.2576 109.428C15.1255 110.299 14.9152 111.157 14.6293 111.991C14.4605 112.491 15.2375 112.711 15.4072 112.219Z" fill="black"/>
<path d="M85.3994 132.273C85.5045 132.273 85.6053 132.231 85.6806 132.158C85.7559 132.084 85.8 131.985 85.8036 131.88V116.972C85.7982 116.866 85.7515 116.765 85.6735 116.693C85.5954 116.62 85.4921 116.58 85.3854 116.582C85.2832 116.586 85.1863 116.629 85.114 116.701C85.0416 116.773 84.9992 116.87 84.9951 116.972V131.884C84.999 131.989 85.0433 132.088 85.1187 132.16C85.194 132.233 85.2947 132.274 85.3994 132.273Z" fill="black"/>
<path d="M41.3175 38.7889C41.0988 38.6303 40.9138 38.4299 40.7732 38.1993C40.6326 37.9687 40.5392 37.7124 40.4985 37.4454C40.4578 37.1783 40.4706 36.9059 40.5361 36.6438C40.6015 36.3818 40.7185 36.1353 40.88 35.9189C41.1932 35.4945 40.4976 35.0745 40.194 35.4936C39.9761 35.8003 39.8213 36.1472 39.7386 36.5141C39.6558 36.8811 39.6467 37.2608 39.7118 37.6314C39.777 38.0019 39.915 38.3558 40.1179 38.6725C40.3208 38.9893 40.5846 39.2626 40.894 39.4766C41.3254 39.7759 41.7445 39.0916 41.3175 38.7889Z" fill="black"/>
<path d="M25.7169 44.8984L25.3398 47.1813C25.2523 47.694 26.0398 47.8935 26.1273 47.3738L26.5044 45.09C26.5858 44.5799 25.8035 44.3778 25.7169 44.8975V44.8984Z" fill="black"/>
<path d="M142.268 82.2066C143.255 82.497 144.307 82.4827 145.285 82.1655C145.383 82.1316 145.464 82.0616 145.512 81.9696C145.56 81.8777 145.571 81.7709 145.543 81.6711C145.514 81.5716 145.448 81.4869 145.359 81.4345C145.269 81.3821 145.163 81.366 145.062 81.3894C144.223 81.6462 143.329 81.6596 142.483 81.4279C142.383 81.4081 142.279 81.427 142.192 81.4807C142.105 81.5344 142.042 81.619 142.015 81.7174C141.987 81.8159 141.998 81.921 142.045 82.0117C142.092 82.1024 142.172 82.1721 142.268 82.2066Z" fill="black"/>
<path d="M130.743 65.3386C132.24 65.5818 132.231 65.5836 132.289 65.5836C132.751 65.5836 132.902 64.8731 132.409 64.7961L130.935 64.5572C130.422 64.4723 130.224 65.2546 130.743 65.3386Z" fill="black"/>
<path d="M132.562 68.4131C132.016 68.3896 131.475 68.2991 130.95 68.1436C130.85 68.1249 130.747 68.1445 130.661 68.1984C130.575 68.2523 130.512 68.3367 130.485 68.4347C130.458 68.5328 130.469 68.6373 130.516 68.7277C130.562 68.818 130.641 68.8875 130.737 68.9224C131.326 69.1015 131.937 69.2021 132.552 69.2216C133.087 69.2391 133.074 68.4359 132.562 68.414V68.4131Z" fill="black"/>
<path d="M124.268 91.5897C123.639 92.2535 123.089 92.9875 122.629 93.7772C122.595 93.8388 122.578 93.9082 122.579 93.9784C122.58 94.0486 122.6 94.1174 122.636 94.1778C122.672 94.2382 122.723 94.2882 122.784 94.3229C122.845 94.3576 122.914 94.3758 122.984 94.3757C123.46 94.3757 123.344 93.7781 124.845 92.1584C125.2 91.7717 124.625 91.2038 124.268 91.5897Z" fill="black"/>
</svg>
