<svg width="175" height="175" viewBox="0 0 100 100" fill="none" xmlns="http://www.w3.org/2000/svg">
<path d="M23.772 74.6946C23.0634 74.3297 22.325 74.0256 21.565 73.7856C19.8101 73.843 18.0573 73.6187 16.3735 73.1211C14.5674 73.2097 12.7948 73.6415 11.1505 74.3936C10.989 74.4676 11.08 74.7066 11.2365 74.7106L23.6865 75.0106C23.7235 75.0103 23.7595 74.9978 23.7888 74.9751C23.8182 74.9524 23.8393 74.9208 23.849 74.885C23.8587 74.8492 23.8564 74.8112 23.8425 74.7769C23.8286 74.7425 23.8038 74.7136 23.772 74.6946Z" fill="#DEFFEF"/>
<path d="M82.8882 36.8599C82.5252 36.1904 81.6757 36.2864 81.2582 35.6329C81.1167 35.4109 81.0262 35.1619 80.9007 34.9329C80.3792 33.9734 79.2472 33.7894 78.2507 33.8284C77.6152 33.9061 76.9723 33.9009 76.3382 33.8129C76.2237 33.7941 76.1146 33.7513 76.0178 33.6874C75.9211 33.6234 75.8389 33.5398 75.7767 33.4419C75.4627 32.8374 75.6632 32.1654 75.2812 31.5359C75.0283 31.1353 74.6492 30.8302 74.2037 30.6689C73.0667 30.2329 71.8707 30.5839 70.7002 30.4859C69.1377 30.3549 69.6622 28.4164 68.3322 27.5559C66.9447 26.7739 65.3822 27.6189 63.9542 28.1309C62.1577 28.7759 61.5772 27.8554 60.5207 27.9844C60.0022 28.0778 59.5336 28.3516 59.1977 28.7574C58.8205 29.1155 58.5562 29.5762 58.4375 30.0826C58.3188 30.589 58.3509 31.119 58.5297 31.6074C59.1027 32.6824 59.6137 32.7184 60.0027 33.6729C60.2872 34.5914 59.1992 35.3769 59.5242 36.2889C59.8667 37.2489 61.0742 37.1609 61.8662 37.4759C62.1407 37.1104 62.447 36.7699 62.7817 36.4584L62.7887 36.4459C63.7668 35.565 64.9547 34.95 66.2387 34.6599C68.8387 34.0449 72.2677 34.4704 74.8787 35.2974C75.4362 35.3834 75.9897 35.4974 76.5357 35.6389C78.7329 36.1256 80.8962 36.7541 83.0122 37.5204C83.0406 37.2927 82.9972 37.0618 82.8882 36.8599ZM64.7542 32.6754C64.6672 32.9838 64.5058 33.2661 64.2843 33.4977C64.0628 33.7292 63.7879 33.9029 63.4837 34.0034C63.0744 34.1464 62.6252 34.1222 62.2337 33.936C61.8422 33.7498 61.54 33.4167 61.3927 33.0089C61.2671 32.6219 61.2733 32.2041 61.4102 31.8209C61.5472 31.4378 61.8072 31.1107 62.1497 30.8909C62.431 30.6955 62.7651 30.5902 63.1076 30.589C63.4502 30.5879 63.785 30.691 64.0676 30.8846C64.3502 31.0782 64.5672 31.3532 64.6898 31.6731C64.8125 31.9929 64.8349 32.3425 64.7542 32.6754Z" fill="black"/>
<path d="M18.6083 50.8389C18.6783 50.2389 18.0083 49.5754 17.5188 49.2559C17.3081 49.1615 17.081 49.1091 16.8503 49.1014C16.026 48.9766 15.1876 48.9766 14.3633 49.1014C15.8048 49.8364 16.4213 51.5209 17.9548 51.4309C18.116 51.4251 18.2701 51.3626 18.3897 51.2542C18.5092 51.1459 18.5867 50.9988 18.6083 50.8389Z" fill="white"/>
<path d="M20.2166 50.0869C19.282 49.4446 18.2235 49.0047 17.1089 48.7957C15.9943 48.5866 14.8484 48.6129 13.7446 48.8729C13.7347 48.8758 13.7251 48.8799 13.7161 48.8849C13.225 48.9988 12.747 49.1628 12.2896 49.3744C10.7083 50.14 9.32567 51.2613 8.25005 52.6504C7.93597 53.0484 7.63871 53.4594 7.35906 53.8824C7.14777 54.1932 6.97074 54.526 6.83105 54.8749C7.40151 53.8348 8.36146 53.0637 9.50005 52.7309C10.0639 52.5661 10.6548 52.5141 11.2388 52.5778C11.8228 52.6416 12.3885 52.8198 12.9036 53.1024C13.6791 53.5279 14.3112 54.1737 14.72 54.9583C15.1287 55.7428 15.2958 56.6309 15.2001 57.5104C15.1363 58.0942 14.9583 58.6598 14.6761 59.1749C14.3846 59.6979 13.5796 61.2139 13.2736 61.9779C14.1736 62.2014 15.7971 60.2384 17.0931 59.1079C19.0465 57.3947 21.2665 56.0121 23.6656 55.0144C22.8156 53.2424 21.9176 51.3504 20.2166 50.0869ZM14.3636 49.1004C15.1879 48.9756 16.0262 48.9756 16.8506 49.1004C17.0811 49.1079 17.3081 49.1604 17.5186 49.2544C18.0026 49.5709 18.6786 50.2314 18.6081 50.8374C18.5859 50.997 18.5084 51.1437 18.389 51.2519C18.2696 51.3601 18.116 51.4229 17.9551 51.4294C16.4286 51.5194 15.7936 49.8294 14.3636 49.1004Z" fill="#2BFF01"/>
<path d="M28.3345 62.125C25.3535 65.466 23.3 67.9065 18.6615 69.875C16.8716 70.6347 14.9883 71.1523 13.0615 71.414C14.4085 72.4565 15.9878 73.1575 17.6645 73.457C19.812 73.846 22.0065 73.8995 24.1705 73.616C26.0944 73.421 27.9507 72.7995 29.604 71.7965C29.5565 71.4295 28.3865 62.5195 28.3345 62.125Z" fill="white"/>
<path d="M73.3826 61.7792C71.5256 61.5497 70.3011 62.3417 68.7931 62.0717C68.3271 61.9887 67.7046 61.7777 67.5471 61.2717C67.495 61.0037 67.5477 60.726 67.6944 60.4958C67.8412 60.2656 68.0707 60.1005 68.3356 60.0347C68.7881 59.8922 69.2503 59.7826 69.7186 59.7067C69.1986 59.7142 68.7186 59.7127 68.1806 59.6692C67.8209 59.663 67.4696 59.5593 67.1641 59.3692C67.016 59.2748 66.8962 59.142 66.8177 58.9849C66.7391 58.8278 66.7047 58.6523 66.7181 58.4772C66.7425 58.3268 66.8039 58.1849 66.8967 58.064C66.9894 57.9432 67.1107 57.8472 67.2496 57.7847C68.1261 57.4532 69.0215 57.1742 69.9311 56.9492L68.3886 57.0717C67.7591 57.1217 66.8126 57.2282 66.5316 56.4812C66.2846 55.8252 66.9466 55.4132 67.4551 55.2017C68.2773 54.8643 69.1372 54.627 70.0161 54.4952C68.7001 53.1822 67.3801 51.8727 66.0756 50.5487C64.5756 52.5277 62.7171 54.4832 60.3386 55.1987C55.7436 56.5752 50.5126 54.2987 47.7576 50.8827C47.1152 50.0555 46.6284 49.1184 46.3211 48.1172H40.0211C39.886 49.2081 39.6428 50.2829 39.2951 51.3257C39.2862 51.3545 39.2698 51.3805 39.2476 51.401C39.2254 51.4214 39.1981 51.4356 39.1686 51.442C39.1391 51.4485 39.1084 51.447 39.0797 51.4377C39.051 51.4284 39.0252 51.4117 39.0051 51.3892C38.9781 51.3593 38.9625 51.3209 38.9611 51.2807C38.8911 49.9307 38.9726 49.1977 38.9406 48.1172H26.6866C26.6416 48.1174 26.5985 48.1354 26.5667 48.1673C26.5349 48.1991 26.5169 48.2422 26.5166 48.2872L27.2526 53.8922C28.9351 53.5197 30.6631 53.3952 32.3816 53.5227C33.4421 53.6042 34.6471 53.7082 35.5501 54.3252C36.6501 55.0752 36.1946 55.9367 35.1131 56.1187C34.2313 56.2372 33.3428 56.2987 32.4531 56.3027C32.8226 56.4117 33.1896 56.5287 33.5531 56.6562C34.0256 56.8212 34.6681 56.9682 34.9736 57.4062C35.1116 57.6331 35.1581 57.904 35.1038 58.164C35.0495 58.4239 34.8984 58.6535 34.6811 58.8062C33.9241 59.3487 33.1166 59.0357 32.3066 58.7697C32.7416 59.0242 33.1541 59.3152 33.5396 59.6402C33.7331 59.7822 33.8911 59.9667 34.0021 60.1792C34.0855 60.4165 34.0833 60.6756 33.9958 60.9114C33.9083 61.1473 33.7411 61.3451 33.5231 61.4707C33.2582 61.5981 32.9683 61.6651 32.6743 61.667C32.3804 61.6689 32.0897 61.6056 31.8231 61.4817C31.2661 61.1858 30.6617 60.9895 30.0371 60.9017C29.3136 60.8942 28.8871 61.5092 28.3321 62.1287L30.2616 76.8207C30.2624 76.8655 30.2805 76.9083 30.3122 76.94C30.344 76.9718 30.3868 76.9899 30.4316 76.9907H32.2746C31.3397 74.4423 30.8811 71.7438 30.9216 69.0297C30.9686 66.1767 31.7216 63.7977 34.0886 62.0297C36.2636 60.4813 38.8688 59.6527 41.5386 59.6602C41.5492 59.6607 41.5598 59.6622 41.5701 59.6647C41.7426 59.6147 43.5276 59.6482 44.0136 59.6647C45.2636 59.7147 48.0266 59.9432 48.0851 59.9472C50.209 60.2201 52.2895 60.7628 54.2761 61.5622C55.2591 61.8946 56.1748 62.3999 56.9801 63.0542C58.3641 63.8712 59.1081 65.5142 59.2891 67.0297C59.3391 67.4347 59.9726 75.2247 59.9771 75.2747C60.2611 72.8097 60.3771 70.3282 60.3241 67.8477C60.2931 66.3697 60.1241 65.8702 60.4636 65.0897C60.5546 64.9155 60.6908 64.769 60.858 64.6657C61.0252 64.5624 61.2171 64.5061 61.4136 64.5027C61.5774 64.5118 61.736 64.5628 61.8743 64.651C62.0126 64.7392 62.1258 64.8615 62.2031 65.0062C62.4737 65.5068 62.6285 66.0618 62.6561 66.6302C62.8493 66.405 63.0977 66.2339 63.377 66.1337C63.6563 66.0335 63.9568 66.0076 64.2491 66.0587C64.5413 66.1094 64.8153 66.2351 65.0444 66.4234C65.2735 66.6118 65.4498 66.8563 65.5561 67.1332C66.4886 66.5647 67.3656 67.3882 67.5506 68.4727C67.8432 68.4772 68.1242 68.5879 68.3412 68.7842C68.5582 68.9805 68.6964 69.249 68.7301 69.5397C69.1996 71.9997 69.2146 74.5247 68.7741 76.9897H75.1886C75.2336 76.9892 75.2766 76.9712 75.3086 76.9397C75.3401 76.9076 75.3581 76.8646 75.3586 76.8197C74.8421 72.8937 73.7211 64.3547 73.3826 61.7792ZM46.1956 57.2047C45.8186 57.6214 45.2953 57.8765 44.7347 57.9168C44.1742 57.957 43.6198 57.7793 43.1871 57.4207C42.851 57.0903 42.6213 56.667 42.5277 56.2051C42.434 55.7432 42.4807 55.2639 42.6616 54.8287C43.4161 52.7697 45.7846 53.0962 46.5116 54.7857C46.6864 55.179 46.7494 55.6128 46.6936 56.0396C46.6379 56.4664 46.4655 56.8695 46.1956 57.2047ZM47.4896 52.0387C47.3566 52.5332 46.7626 52.5127 46.3526 52.5342C45.9526 52.5557 43.9321 52.6677 43.3191 52.6797C43.2797 52.6793 43.2415 52.6654 43.2111 52.6403C43.1807 52.6152 43.1599 52.5803 43.1521 52.5417C43.1472 52.516 43.1482 52.4895 43.1551 52.4642C43.555 51.2927 44.1011 50.1764 44.7806 49.1417C44.8342 49.0348 44.9096 48.9403 45.0018 48.8642C45.094 48.7881 45.201 48.7321 45.3161 48.6997C45.3742 48.6873 45.4342 48.6866 45.4925 48.6975C45.5509 48.7085 45.6066 48.7308 45.6562 48.7634C45.7059 48.7959 45.7487 48.838 45.782 48.8871C45.8154 48.9362 45.8387 48.9915 45.8506 49.0497C45.9021 49.3902 45.843 49.7382 45.6821 50.0427C45.8184 49.968 45.9613 49.9063 46.1091 49.8582C46.262 49.7868 46.4346 49.77 46.5984 49.8105C46.7622 49.851 46.9071 49.9463 47.0091 50.0807C47.0832 50.2425 47.1021 50.4242 47.0631 50.5978C47.0241 50.7715 46.9293 50.9276 46.7931 51.0422C46.6481 51.1882 46.4931 51.3252 46.3316 51.4527C46.519 51.4335 46.7077 51.4303 46.8956 51.4432C47.0691 51.4382 47.2386 51.4932 47.3761 51.5992C47.4324 51.6557 47.4727 51.7262 47.4926 51.8035C47.5126 51.8808 47.5115 51.962 47.4896 52.0387ZM60.4801 62.7277C60.4391 62.5887 59.7951 60.3277 59.5386 59.3277C59.5303 59.2853 59.5381 59.2414 59.5606 59.2046C59.5831 59.1677 59.6186 59.1406 59.6601 59.1287C59.7019 59.1172 59.7465 59.1219 59.7848 59.1421C59.8232 59.1623 59.8524 59.1962 59.8666 59.2372C59.9076 59.3762 60.5501 61.6372 60.8081 62.6372C60.8197 62.6806 60.814 62.7269 60.7921 62.7662C60.7814 62.7858 60.7667 62.803 60.7491 62.8168C60.7315 62.8305 60.7112 62.8405 60.6896 62.8462C60.668 62.8523 60.6455 62.8541 60.6232 62.8514C60.601 62.8486 60.5795 62.8414 60.5601 62.8302C60.5405 62.8194 60.5234 62.8047 60.5096 62.7871C60.4959 62.7695 60.4858 62.7493 60.4801 62.7277ZM61.5891 63.1207C61.4891 63.3162 61.1966 63.1437 61.2956 62.9492L63.1851 59.2182C63.2851 59.0227 63.5771 59.1952 63.4786 59.3902L61.5891 63.1207ZM64.9346 62.7557L62.2881 63.6957C62.0811 63.7692 61.9926 63.4407 62.1976 63.3677L64.8441 62.4277C65.0496 62.3542 65.1396 62.6827 64.9346 62.7557Z" fill="#DEFFEF"/>
<path d="M64.274 31.0415C63.9846 30.7885 63.6204 30.6369 63.2369 30.6099C62.8535 30.5828 62.4716 30.6817 62.1495 30.8915C61.8109 31.1095 61.5528 31.4323 61.4147 31.8107C61.2766 32.189 61.266 32.6021 61.3845 32.987C61.453 33.1935 61.5622 33.3842 61.7056 33.5477C61.8491 33.7113 62.0239 33.8444 62.2196 33.9392C62.4154 34.034 62.6282 34.0886 62.8455 34.0997C63.0628 34.1109 63.28 34.0783 63.4845 34.004C64.804 33.5575 65.2785 31.924 64.274 31.0415Z" fill="white"/>
<path d="M61.4043 45.1063C60.3223 43.5063 60.1398 42.1463 60.3608 40.9598C59.9018 42.3793 59.6688 43.1668 58.9233 44.1783C58.5616 44.682 58.0764 45.0843 57.5143 45.3463C57.0002 45.5117 56.4453 45.4989 55.9394 45.3099C55.4334 45.1209 55.0061 44.7668 54.7263 44.3048C54.4117 43.6504 54.2574 42.9306 54.2763 42.2048C54.2385 41.5173 54.2231 40.8288 54.2303 40.1403C54.2548 36.9343 55.0343 28.6248 53.2373 26.9903C52.8618 26.7415 52.4149 26.623 51.9655 26.653C51.5161 26.683 51.0889 26.8598 50.7498 27.1563C50.0393 27.7508 49.8713 28.4843 49.7768 29.4023C49.7014 30.1199 49.6527 30.8401 49.6308 31.5613C47.7648 29.9113 46.1343 28.5663 44.1898 27.5733C43.4823 27.2118 42.0268 26.5488 41.5708 27.6178C41.4967 27.8838 41.4869 28.1636 41.5422 28.4341C41.5975 28.7047 41.7163 28.9582 41.8888 29.1738C42.1803 29.6113 42.5018 30.0288 42.8508 30.4218C41.5961 29.8783 40.2483 29.5819 38.8813 29.5488C38.2668 29.5195 37.6595 29.6908 37.1508 30.0368C36.9004 30.2471 36.7343 30.5407 36.683 30.8636C36.6317 31.1866 36.6985 31.5172 36.8713 31.7948C37.1998 32.3145 37.7113 32.6921 38.3048 32.8528C37.5529 32.9445 36.846 33.2602 36.2758 33.7588C36.0935 33.9168 35.9593 34.1229 35.8885 34.3536C35.8178 34.5843 35.8134 34.8302 35.8758 35.0633C35.956 35.2891 36.0849 35.4944 36.2534 35.6647C36.4219 35.8351 36.6259 35.9662 36.8508 36.0488C37.327 36.2169 37.8274 36.3064 38.3323 36.3138C40.0553 36.4398 43.1063 36.3863 44.8368 36.3283C44.9503 40.3893 45.1958 47.6993 47.7603 50.8783C50.4983 54.2743 55.7103 56.5813 60.3413 55.1943C62.7193 54.4818 64.5758 52.5263 66.0783 50.5443C64.3473 48.8878 62.7819 47.0666 61.4043 45.1063ZM55.9418 54.0563H57.8418C57.8868 54.0563 57.9303 54.0743 57.9618 54.1063C57.9777 54.122 57.9903 54.1406 57.999 54.1612C58.0076 54.1818 58.012 54.204 58.012 54.2263C58.012 54.2486 58.0076 54.2707 57.999 54.2913C57.9903 54.3119 57.9777 54.3306 57.9618 54.3463C57.9461 54.3622 57.9274 54.3747 57.9068 54.3833C57.8862 54.3919 57.8641 54.3963 57.8418 54.3963H55.9418C55.9195 54.3963 55.8974 54.3919 55.8768 54.3833C55.8562 54.3747 55.8375 54.3622 55.8218 54.3463C55.8059 54.3306 55.7933 54.3119 55.7847 54.2913C55.776 54.2707 55.7716 54.2486 55.7716 54.2263C55.7716 54.204 55.776 54.1818 55.7847 54.1612C55.7933 54.1406 55.8059 54.122 55.8218 54.1063C55.8533 54.0743 55.8968 54.0563 55.9418 54.0563ZM49.6558 31.9203C49.6776 31.899 49.7047 31.884 49.7344 31.877C49.7641 31.87 49.7951 31.8713 49.8241 31.8806C49.8531 31.89 49.879 31.9071 49.8989 31.9302C49.9189 31.9532 49.9321 31.9813 49.9373 32.0113C49.9908 32.2183 49.6813 32.1863 48.9998 33.4028C48.9811 33.4353 48.952 33.4607 48.9173 33.475C48.8825 33.4892 48.844 33.4914 48.8078 33.4813C47.6893 33.0586 46.4498 33.0909 45.3548 33.5713C45.1548 33.6588 44.9838 33.3663 45.1833 33.2778C46.317 32.7733 47.5993 32.7148 48.7743 33.1138C49.0194 32.6822 49.3154 32.2815 49.6558 31.9203ZM39.9303 32.8463C40.6253 32.8593 41.3198 32.8763 42.0138 32.9228C42.2313 32.9373 42.2323 33.2773 42.0138 33.2628C41.3203 33.2156 40.6254 33.19 39.9303 33.1863C39.8852 33.1863 39.842 33.1684 39.8101 33.1365C39.7782 33.1046 39.7603 33.0614 39.7603 33.0163C39.7603 32.9712 39.7782 32.928 39.8101 32.8961C39.842 32.8642 39.8852 32.8463 39.9303 32.8463ZM44.1258 31.1038L45.9833 31.8768C46.1833 31.9598 46.0948 32.2888 45.8928 32.2048L44.0353 31.4318C43.8358 31.3488 43.9238 31.0198 44.1258 31.1038Z" fill="white"/>
<path d="M48.279 86.106C47.7156 85.7844 47.1338 85.4962 46.5365 85.243C44.1344 85.1811 41.7521 84.7905 39.456 84.082C37.8715 84.3309 36.3351 84.8232 34.901 85.5415C34.8728 85.5589 34.8503 85.5841 34.836 85.614C34.8218 85.6439 34.8165 85.6773 34.8208 85.7101C34.8251 85.743 34.8387 85.7739 34.8601 85.7991C34.8816 85.8244 34.9098 85.8429 34.9415 85.8525C38.3567 86.5034 41.8342 86.7681 45.3085 86.6415C46.1805 86.6095 48.1085 86.4765 48.235 86.4375C48.2734 86.4335 48.3093 86.4167 48.337 86.3897C48.3646 86.3628 48.3825 86.3274 48.3875 86.2891C48.3926 86.2508 48.3847 86.212 48.365 86.1788C48.3453 86.1456 48.315 86.1199 48.279 86.106Z" fill="#DEFFEF"/>
<path d="M81.3413 47.5076C79.5828 44.8921 73.5713 44.0576 73.0543 43.8981C72.0184 43.5586 71.1444 42.8484 70.6 41.9039C70.0557 40.9594 69.8793 39.8471 70.1048 38.7806C70.3308 37.714 70.9429 36.7686 71.8235 36.1258C72.7041 35.483 73.7911 35.1882 74.8758 35.2981C72.3716 34.4798 69.721 34.208 67.1028 34.5011C66.5158 34.5784 65.9386 34.7177 65.3808 34.9166C65.5148 34.8951 65.5958 35.0591 65.5423 35.1716C65.1373 36.0256 65.0178 37.4716 63.8923 37.6826C63.2158 37.8111 62.8788 37.1826 62.7423 36.6131C62.736 36.5864 62.7362 36.5586 62.7428 36.5321C62.7491 36.5055 62.7616 36.4808 62.7793 36.4601C62.5293 36.6876 62.2973 36.9346 62.0858 37.1981C60.895 38.6069 60.2572 40.4007 60.2913 42.2451C60.4195 43.2767 60.8012 44.2605 61.4023 45.1086C63.3938 48.0476 65.7168 50.2086 70.0153 54.4966C72.9033 54.0241 76.0193 54.3466 78.6393 53.5966C81.8228 52.6776 83.0928 50.1121 81.3413 47.5076Z" fill="#2BFF01"/>
<path d="M56.9697 63.0413C55.3412 61.5678 50.5937 60.2413 48.3697 59.9748C48.2448 59.9541 48.1183 59.9445 47.9917 59.9463C48.0169 59.9553 48.0396 59.9702 48.058 59.9897C48.0764 60.0091 48.0899 60.0327 48.0974 60.0584C48.105 60.084 48.1064 60.1111 48.1015 60.1375C48.0966 60.1638 48.0855 60.1886 48.0692 60.2098C48.0473 60.238 48.017 60.2586 47.9827 60.2688C47.9562 60.2753 45.6957 60.8818 45.6002 60.9093C43.3422 61.5483 41.9732 62.5163 40.4812 62.3383C40.3197 62.3399 40.16 62.3029 40.0156 62.2305C39.8712 62.1581 39.7461 62.0522 39.6507 61.9218C39.3282 61.2918 40.3467 60.4538 40.9237 60.0433C41.0737 59.9348 41.2342 59.8353 41.3912 59.7338C41.4453 59.698 41.506 59.6731 41.5697 59.6608C41.5594 59.6583 41.5488 59.6568 41.5382 59.6563C38.8684 59.6488 36.2632 60.4773 34.0882 62.0258C31.7332 63.7888 30.9682 66.1583 30.9212 69.0258C30.8774 72.0804 31.4629 75.1113 32.6412 77.9298C33.0549 78.9512 33.6104 79.9093 34.2912 80.7758C34.062 79.4035 34.0248 78.0059 34.1807 76.6233C34.3035 75.739 34.6035 74.8887 35.0628 74.1232C35.5221 73.3576 36.1313 72.6927 36.8537 72.1683C39.9037 69.9183 44.3447 71.6908 45.5892 76.4313C46.1787 78.6813 45.9692 81.0023 46.0552 83.2973C46.0632 83.5168 45.7232 83.5158 45.7152 83.2973C45.6262 80.9318 45.8652 78.3793 45.0982 75.9678C43.7747 71.8068 39.4602 70.1543 36.5252 72.8678C35.8861 73.4549 35.372 74.1648 35.0138 74.9552C34.6555 75.7457 34.4604 76.6002 34.4402 77.4678C34.4052 78.7308 34.4927 79.9943 34.7007 81.2408C38.4037 85.1363 45.8277 85.5213 51.2132 85.1883C52.0347 85.1417 52.8516 85.0344 53.6572 84.8673C51.7527 83.4673 50.5647 81.3278 49.8402 79.0873C48.8242 75.9433 48.7037 72.5683 48.7777 69.2873C48.7807 68.8078 48.8127 68.3293 48.8727 67.8538C49.0679 66.7251 49.5019 65.6512 50.1457 64.7038C50.7349 63.8243 51.5798 63.1468 52.5664 62.7629C53.5529 62.379 54.6336 62.3073 55.6622 62.5573C56.1218 62.6453 56.5636 62.8088 56.9697 63.0413Z" fill="#2BFF01"/>
<path d="M91.7214 45.9133C91.3279 43.5578 89.6614 41.2778 87.8674 39.9713C86.3607 38.9482 84.7277 38.1246 83.0094 37.5213C80.8926 36.7573 78.7294 36.1289 76.5329 35.6398C75.3229 35.3368 74.6429 35.1813 73.7399 35.3313C72.5829 35.5186 71.5473 36.1569 70.8599 37.1062C70.1725 38.0555 69.8893 39.2386 70.0724 40.3963C70.196 41.1988 70.5404 41.9511 71.067 42.5692C71.5936 43.1873 72.2817 43.6468 73.0544 43.8963C73.5404 44.0463 79.5889 44.8998 81.3414 47.5058C83.0939 50.1118 81.8229 52.6758 78.6414 53.5923C75.2014 54.5823 71.0339 53.7133 67.4564 55.2013C66.9479 55.4128 66.2859 55.8248 66.5329 56.4808C66.8139 57.2278 67.7604 57.1213 68.3899 57.0713L69.9324 56.9488C69.0228 57.1738 68.1273 57.4528 67.2509 57.7843C67.1119 57.8468 66.9907 57.9427 66.8979 58.0636C66.8052 58.1844 66.7438 58.3264 66.7194 58.4768C66.7058 58.6519 66.7402 58.8275 66.8187 58.9846C66.8973 59.1417 67.0171 59.2745 67.1654 59.3688C67.4709 59.5588 67.8219 59.6628 68.1819 59.6688C68.7259 59.7128 69.2084 59.7133 69.7199 59.7063C69.2519 59.7828 68.7894 59.8923 68.3369 60.0343C68.072 60.1001 67.8424 60.2652 67.6957 60.4954C67.549 60.7256 67.4962 61.0033 67.5484 61.2713C67.7059 61.7758 68.3284 61.9868 68.7944 62.0713C70.1804 62.3213 71.5029 61.6338 73.0394 61.7413C74.1484 61.8193 75.3924 62.2528 76.5169 62.4208C78.9291 62.7838 81.3948 62.4454 83.62 61.4459C85.8452 60.4464 87.736 58.8281 89.0669 56.7838C91.4364 53.2658 92.2039 48.7983 91.7214 45.9133ZM89.7924 51.4513C89.6486 52.1055 89.4196 52.7381 89.1114 53.3328C89.0114 53.5273 88.7179 53.3553 88.8179 53.1608C89.1113 52.5916 89.3289 51.9865 89.4649 51.3608C89.5114 51.1483 89.8394 51.2383 89.7924 51.4513ZM73.4169 56.2483L74.4264 56.1413C74.6439 56.1178 74.6414 56.4583 74.4264 56.4813L73.4169 56.5883C73.1999 56.6088 73.1999 56.2683 73.4169 56.2483ZM74.6574 59.2983H73.5999C73.5776 59.2983 73.5555 59.2939 73.5349 59.2853C73.5143 59.2767 73.4956 59.2641 73.4799 59.2483C73.464 59.2326 73.4513 59.2139 73.4427 59.1933C73.4341 59.1727 73.4297 59.1506 73.4297 59.1283C73.4297 59.1059 73.4341 59.0838 73.4427 59.0632C73.4513 59.0426 73.464 59.0239 73.4799 59.0083C73.5114 58.9763 73.5549 58.9583 73.5999 58.9583H74.6564C74.7014 58.9583 74.7449 58.9763 74.7764 59.0083C74.7923 59.0239 74.8049 59.0426 74.8135 59.0632C74.8221 59.0838 74.8266 59.1059 74.8266 59.1283C74.8266 59.1506 74.8221 59.1727 74.8135 59.1933C74.8049 59.2139 74.7923 59.2326 74.7764 59.2483C74.7607 59.2641 74.742 59.2767 74.7214 59.2853C74.7008 59.2939 74.6787 59.2983 74.6564 59.2983H74.6574Z" fill="white"/>
<path d="M68.73 69.5379C68.6969 69.2469 68.5589 68.9781 68.3418 68.7816C68.1246 68.5852 67.8433 68.4747 67.5505 68.4709C67.366 67.3909 66.491 66.5614 65.556 67.1314C65.4497 66.8545 65.2734 66.6099 65.0443 66.4215C64.8151 66.2332 64.541 66.1075 64.2488 66.0568C63.9565 66.0061 63.6561 66.0322 63.3769 66.1323C63.0978 66.2325 62.8494 66.4034 62.656 66.6284C62.6284 66.06 62.4736 65.505 62.203 65.0044C62.1262 64.8598 62.0133 64.7375 61.8754 64.6494C61.7374 64.5613 61.579 64.5103 61.4155 64.5014C61.219 64.5046 61.027 64.5609 60.8598 64.6642C60.6926 64.7675 60.5563 64.9141 60.4655 65.0884C60.1285 65.8644 60.295 66.3544 60.326 67.8464C60.379 70.327 60.263 72.8085 59.979 75.2734C59.888 74.1609 59.385 67.8204 59.291 67.0284C59.1741 65.988 58.7936 64.9946 58.1855 64.1424C57.6228 63.3708 56.804 62.8244 55.8755 62.6009C54.8208 62.3041 53.6993 62.3476 52.6709 62.7254C51.6424 63.1032 50.7593 63.7959 50.1475 64.7049C49.5043 65.6526 49.0704 66.7264 48.8745 67.8549C48.8145 68.3304 48.7825 68.8089 48.7795 69.2884C48.7055 72.5699 48.826 75.9449 49.842 79.0884C50.4494 81.2166 51.6519 83.1272 53.308 84.5954C54.308 85.4169 55.4985 85.9739 56.77 86.2149C59.244 86.8054 62.025 86.9089 64.3425 85.7229C66.8055 84.4629 67.6515 82.0229 68.3005 79.3389C69.0455 76.2579 69.416 72.6464 68.73 69.5379ZM67.7135 70.0159C67.6935 70.2314 67.3535 70.2334 67.3735 70.0159C67.396 69.7019 67.396 69.3874 67.3735 69.0734C67.362 68.8544 67.702 68.8554 67.7135 69.0734C67.736 69.3874 67.736 69.7019 67.7135 70.0159ZM65.428 69.4159C65.501 69.0604 65.508 68.6944 65.449 68.3364C65.399 68.1229 65.73 68.0324 65.777 68.2459C65.867 68.6619 65.8595 69.0934 65.756 69.5064C65.7415 69.5469 65.7123 69.5806 65.6741 69.6005C65.6359 69.6204 65.5916 69.6252 65.55 69.6139C65.5086 69.6023 65.473 69.5756 65.4504 69.539C65.4278 69.5024 65.4198 69.4586 65.428 69.4164V69.4159ZM58.821 84.5479C59.602 84.5519 60.383 84.5444 61.1635 84.5599C61.207 84.5625 61.2479 84.5816 61.2779 84.6133C61.3079 84.6449 61.3247 84.6868 61.325 84.7304C61.3251 84.774 61.3083 84.816 61.2783 84.8477C61.2482 84.8793 61.2071 84.8982 61.1635 84.9004C60.383 84.9114 59.602 84.8919 58.821 84.8879C58.7914 84.8824 58.7637 84.8692 58.7407 84.8497C58.7178 84.8302 58.7003 84.805 58.69 84.7767C58.6798 84.7483 58.6771 84.7178 58.6823 84.6881C58.6874 84.6584 58.7003 84.6306 58.7195 84.6074C58.7452 84.5762 58.7812 84.5553 58.821 84.5484V84.5479ZM62.695 66.9414C62.7035 67.2494 62.707 68.1109 62.682 68.8104C62.674 69.0289 62.332 69.0294 62.342 68.8104C62.3635 68.2019 62.367 67.4959 62.3545 66.9414C62.3572 66.8979 62.3763 66.857 62.4079 66.827C62.4396 66.797 62.4814 66.7802 62.525 66.7799C62.5687 66.7798 62.6107 66.7966 62.6423 66.8266C62.674 66.8567 62.6928 66.8978 62.695 66.9414Z" fill="white"/>
<path d="M47.9921 59.9428C47.9757 59.9376 47.959 59.9334 47.9421 59.9303C45.9154 59.7243 43.8791 59.6282 41.8421 59.6423C41.6865 59.6231 41.5289 59.6539 41.3921 59.7303C41.2351 59.8303 41.0766 59.9303 40.9246 60.0398C40.3476 60.4498 39.3291 61.2898 39.6516 61.9183C39.7469 62.0487 39.872 62.1545 40.0164 62.2269C40.1609 62.2994 40.3205 62.3363 40.4821 62.3348C41.9321 62.5078 43.4886 61.5033 45.6011 60.9058C45.6966 60.8783 47.9571 60.2718 47.9836 60.2653C48.0177 60.2549 48.0477 60.234 48.0694 60.2056C48.091 60.1772 48.1032 60.1428 48.1041 60.1071C48.105 60.0714 48.0947 60.0363 48.0746 60.0068C48.0545 59.9773 48.0256 59.9549 47.9921 59.9428Z" fill="white"/>
<path d="M65.3499 34.9191C64.403 35.2528 63.5318 35.7714 62.7869 36.4446L62.7799 36.4571C62.7622 36.4778 62.7497 36.5025 62.7434 36.5291C62.7367 36.5556 62.7366 36.5834 62.7429 36.6101C62.8794 37.1806 63.2164 37.8101 63.8929 37.6796C65.0174 37.4666 65.1369 36.0226 65.5429 35.1686C65.5588 35.1392 65.5658 35.1058 65.5631 35.0725C65.5604 35.0392 65.548 35.0074 65.5276 34.981C65.5072 34.9546 65.4795 34.9347 65.448 34.9237C65.4164 34.9127 65.3824 34.9111 65.3499 34.9191Z" fill="white"/>
<path d="M46.5126 54.7861C45.7801 53.0861 43.4126 52.7761 42.6626 54.8291C42.4816 55.2643 42.4349 55.7436 42.5285 56.2055C42.6222 56.6674 42.8519 57.0908 43.1881 57.4211C43.6208 57.7797 44.1752 57.9574 44.7357 57.9172C45.2962 57.8769 45.8196 57.6218 46.1966 57.2051C46.4665 56.8699 46.6388 56.4668 46.6946 56.04C46.7503 55.6132 46.6874 55.1794 46.5126 54.7861Z" fill="white"/>
<path d="M47.3755 51.6013C47.2382 51.4953 47.0684 51.4402 46.895 51.4453C46.7071 51.4324 46.5184 51.4356 46.331 51.4548C46.493 51.3273 46.647 51.1903 46.7925 51.0443C46.9288 50.9297 47.0238 50.7737 47.0628 50.6C47.1018 50.4263 47.0828 50.2446 47.0085 50.0828C46.9065 49.9484 46.7616 49.853 46.5978 49.8125C46.4341 49.7721 46.2614 49.7889 46.1085 49.8603C45.9608 49.9084 45.8178 49.9701 45.6815 50.0448C45.8426 49.7401 45.9016 49.3919 45.85 49.0513C45.8381 48.9931 45.8148 48.9378 45.7815 48.8887C45.7481 48.8395 45.7054 48.7975 45.6557 48.7649C45.606 48.7324 45.5504 48.71 45.492 48.6991C45.4336 48.6882 45.3736 48.6889 45.3155 48.7013C45.2005 48.7337 45.0935 48.7898 45.0013 48.8659C44.9091 48.942 44.8337 49.0364 44.78 49.1433C44.1009 50.1781 43.5548 51.2944 43.1545 52.4658C43.1486 52.4874 43.147 52.5101 43.1498 52.5324C43.1526 52.5547 43.1599 52.5762 43.1711 52.5956C43.1823 52.6151 43.1972 52.6322 43.2151 52.6459C43.2329 52.6595 43.2533 52.6695 43.275 52.6753C43.3685 52.7003 45.907 52.5593 46.352 52.5358C46.762 52.5148 47.356 52.5358 47.489 52.0403C47.5106 51.9636 47.5114 51.8826 47.4915 51.8055C47.4715 51.7283 47.4315 51.6579 47.3755 51.6013Z" fill="black"/>
<path d="M35.5504 54.3231C34.6474 53.7061 33.4424 53.6021 32.3819 53.5206C26.9009 53.1006 21.3174 55.4206 17.0934 59.1056C15.8529 60.1876 14.1769 62.1996 13.2739 61.9756C13.5944 61.1756 14.4374 59.6021 14.6764 59.1726C15.0274 58.5372 15.2183 57.8258 15.2326 57.1001C15.2469 56.3744 15.0843 55.6561 14.7587 55.0073C14.4331 54.3586 13.9544 53.7989 13.364 53.3767C12.7735 52.9544 12.0891 52.6824 11.3699 52.5841C10.4072 52.4526 9.42785 52.6386 8.58043 53.1141C7.84406 53.5252 7.23776 54.1346 6.83043 54.8731C4.99593 57.9106 2.28043 61.4351 2.51193 65.3731C2.62543 67.3201 3.43793 69.3231 5.07693 70.4706C6.09284 71.1121 7.25857 71.4775 8.45893 71.5306C11.3549 71.7639 14.2682 71.4107 17.0245 70.492C19.7808 69.5734 22.3235 68.1082 24.5004 66.1841C25.9604 64.8006 27.3404 63.3341 28.6319 61.7916C29.0159 61.3581 29.4119 60.8916 30.0404 60.8986C30.6654 60.9866 31.2694 61.1826 31.8264 61.4786C32.093 61.6025 32.3837 61.6658 32.6777 61.6639C32.9716 61.662 33.2615 61.5949 33.5264 61.4676C33.7444 61.342 33.9116 61.1442 33.9991 60.9083C34.0866 60.6724 34.0888 60.4134 34.0054 60.1761C33.8947 59.9633 33.7364 59.7789 33.5429 59.6371C33.1572 59.3126 32.7448 59.0214 32.3099 58.7666C33.1199 59.0326 33.9274 59.3456 34.6844 58.8031C34.902 58.6506 35.0534 58.421 35.1077 58.1609C35.162 57.9009 35.1153 57.6299 34.9769 57.4031C34.6714 56.9671 34.0269 56.8206 33.5564 56.6531C33.1929 56.5255 32.8262 56.4077 32.4564 56.2996C33.3461 56.2935 34.2344 56.2321 35.1164 56.1156C36.1934 55.9351 36.6504 55.0756 35.5504 54.3231ZM29.3069 58.4281C29.0929 58.4696 29.0019 58.1416 29.2164 58.1006C29.5947 58.0276 29.9831 58.0245 30.3624 58.0916C30.5779 58.1296 30.4859 58.4571 30.2719 58.4196C29.9526 58.3639 29.6258 58.3668 29.3074 58.4281H29.3069ZM29.1224 56.0221C29.4982 55.9293 29.8867 55.8984 30.2724 55.9306C30.4894 55.9491 30.4909 56.2896 30.2724 56.2706C29.918 56.2395 29.5608 56.2661 29.2149 56.3496C29.0004 56.4001 28.9104 56.0741 29.1229 56.0221H29.1224ZM4.67993 67.3051L5.88593 68.9551C6.01493 69.1321 5.71993 69.3016 5.59193 69.1266L4.38593 67.4766C4.25693 67.3001 4.55043 67.1301 4.67993 67.3051Z" fill="white"/>
<path d="M14.9189 47.6313C14.6474 47.5383 14.5954 47.2253 14.6149 46.9743C14.6594 46.3978 15.4679 44.6198 14.7294 43.1453C14.5402 42.763 14.2379 42.4481 13.8635 42.2436C13.4892 42.039 13.0609 41.9546 12.6369 42.0018C12.2989 42.0243 12.2019 42.1268 11.8869 42.0123C11.4424 41.8518 11.0594 41.5928 10.6869 41.8898C10.505 42.1085 10.4134 42.3884 10.4309 42.6723C10.1239 42.6288 9.81097 42.6802 9.53395 42.8195C9.25694 42.9588 9.0291 43.1794 8.88095 43.4518C8.59106 44.0008 8.41264 44.6016 8.35595 45.2198C8.23119 45.622 8.19341 46.0462 8.24514 46.4641C8.29686 46.882 8.4369 47.2842 8.65595 47.6438C9.63295 49.0403 11.8284 48.2528 14.8764 47.9673C14.9172 47.966 14.9561 47.9501 14.9863 47.9227C15.0164 47.8952 15.0358 47.8579 15.0409 47.8174C15.046 47.777 15.0366 47.736 15.0142 47.7019C14.9919 47.6678 14.9581 47.6428 14.9189 47.6313ZM13.4859 43.7053C13.7792 43.9906 13.971 44.3641 14.032 44.7687C14.0931 45.1733 14.02 45.5867 13.8239 45.9458C13.69 46.1863 13.5035 46.3934 13.2782 46.5516C13.0529 46.7098 12.7948 46.815 12.5231 46.8593C12.2514 46.9036 11.9732 46.8858 11.7094 46.8074C11.4455 46.7289 11.2028 46.5918 10.9994 46.4063C9.19395 44.8243 12.0614 42.5233 13.4859 43.7053Z" fill="black"/>
<path d="M13.4867 43.7052C12.3367 42.7512 10.1867 44.0852 10.4487 45.4802C10.5561 45.916 10.8188 46.2977 11.1876 46.5536C11.5564 46.8095 12.0058 46.9221 12.4517 46.8702C12.738 46.8377 13.0122 46.7368 13.2512 46.5758C13.4902 46.4149 13.6869 46.1988 13.8247 45.9457C14.0206 45.5866 14.0937 45.1732 14.0327 44.7686C13.9716 44.364 13.7799 43.9906 13.4867 43.7052Z" fill="white"/>
<path d="M49.6173 24.9446V18.0216C49.6173 17.9765 49.5994 17.9332 49.5676 17.9014C49.5357 17.8695 49.4924 17.8516 49.4473 17.8516C49.4023 17.8516 49.359 17.8695 49.3271 17.9014C49.2953 17.9332 49.2773 17.9765 49.2773 18.0216V24.9446C49.2773 24.9896 49.2953 25.0329 49.3271 25.0648C49.359 25.0967 49.4023 25.1146 49.4473 25.1146C49.4924 25.1146 49.5357 25.0967 49.5676 25.0648C49.5994 25.0329 49.6173 24.9896 49.6173 24.9446Z" fill="black"/>
<path d="M48.2858 25.2475C48.3177 25.2794 48.361 25.2973 48.4061 25.2973C48.4512 25.2973 48.4945 25.2794 48.5263 25.2475C48.5582 25.2156 48.5762 25.1724 48.5762 25.1273C48.5762 25.0822 48.5582 25.0389 48.5263 25.007C47.6427 24.0937 46.7439 23.195 45.8303 22.3115C45.7985 22.2796 45.7552 22.2617 45.7101 22.2617C45.665 22.2617 45.6217 22.2796 45.5898 22.3115C45.558 22.3434 45.54 22.3867 45.54 22.4318C45.54 22.4769 45.558 22.5201 45.5898 22.552L48.2858 25.2475Z" fill="black"/>
<path d="M50.3753 25.3209C51.2261 24.4974 52.0624 23.6589 52.8838 22.8059C52.9157 22.774 52.9336 22.7308 52.9336 22.6857C52.9336 22.6406 52.9157 22.5973 52.8838 22.5654C52.8519 22.5335 52.8086 22.5156 52.7635 22.5156C52.7184 22.5156 52.6752 22.5335 52.6433 22.5654C51.7926 23.3891 50.9563 24.2276 50.1348 25.0804C50.119 25.0962 50.1065 25.115 50.0979 25.1356C50.0894 25.1562 50.085 25.1784 50.085 25.2007C50.085 25.223 50.0894 25.2451 50.0979 25.2658C50.1065 25.2864 50.119 25.3051 50.1348 25.3209C50.1506 25.3367 50.1693 25.3493 50.1899 25.3578C50.2106 25.3663 50.2327 25.3707 50.255 25.3707C50.2774 25.3707 50.2995 25.3663 50.3201 25.3578C50.3407 25.3493 50.3595 25.3367 50.3753 25.3209Z" fill="black"/>
<path d="M23.2496 37.5081C22.8706 37.1726 22.3611 37.2886 21.8691 37.2461C22.2181 37.6411 22.5961 38.0106 22.9996 38.3501C23.0857 38.3286 23.1646 38.2851 23.2287 38.2237C23.2928 38.1624 23.3397 38.0855 23.365 38.0005C23.3902 37.9154 23.3929 37.8253 23.3726 37.739C23.3524 37.6526 23.31 37.5731 23.2496 37.5081Z" fill="#DEFFEF"/>
<path d="M40.0885 46.3608C40.026 44.5608 39.2355 42.5928 37.73 41.5903C36.009 40.4448 33.961 40.6008 32.5015 39.2653C30.9515 37.8458 29.998 34.6018 31.1015 31.2783C31.877 28.9463 33.478 26.2403 32.405 23.6738C31.9601 22.6192 31.2035 21.7258 30.2365 21.1133C29.8936 21.8041 29.4058 22.4128 28.8064 22.8981C28.207 23.3834 27.51 23.7339 26.763 23.9256C26.016 24.1173 25.2364 24.1457 24.4774 24.009C23.7184 23.8723 22.9977 23.5736 22.3645 23.1333C21.9451 23.6941 21.5769 24.2915 21.2645 24.9183L22.7185 24.2183C22.915 24.1233 23.0875 24.4183 22.8905 24.5118C21.0765 25.3853 21.0825 25.3923 21.032 25.4013C20.868 25.7584 20.7188 26.1222 20.585 26.4918C20.585 26.4918 21.5225 28.0653 21.8555 28.6723C21.869 28.6984 21.8758 28.7274 21.8751 28.7568C21.8745 28.7862 21.8665 28.8149 21.8519 28.8404C21.8373 28.8659 21.8165 28.8873 21.7914 28.9026C21.7664 28.918 21.7379 28.9268 21.7085 28.9283H19.927C19.6613 30.2602 19.6258 31.6278 19.822 32.9718C19.9808 34.0066 20.3397 35.0006 20.8785 35.8983C20.9782 35.7124 21.1256 35.5564 21.3056 35.4464C21.4856 35.3364 21.6916 35.2763 21.9025 35.2723C22.4025 35.2348 23.2845 35.4468 23.535 34.8418C23.6485 34.5668 23.4135 34.3183 23.1745 34.2188C22.8937 34.1256 22.5966 34.0915 22.302 34.1188C21.777 34.1303 21.0485 34.1273 20.9365 33.4688C20.8898 33.2074 20.94 32.9379 21.0775 32.7108C21.6025 31.9803 22.6715 32.1568 23.5665 32.2668C23.781 32.2933 23.7825 32.6358 23.5665 32.6068C23.1945 32.5552 22.8199 32.5243 22.4445 32.5143C22.1357 32.4898 21.8265 32.5573 21.556 32.7083C21.4398 32.7883 21.3507 32.9018 21.3009 33.0338C21.251 33.1658 21.2427 33.3099 21.277 33.4468C21.4475 34.1533 22.983 33.3858 23.689 34.1683C23.776 34.2709 23.8366 34.3934 23.8654 34.5248C23.8942 34.6563 23.8903 34.7928 23.8541 34.9224C23.818 35.0521 23.7506 35.1709 23.658 35.2685C23.5653 35.3661 23.4501 35.4395 23.3225 35.4823C22.5225 35.7748 22.2225 35.4398 21.4905 35.7143C21.3792 35.7708 21.2875 35.8596 21.2273 35.969C21.1672 36.0785 21.1415 36.2035 21.1535 36.3278C21.263 36.4963 21.3815 36.6578 21.5095 36.8128C21.9915 37.0333 22.269 36.8128 23.117 37.0438C23.238 37.0736 23.3505 37.1309 23.4456 37.2113C23.5408 37.2918 23.616 37.3932 23.6655 37.5075C23.715 37.6219 23.7373 37.7461 23.7308 37.8705C23.7243 37.995 23.6892 38.1162 23.628 38.2248C23.545 38.3698 23.426 38.4908 23.283 38.5773C27.361 41.6988 32.0255 41.9273 36.171 43.5273C39.621 44.8593 38.798 48.1203 38.9615 51.2728C38.9623 51.3135 38.9776 51.3526 39.0047 51.383C39.0318 51.4134 39.0689 51.4331 39.1092 51.4385C39.1496 51.4439 39.1905 51.4348 39.2247 51.4126C39.2589 51.3905 39.284 51.3568 39.2955 51.3178C39.8561 49.7267 40.1247 48.0474 40.0885 46.3608ZM24.0665 31.5913L22.4715 29.6983C22.331 29.5318 22.5715 29.2903 22.712 29.4578L24.307 31.3523C24.4495 31.5173 24.2075 31.7588 24.0665 31.5913ZM29.287 30.7788C29.209 30.8498 29.473 30.8518 26.302 30.8288C26.2571 30.8283 26.2142 30.8102 26.1824 30.7784C26.1506 30.7466 26.1325 30.7037 26.132 30.6588V27.7938C26.1327 27.7489 26.1508 27.706 26.1825 27.6743C26.2143 27.6425 26.2571 27.6244 26.302 27.6238H29.167C29.2119 27.6243 29.2549 27.6424 29.2867 27.6741C29.3184 27.7059 29.3365 27.7489 29.337 27.7938C29.36 30.9778 29.3595 30.6823 29.287 30.7788Z" fill="#DEFFEF"/>
<path d="M21.8558 28.6734C21.5228 28.0664 18.3223 22.6029 18.1688 22.3449C18.1514 22.3156 18.1256 22.2922 18.0947 22.2778C18.0639 22.2633 18.0294 22.2585 17.9958 22.2639C17.9735 22.2673 17.9521 22.2751 17.9328 22.2869C17.8793 22.3194 18.0623 21.9039 14.1883 28.6734C14.1736 28.6992 14.166 28.7285 14.166 28.7583C14.1661 28.788 14.1739 28.8172 14.1887 28.8431C14.2034 28.8689 14.2247 28.8904 14.2503 28.9055C14.2759 28.9207 14.305 28.9289 14.3348 28.9294H21.7088C21.7381 28.9278 21.7665 28.9189 21.7915 28.9035C21.8164 28.8881 21.8372 28.8667 21.8518 28.8413C21.8664 28.8158 21.8744 28.7871 21.8751 28.7578C21.8758 28.7285 21.8692 28.6995 21.8558 28.6734Z" fill="#2BFF01"/>
<path d="M29.1678 27.625H26.3028C26.2579 27.6256 26.2151 27.6438 26.1833 27.6755C26.1516 27.7072 26.1335 27.7501 26.1328 27.795V30.66C26.1335 30.7049 26.1516 30.7478 26.1833 30.7795C26.2151 30.8112 26.2579 30.8294 26.3028 30.83C29.4378 30.8525 29.2093 30.851 29.2878 30.78C29.3588 30.6855 29.3608 31.0215 29.3378 27.7955C29.3374 27.7505 29.3194 27.7074 29.2876 27.6755C29.2558 27.6437 29.2128 27.6255 29.1678 27.625Z" fill="#2BFF01"/>
<path d="M27.2501 13.6501C26.287 13.3013 25.2444 13.2343 24.2446 13.457C23.2448 13.6798 22.3292 14.1831 21.6053 14.9078C20.8815 15.6326 20.3793 16.5487 20.1578 17.5488C19.9362 18.5489 20.0045 19.5914 20.3545 20.5541C20.7046 21.5167 21.3219 22.3596 22.1341 22.9838C22.9463 23.608 23.9197 23.9876 24.94 24.0781C25.9603 24.1686 26.9853 23.9662 27.8947 23.4947C28.804 23.0232 29.5601 22.3022 30.0741 21.4161C30.4704 20.7347 30.7121 19.9745 30.7821 19.1893C30.8521 18.4041 30.7488 17.6131 30.4794 16.8723C30.21 16.1315 29.7811 15.4589 29.2231 14.9021C28.6651 14.3453 27.9915 13.9179 27.2501 13.6501Z" fill="#2BFF01"/>
<path d="M5.04461 46.8002C5.08975 46.8002 5.13304 46.7823 5.165 46.7504C5.19696 46.7186 5.21498 46.6753 5.21511 46.6302C5.04244 45.3368 5.25916 44.0213 5.83761 42.8517C5.93461 42.6562 5.64211 42.4842 5.54411 42.6802C4.9352 43.9017 4.70221 45.2763 4.87461 46.6302C4.87587 46.6749 4.89419 46.7174 4.9258 46.749C4.95741 46.7806 4.99992 46.7989 5.04461 46.8002Z" fill="black"/>
<path d="M3.79969 46.7606C3.82204 46.7607 3.84417 46.7564 3.86483 46.7478C3.88548 46.7393 3.90425 46.7268 3.92005 46.711C3.93585 46.6952 3.94837 46.6764 3.95689 46.6558C3.96541 46.6351 3.96976 46.613 3.96969 46.5906C3.79724 45.2974 4.01414 43.9821 4.59269 42.8126C4.68969 42.6171 4.39669 42.4451 4.29919 42.6411C3.6899 43.8625 3.45689 45.2372 3.62969 46.5911C3.63084 46.6358 3.64913 46.6783 3.68078 46.7099C3.71243 46.7415 3.75501 46.7596 3.79969 46.7606Z" fill="black"/>
<path d="M60.4808 62.7287C60.4951 62.7695 60.5243 62.8034 60.5626 62.8235C60.6009 62.8436 60.6455 62.8484 60.6872 62.8369C60.7289 62.8254 60.7647 62.7985 60.7873 62.7616C60.8098 62.7247 60.8176 62.6805 60.8088 62.6382C60.5518 61.6382 59.9088 59.3762 59.8673 59.2382C59.8553 59.1947 59.8265 59.1577 59.7873 59.1354C59.7481 59.1132 59.7016 59.1074 59.6581 59.1194C59.6146 59.1314 59.5776 59.1602 59.5554 59.1994C59.5331 59.2387 59.5273 59.2852 59.5393 59.3287C59.7293 60.0662 60.4658 62.6782 60.4808 62.7287Z" fill="black"/>
<path d="M61.59 63.1213L63.4795 59.3908C63.5795 59.1958 63.285 59.0233 63.186 59.2188L61.2965 62.9498C61.1975 63.1443 61.491 63.3168 61.59 63.1213Z" fill="black"/>
<path d="M62.2003 63.3683C61.9953 63.4413 62.0838 63.7683 62.2908 63.6963L64.9373 62.7563C65.1423 62.6833 65.0538 62.3563 64.8468 62.4283L62.2003 63.3683Z" fill="black"/>
<path d="M17.7243 21.1696C17.6058 20.5548 17.487 19.9402 17.3678 19.3256C17.3263 19.1111 16.9983 19.2021 17.0398 19.4161L17.3968 21.2596C17.4383 21.4746 17.7658 21.3836 17.7243 21.1696Z" fill="black"/>
<path d="M12.778 25.1837C13.3155 25.3447 13.854 25.5022 14.397 25.6432C14.4398 25.6533 14.4849 25.6465 14.5228 25.6241C14.5607 25.6017 14.5884 25.5655 14.6001 25.523C14.6118 25.4806 14.6066 25.4353 14.5856 25.3966C14.5646 25.3579 14.5294 25.3289 14.4875 25.3157C13.9506 25.1528 13.4108 24.9996 12.8685 24.8562C12.8256 24.846 12.7805 24.8528 12.7427 24.8752C12.7048 24.8976 12.677 24.9339 12.6653 24.9763C12.6536 25.0187 12.6588 25.064 12.6798 25.1027C12.7008 25.1414 12.736 25.1704 12.778 25.1837Z" fill="black"/>
<path d="M12.2163 31.5912L13.5663 30.5332C13.7388 30.3987 13.4963 30.1597 13.3263 30.2932L11.9763 31.3507C11.8038 31.4852 12.0458 31.7247 12.2163 31.5912Z" fill="black"/>
<path d="M18.868 32.079L18.5535 30.3845C18.514 30.1695 18.186 30.2605 18.226 30.475L18.54 32.1695C18.58 32.3845 18.9075 32.2935 18.868 32.079Z" fill="black"/>
<path d="M22.8913 24.5153C23.0883 24.4203 22.9158 24.1268 22.7193 24.2218L20.8848 25.1048C20.6958 25.1958 20.8468 25.4658 21.0348 25.4048C21.0833 25.3958 20.9798 25.4353 22.8913 24.5153Z" fill="black"/>
<path d="M30.3622 58.0911C29.9828 58.024 29.5944 58.0271 29.2162 58.1001C29.0017 58.1411 29.0927 58.4691 29.3067 58.4276C29.6252 58.3663 29.9522 58.3634 30.2717 58.4191C30.4857 58.4566 30.5777 58.1291 30.3622 58.0911Z" fill="black"/>
<path d="M29.2132 56.3493C29.5591 56.2659 29.9163 56.2392 30.2707 56.2703C30.4892 56.2893 30.4877 55.9488 30.2707 55.9303C29.8849 55.8981 29.4965 55.929 29.1207 56.0218C28.9102 56.0733 29.0002 56.3993 29.2132 56.3493Z" fill="black"/>
<path d="M4.67946 67.3041C4.55146 67.1291 4.25646 67.2986 4.38546 67.4756L5.59146 69.1256C5.71946 69.3006 6.01446 69.1311 5.88546 68.9541L4.67946 67.3041Z" fill="black"/>
<path d="M22.7129 29.459C22.5714 29.2915 22.3319 29.533 22.4724 29.6995L24.0674 31.594C24.2084 31.7615 24.4479 31.52 24.3079 31.3535L22.7129 29.459Z" fill="black"/>
<path d="M10.5893 75.8411L5.9313 83.2141C5.8143 83.3996 6.1083 83.5701 6.2248 83.3856L10.8828 76.0126C11.0008 75.8271 10.7058 75.6566 10.5893 75.8411Z" fill="black"/>
<path d="M24.0968 83.2985C24.0468 81.694 23.8793 76.6145 23.8573 75.926C23.8498 75.7075 23.5073 75.7065 23.5168 75.926L23.7568 83.2985C23.7638 83.515 24.1038 83.516 24.0968 83.2985Z" fill="black"/>
<path d="M63.4627 34.0124C63.7715 33.9136 64.0511 33.74 64.2766 33.507C64.5021 33.274 64.6665 32.9888 64.7552 32.6769C65.1717 31.1769 63.4502 30.0534 62.1507 30.8924C61.8126 31.111 61.555 31.4338 61.4169 31.8119C61.2788 32.1901 61.2679 32.603 61.3857 32.9879C61.4537 33.1923 61.5617 33.3811 61.7032 33.5434C61.8448 33.7058 62.0171 33.8385 62.2103 33.9337C62.4035 34.029 62.6136 34.085 62.8286 34.0986C63.0436 34.1121 63.2591 34.0828 63.4627 34.0124ZM61.7857 33.0729C61.6464 32.7716 61.6108 32.4327 61.6844 32.1091C61.758 31.7854 61.9367 31.4953 62.1927 31.2839C62.4357 31.0791 62.7401 30.9611 63.0577 30.9484C63.3753 30.9357 63.688 31.0291 63.9467 31.2139C64.8702 31.8689 64.5142 33.2829 63.3942 33.6769C63.0981 33.7853 62.773 33.784 62.4779 33.6732C62.1828 33.5624 61.9372 33.3494 61.7857 33.0729Z" fill="black"/>
<path d="M42.0133 32.9256C41.3193 32.8791 40.6253 32.8396 39.9298 32.8491C39.8847 32.8491 39.8414 32.867 39.8096 32.8989C39.7777 32.9308 39.7598 32.974 39.7598 33.0191C39.7598 33.0642 39.7777 33.1074 39.8096 33.1393C39.8414 33.1712 39.8847 33.1891 39.9298 33.1891C40.6248 33.1941 41.3193 33.2196 42.0133 33.2656C42.2318 33.2801 42.2308 32.9401 42.0133 32.9256Z" fill="black"/>
<path d="M45.9828 31.8765L44.1253 31.1035C43.9253 31.0195 43.8353 31.3485 44.0348 31.4315L45.8923 32.2045C46.0943 32.2885 46.1823 31.9595 45.9828 31.8765Z" fill="black"/>
<path d="M23.772 74.6962C23.0632 74.333 22.3257 74.0288 21.567 73.7867C23.1745 73.7893 24.776 73.5901 26.334 73.1937V83.3002C26.3338 83.3226 26.3381 83.3447 26.3466 83.3654C26.3551 83.3861 26.3677 83.4049 26.3835 83.4207C26.3993 83.4365 26.4181 83.449 26.4388 83.4575C26.4594 83.466 26.4816 83.4703 26.504 83.4702C26.5491 83.4702 26.5923 83.4523 26.6242 83.4204C26.6561 83.3885 26.674 83.3453 26.674 83.3002V73.1002C27.7082 72.8079 28.6951 72.3685 29.6045 71.7957C30.063 75.2832 30.079 75.6167 30.258 76.7717L30.2645 76.8187C30.2652 76.8635 30.2834 76.9063 30.3151 76.9381C30.3468 76.9698 30.3896 76.9879 30.4345 76.9887H32.2775C32.7268 78.3562 33.4072 79.6365 34.289 80.7742C34.397 81.5397 34.539 82.3707 34.6915 83.3447C34.725 83.5602 35.0525 83.4687 35.019 83.2542C34.915 82.5862 34.8015 81.9152 34.7015 81.2427C36.0284 82.5666 37.6615 83.5427 39.456 84.0842C37.8721 84.3356 36.336 84.8278 34.901 85.5437C34.8728 85.5611 34.8502 85.5862 34.836 85.6161C34.8218 85.6461 34.8165 85.6794 34.8207 85.7123C34.825 85.7451 34.8387 85.776 34.8601 85.8013C34.8815 85.8266 34.9098 85.8451 34.9415 85.8547C39.3205 86.6957 43.799 86.8927 48.235 86.4397C48.2731 86.4352 48.3086 86.4182 48.336 86.3913C48.3633 86.3644 48.3809 86.3291 48.3859 86.2911C48.391 86.253 48.3832 86.2144 48.3638 86.1813C48.3445 86.1482 48.3146 86.1224 48.279 86.1082C47.7159 85.7863 47.1342 85.4981 46.537 85.2452C48.917 85.3852 51.3055 85.2587 53.658 84.8692C53.9485 85.0852 54.255 85.2787 54.575 85.4477C55.2741 85.7878 56.0104 86.0456 56.769 86.2157C60.377 87.1292 64.5905 86.7532 66.619 83.6927C67.4284 82.3509 67.9965 80.8776 68.2975 79.3397C68.4855 78.5632 68.6475 77.7787 68.772 76.9897H75.1865C75.2314 76.9892 75.2744 76.9712 75.3065 76.9397C75.338 76.9077 75.3559 76.8647 75.3565 76.8197L73.3815 61.7812C74.436 61.9112 75.466 62.2697 76.5145 62.4232C84.219 63.5957 90.6435 57.7452 91.6965 49.8287C91.9065 48.5337 91.9145 47.2142 91.72 45.9172C91.498 44.713 91.0225 43.5697 90.325 42.5632C88.5465 39.9102 86.0405 38.6632 83.008 37.5232C83.0364 37.2958 82.994 37.0651 82.8865 36.8627C82.5175 36.1957 81.683 36.2917 81.2565 35.6357C81.117 35.4127 81.0245 35.1647 80.899 34.9357C80.377 33.9762 79.2455 33.7922 78.249 33.8312C77.6133 33.9088 76.9703 33.9036 76.336 33.8157C76.2214 33.797 76.1121 33.7543 76.0153 33.6904C75.9184 33.6264 75.8362 33.5427 75.774 33.4447C75.461 32.8417 75.6595 32.1657 75.2795 31.5387C75.0264 31.138 74.6471 30.8329 74.2015 30.6717C73.0645 30.2357 71.868 30.5862 70.698 30.4887C70.4696 30.4781 70.2487 30.4044 70.0597 30.2758C69.8708 30.1472 69.7211 29.9687 69.6275 29.7602C69.206 28.9602 69.213 28.1302 68.33 27.5602C66.903 26.7557 65.28 27.6602 63.952 28.1347C62.1555 28.7797 61.5755 27.8592 60.519 27.9877C60.0004 28.0814 59.5317 28.3554 59.1955 28.7612C58.8181 29.1191 58.5539 29.5798 58.4355 30.0862C58.3164 30.5926 58.3484 31.1228 58.5275 31.6112C59.0815 32.6517 59.617 32.7357 60.0005 33.6767C60.285 34.5952 59.197 35.3797 59.5225 36.2927C59.862 37.2452 61.0905 37.1832 61.8655 37.4817C61.0945 38.512 60.5764 39.709 60.353 40.9762C59.882 42.5017 59.616 43.2407 58.9215 44.1827C58.56 44.6864 58.0749 45.0887 57.513 45.3507C56.9987 45.5144 56.4443 45.5008 55.9387 45.3119C55.4331 45.1231 55.0055 44.77 54.7245 44.3092C53.366 42.0092 55.4245 31.7362 53.6745 27.6217C53.0035 26.0152 50.584 26.4947 49.9985 28.2417C49.7591 29.3341 49.6344 30.4484 49.6265 31.5667C47.7765 29.9312 46.104 28.5517 44.1855 27.5787C43.479 27.2152 42.0225 26.5542 41.5665 27.6232C41.493 27.8893 41.4835 28.1689 41.5388 28.4394C41.5941 28.7098 41.7125 28.9633 41.8845 29.1792C42.1782 29.615 42.501 30.0306 42.8505 30.4232C41.5957 29.8798 40.248 29.5833 38.881 29.5502C38.2665 29.5209 37.6591 29.6922 37.1505 30.0382C36.9008 30.249 36.7352 30.5425 36.6839 30.8652C36.6326 31.188 36.699 31.5183 36.871 31.7962C37.2009 32.3146 37.7119 32.6917 38.3045 32.8542C37.5526 32.9459 36.8456 33.2616 36.2755 33.7602C36.093 33.9181 35.9587 34.1242 35.8879 34.3549C35.8172 34.5857 35.8129 34.8316 35.8755 35.0647C35.9567 35.2899 36.086 35.4947 36.2544 35.6648C36.4228 35.835 36.6262 35.9665 36.8505 36.0502C37.3275 36.2157 37.8275 36.3052 38.332 36.3152C40.053 36.4412 43.0895 36.3882 44.8365 36.3297C44.9365 40.0017 45.1255 44.5152 46.3235 48.1157H40.0235C40.0909 47.535 40.1133 46.9499 40.0905 46.3657C40.0365 44.6157 39.255 42.6087 37.732 41.5947C36.047 40.4732 33.9225 40.5687 32.504 39.2697C30.918 37.8197 30.0145 34.4962 31.104 31.2827C31.86 28.9617 33.4835 26.2827 32.4075 23.6782C31.9619 22.624 31.2054 21.7308 30.239 21.1177C30.8941 19.8295 31.0164 18.3354 30.5795 16.9578C30.1425 15.5803 29.1814 14.4298 27.9035 13.7547C26.6257 13.0796 25.1336 12.9341 23.7495 13.3496C22.3653 13.7651 21.2 14.7082 20.5051 15.9754C19.8103 17.2426 19.6416 18.7322 20.0355 20.1227C20.4295 21.5132 21.3544 22.693 22.6106 23.4074C23.8669 24.1219 25.3537 24.3137 26.7501 23.9414C28.1465 23.5692 29.3406 22.6627 30.0745 21.4177C30.8198 21.8734 31.43 22.5197 31.8421 23.2899C32.2542 24.0601 32.4534 24.9263 32.419 25.7992C32.2975 28.4237 30.4215 30.7067 30.287 33.7737C30.2168 35.2007 30.4986 36.6232 31.1075 37.9157C32.5515 40.9912 35.2925 40.5072 37.3575 41.7607C38.9305 42.7857 39.6615 44.4837 39.748 46.3667C39.786 47.6653 39.6255 48.9621 39.272 50.2122C39.279 48.2622 39.505 46.1667 38.2365 44.5757C37.407 43.5357 36.089 43.1052 34.8655 42.7257C31.0765 41.5432 26.7975 40.9092 23.5425 38.3582C23.6315 38.2532 23.6922 38.1272 23.7187 37.9922C23.7452 37.8571 23.7367 37.7175 23.694 37.5867C23.6513 37.4559 23.5758 37.3381 23.4747 37.2447C23.3736 37.1514 23.2503 37.0854 23.1165 37.0532C22.7665 36.9571 22.4035 36.9173 22.041 36.9352C21.761 36.6109 21.505 36.2666 21.275 35.9052C21.3315 35.8287 21.405 35.7667 21.49 35.7237C22.2105 35.4532 22.531 35.7812 23.322 35.4917C23.4494 35.4487 23.5644 35.3752 23.6569 35.2776C23.7495 35.18 23.8167 35.0612 23.8528 34.9317C23.889 34.8021 23.8929 34.6657 23.8642 34.5343C23.8356 34.4029 23.7753 34.2805 23.6885 34.1777C22.981 33.3937 21.4385 34.1637 21.2765 33.4562C21.2413 33.3194 21.2493 33.175 21.2992 33.0428C21.3491 32.9107 21.4386 32.7971 21.5555 32.7177C21.826 32.5667 22.1351 32.4992 22.444 32.5237C22.819 32.5317 23.194 32.5627 23.5655 32.6167C23.7825 32.6432 23.7805 32.3027 23.5655 32.2762C22.9511 32.1442 22.3158 32.1432 21.701 32.2732C21.4442 32.3392 21.2222 32.5005 21.0801 32.7244C20.938 32.9482 20.8864 33.2177 20.936 33.4782C21.036 34.1372 21.776 34.1387 22.3015 34.1282C22.5961 34.1004 22.8933 34.1345 23.174 34.2282C23.413 34.3282 23.6485 34.5782 23.534 34.8512C23.284 35.4562 22.399 35.2372 21.902 35.2817C21.6043 35.3 21.3205 35.414 21.093 35.6067C19.9215 33.5692 19.8405 31.2002 20.2685 28.9377H21.708C21.7311 28.9366 21.7537 28.9308 21.7745 28.9209C21.7954 28.911 21.8141 28.897 21.8295 28.8798C21.845 28.8626 21.8568 28.8425 21.8645 28.8207C21.8721 28.7989 21.8753 28.7758 21.874 28.7527C21.869 28.6527 21.2385 27.6232 20.809 26.8867C21.0077 26.3041 21.2439 25.7349 21.516 25.1827L22.89 24.5212C23.087 24.4262 22.9145 24.1327 22.718 24.2277L21.7775 24.6802C22.0355 24.2062 22.3275 23.7512 22.6505 23.3187C22.5535 23.2605 22.4582 23.1993 22.365 23.1352C21.9454 23.6959 21.5772 24.2933 21.265 24.9202L20.8845 25.1032C20.6955 25.1942 20.8475 25.4642 21.0345 25.4032C20.8702 25.7608 20.7201 26.1248 20.5845 26.4942L18.168 22.3442C18.108 22.2442 17.9605 22.2072 17.842 22.3827C17.649 22.6697 16.9515 23.8427 14.1875 28.6727C14.1728 28.6986 14.1651 28.7278 14.1652 28.7576C14.1653 28.7874 14.1731 28.8166 14.1878 28.8424C14.2026 28.8682 14.2239 28.8898 14.2495 28.9049C14.2751 28.92 14.3042 28.9282 14.334 28.9287H19.928C19.667 30.2612 19.6315 31.628 19.823 32.9722C19.9852 34.0066 20.3436 35.0004 20.879 35.9002C20.6325 36.4532 20.9415 37.1682 21.868 37.2467C22.218 37.6417 22.5965 38.0107 23.0005 38.3502C22.3331 38.4842 21.6486 38.5102 20.973 38.4272C20.7555 38.4042 20.757 38.7442 20.973 38.7672C21.486 38.8197 22.0025 38.8237 22.516 38.7782C22.7841 38.7702 23.0472 38.7031 23.2865 38.5817C27.418 41.7447 32.0995 41.9317 36.174 43.5317C36.7598 43.7257 37.2904 44.0576 37.721 44.4996C38.1517 44.9415 38.4698 45.4806 38.6485 46.0712C38.84 46.7352 38.9395 47.4227 38.9435 48.1137H26.6875C26.6425 48.114 26.5994 48.132 26.5676 48.1638C26.5357 48.1956 26.5177 48.2387 26.5175 48.2837L27.2535 53.8887C27.06 53.9302 26.8665 53.9727 26.674 54.0202V51.2247C26.6741 51.2023 26.6698 51.1802 26.6613 51.1595C26.6528 51.1388 26.6403 51.12 26.6245 51.1042C26.6087 51.0884 26.5899 51.0759 26.5692 51.0674C26.5485 51.0589 26.5263 51.0546 26.504 51.0547C26.4816 51.0547 26.4595 51.0591 26.4389 51.0676C26.4183 51.0762 26.3995 51.0887 26.3838 51.1045C26.368 51.1203 26.3555 51.139 26.3469 51.1596C26.3384 51.1803 26.334 51.2024 26.334 51.2247V54.1097C25.4258 54.3501 24.5347 54.6508 23.6665 55.0097C22.813 53.2327 21.9205 51.3597 20.2165 50.0842C18.8227 49.0952 17.1401 48.5968 15.4325 48.6672C14.3464 48.6741 13.2746 48.9144 12.2895 49.3717C10.7084 50.1386 9.3261 51.2606 8.25047 52.6502C7.68201 53.3263 7.20492 54.0742 6.83147 54.8747C4.82347 58.1097 2.29297 61.5922 2.51347 65.3747C2.62647 67.3217 3.43897 69.3247 5.07797 70.4722C6.09422 71.113 7.25976 71.4783 8.45997 71.5322C9.99273 71.6693 11.5362 71.6301 13.06 71.4152C14.041 72.1969 15.1662 72.7781 16.3715 73.1257C14.5663 73.2133 12.7943 73.6441 11.1505 74.3952C10.989 74.4692 11.08 74.7082 11.2365 74.7122L23.6865 75.0122C23.7236 75.0119 23.7595 74.9994 23.7888 74.9767C23.8182 74.954 23.8393 74.9224 23.849 74.8866C23.8587 74.8508 23.8564 74.8128 23.8425 74.7785C23.8286 74.7441 23.8038 74.7152 23.772 74.6962ZM28.631 22.6107C27.8609 23.2455 26.9199 23.6378 25.9269 23.7378C24.9339 23.8378 23.9335 23.6411 23.0523 23.1726C22.1711 22.704 21.4486 21.9847 20.9762 21.1056C20.5039 20.2264 20.3028 19.2269 20.3984 18.2335C20.4941 17.2401 20.8822 16.2973 21.5137 15.5245C22.1451 14.7516 22.9916 14.1834 23.946 13.8916C24.9004 13.5999 25.92 13.5977 26.8756 13.8853C27.8313 14.173 28.6802 14.7376 29.315 15.5077C30.1607 16.5426 30.5633 17.8697 30.4352 19.2C30.3071 20.5303 29.6586 21.7562 28.631 22.6107ZM14.631 28.5902L18.022 22.7692L21.4135 28.5902H14.631ZM23.2875 38.1277L23.278 38.1387C22.9479 37.8658 22.6351 37.5726 22.3415 37.2607C22.6589 37.2336 22.9759 37.3183 23.2375 37.5002C23.3271 37.5769 23.3827 37.686 23.3921 37.8036C23.4014 37.9212 23.3638 38.0378 23.2875 38.1277ZM47.6505 86.1502C43.6113 86.5107 39.5421 86.3307 35.5505 85.6152C37.0367 84.921 38.631 84.4869 40.264 84.3317C41.731 84.7312 43.2316 84.9952 44.747 85.1202C45.57 85.1957 45.351 85.1392 45.689 85.2702C46.3602 85.523 47.0153 85.8169 47.6505 86.1502ZM49.282 84.9312C44.2905 85.0137 37.882 84.4497 34.617 80.6347C34.4614 79.5865 34.4025 78.5262 34.441 77.4672C34.4623 76.5998 34.6579 75.7456 35.0161 74.9554C35.3743 74.1651 35.8878 73.455 36.526 72.8672C39.4155 70.1782 43.804 71.7847 45.099 75.9672C45.873 78.3377 45.6275 80.8427 45.7155 83.2972C45.724 83.5157 46.0655 83.5167 46.056 83.2972C45.97 81.0022 46.18 78.6787 45.5895 76.4312C44.3045 71.5347 39.7895 69.9867 36.8545 72.1682C36.1341 72.6947 35.5265 73.3602 35.0674 74.1253C34.6083 74.8905 34.3071 75.7398 34.1815 76.6232C34.0442 77.7834 34.0516 78.9563 34.2035 80.1147C32.5855 77.8837 31.6035 74.0752 31.3535 71.3317C31.1095 68.6457 31.2035 65.6572 33.0275 63.4967C34.938 61.2342 37.9395 60.2332 40.916 60.0287C40.748 60.1477 40.584 60.2732 40.427 60.4072C40.1005 60.6527 39.8333 60.9683 39.645 61.3307C39.6057 61.4051 39.5816 61.4865 39.5738 61.5703C39.5661 61.6541 39.575 61.7385 39.5999 61.8189C39.6248 61.8992 39.6654 61.9738 39.7192 62.0385C39.773 62.1032 39.839 62.1566 39.9135 62.1957C41.3175 62.8397 43.1375 61.6362 45.891 60.8267C46.15 60.7542 47.569 60.3727 47.907 60.2867C48.557 60.1902 52.9475 61.1292 55.664 62.5557C54.6353 62.3052 53.5546 62.3769 52.568 62.7609C51.5814 63.1449 50.7366 63.8227 50.148 64.7027C49.5015 65.6486 49.0674 66.7232 48.8755 67.8527C48.811 68.3277 48.7795 68.8067 48.78 69.2862C48.656 72.5662 48.8265 75.9427 49.8425 79.0862C50.4495 81.2146 51.652 83.1253 53.3085 84.5932C51.9778 84.8158 50.6311 84.9291 49.282 84.9322V84.9312ZM41.5185 60.0542C41.5885 60.0042 41.674 59.9807 41.76 59.9872C43.4807 59.9583 45.2018 60.0261 46.915 60.1902C43.4045 61.0807 42.4175 61.9502 40.9385 62.0162C40.6418 62.0477 40.3421 61.9992 40.0705 61.8757C40.0284 61.8567 39.9928 61.8257 39.9681 61.7867C39.9434 61.7477 39.9307 61.7024 39.9315 61.6562C39.9729 61.4241 40.0913 61.2128 40.2675 61.0562C40.6365 60.6662 41.0575 60.3292 41.5185 60.0542ZM68.36 77.4072C68.0935 78.9541 67.6895 80.4741 67.153 81.9492C65.8055 85.6107 62.369 86.6992 58.546 86.2117C57.3018 86.0541 56.0847 85.7287 54.928 85.2442C52.997 84.3147 51.628 82.4882 50.753 80.5297C49.514 77.7627 49.138 74.6462 49.0895 71.6422C49.068 70.2847 49.1335 68.6737 49.1715 68.1922C49.2642 67.4251 49.4797 66.6779 49.8095 65.9792C50.6025 64.1827 52.0985 62.9007 54.0525 62.8017C54.9862 62.6425 55.9463 62.8183 56.763 63.2982C57.58 63.7776 58.2014 64.5302 58.5175 65.4232C59.0025 66.5732 58.981 67.2812 59.1815 69.7317C59.1855 69.7817 59.7595 76.8657 59.7765 76.9157C59.7824 76.9575 59.8036 76.9955 59.8361 77.0225C59.8685 77.0495 59.9098 77.0635 59.952 77.0617C59.9942 77.0594 60.034 77.0414 60.0635 77.0111C60.0929 76.9808 60.1099 76.9405 60.111 76.8982C60.5735 73.6506 60.7515 70.3688 60.643 67.0902C60.6108 66.6794 60.6006 66.2671 60.6125 65.8552C60.6057 65.6838 60.6396 65.5133 60.7113 65.3575C60.783 65.2017 60.8905 65.0651 61.025 64.9587C61.1366 64.8738 61.2751 64.8321 61.4151 64.8413C61.555 64.8505 61.6869 64.9099 61.7865 65.0087C62.014 65.2942 62.1605 65.6352 62.2115 65.9967C62.3805 66.9237 62.4245 67.8692 62.342 68.8077C62.334 69.0267 62.674 69.0262 62.682 68.8077C62.702 68.2447 62.7055 67.6807 62.696 67.1172C63.3535 66.0222 65.042 66.1567 65.279 67.3972C65.294 67.5107 65.417 67.6277 65.535 67.5437C65.7354 67.3767 65.9881 67.2856 66.249 67.2862C66.445 67.3117 66.625 67.4092 66.753 67.5597C67.0305 67.8862 67.2035 68.2882 67.25 68.7137C67.2559 68.7352 67.266 68.7554 67.2797 68.773C67.2934 68.7907 67.3104 68.8055 67.3298 68.8165C67.3492 68.8276 67.3706 68.8347 67.3928 68.8375C67.4149 68.8402 67.4374 68.8386 67.459 68.8327C67.6101 68.795 67.7696 68.8105 67.9107 68.8765C68.0519 68.9425 68.166 69.055 68.234 69.1952C68.3885 69.5102 68.4835 69.8512 68.5145 70.2007C68.8675 72.5947 68.815 75.0307 68.36 77.4072ZM86.1955 39.3297C89.337 40.9862 91.607 44.0577 91.5245 47.7147C91.435 56.7972 84.155 64.1007 75.0885 61.7847C72.0465 60.9692 71.721 61.6432 69.5295 61.7847C69.2263 61.7928 68.9235 61.7591 68.6295 61.6847C68.3934 61.6307 68.1741 61.5197 67.991 61.3612C67.912 61.2787 67.8639 61.1714 67.8548 61.0576C67.8457 60.9437 67.8761 60.8302 67.941 60.7362C68.241 60.3152 68.668 60.2767 69.469 60.1072L72.428 59.4822C72.646 59.4362 72.549 59.1222 72.338 59.1542C71.1411 59.3363 69.9297 59.4046 68.72 59.3582C68.3757 59.3601 68.0323 59.3228 67.6965 59.2472C67.538 59.2156 67.3924 59.138 67.2779 59.0239C67.1634 58.9099 67.0851 58.7646 67.053 58.6062C67.033 58.3162 67.269 58.1382 67.508 58.0367C69.0607 57.4981 70.6501 57.0717 72.264 56.7607C72.3025 56.7487 72.3355 56.7235 72.3572 56.6894C72.3788 56.6553 72.3876 56.6147 72.382 56.5747C72.3764 56.5348 72.3572 56.498 72.3275 56.4707C72.2974 56.4437 72.2588 56.4281 72.2185 56.4267L68.4185 56.7267C68.0545 56.7892 67.6825 56.7892 67.3185 56.7267C67.0325 56.6477 66.7235 56.3897 66.851 56.0602C66.994 55.8148 67.2243 55.6323 67.496 55.5492C71.0075 54.0522 74.872 54.9197 78.4925 53.9832C79.8872 53.6985 81.1194 52.8893 81.935 51.7227C82.281 51.1907 82.4694 50.5717 82.4785 49.9372C82.4426 48.6661 81.9124 47.459 81.0005 46.5727C80.0175 45.6612 77.6725 44.6667 76.39 44.2782C74.852 43.8282 73.9725 43.9282 72.609 43.3472C71.8835 42.9835 71.2828 42.412 70.8833 41.7056C70.4838 40.9992 70.3037 40.1898 70.366 39.3807C70.4286 38.5715 70.7308 37.7993 71.234 37.1625C71.7373 36.5257 72.4187 36.0532 73.1915 35.8052C73.9992 35.5539 74.8634 35.5488 75.674 35.7907C79.281 36.6222 82.911 37.5462 86.1955 39.3297ZM60.6335 36.8037C60.4656 36.7694 60.3078 36.6972 60.1721 36.5926C60.0364 36.488 59.9264 36.3538 59.8505 36.2002C59.7843 35.7588 59.8876 35.3087 60.1395 34.9402C60.3604 34.5425 60.4325 34.0792 60.343 33.6332C60.12 32.8067 59.315 32.3182 58.905 31.5997C58.3945 30.7042 58.834 29.6187 59.4975 28.9332C59.6626 28.734 59.871 28.5751 60.1067 28.4684C60.3424 28.3618 60.5993 28.3102 60.858 28.3177C61.4175 28.3677 61.929 28.6447 62.4915 28.6932C63.646 28.7932 64.675 28.1647 65.732 27.8137C66.532 27.5487 67.596 27.3872 68.3095 27.9532C68.98 28.4857 68.995 29.4457 69.4485 30.1232C69.5714 30.3124 69.7347 30.4719 69.9266 30.5905C70.1185 30.709 70.3343 30.7835 70.5585 30.8087C71.1767 30.866 71.7991 30.8593 72.416 30.7887C73.3335 30.7452 74.5455 30.8447 75.0235 31.7762C75.4035 32.5167 75.0515 33.6562 75.987 34.0572C76.5496 34.2334 77.1446 34.2809 77.728 34.1962C78.2731 34.1351 78.8242 34.1508 79.365 34.2427C79.8342 34.3226 80.2528 34.585 80.529 34.9727C80.792 35.3862 80.9065 35.8842 81.3095 36.1972C81.776 36.5587 82.6965 36.6472 82.672 37.3972C79.105 36.0972 75.4595 35.4437 74.157 35.0882C71.6515 34.4047 68.584 34.1067 66.2355 34.6622C64.6105 35.0266 63.1515 35.9178 62.0855 37.1972C61.6093 37.0387 61.1245 36.9073 60.6335 36.8037ZM65.0835 35.3957C64.9465 35.7652 64.838 36.1457 64.6765 36.5042C64.6094 36.7054 64.495 36.8877 64.3429 37.0356C64.1908 37.1835 64.0055 37.2927 63.8025 37.3542C63.382 37.4232 63.1915 36.9737 63.098 36.6287C63.6876 36.1107 64.359 35.694 65.085 35.3957H65.0835ZM60.6615 41.1887C60.9034 39.5727 61.653 38.0755 62.802 36.9137C62.8799 37.1971 63.0595 37.4418 63.3065 37.6012C63.4805 37.6813 63.6732 37.7122 63.8636 37.6907C64.0539 37.6691 64.2348 37.5958 64.3865 37.4787C65.107 36.9362 65.1805 35.9672 65.557 35.2122C68.057 34.3752 71.2155 34.6922 73.739 35.3312C72.7601 35.4875 71.8622 35.9681 71.1893 36.696C70.5165 37.4238 70.1077 38.3566 70.0286 39.3447C69.9495 40.3328 70.2048 41.3187 70.7533 42.1443C71.3019 42.9699 72.112 43.5873 73.0535 43.8972C74.036 44.1887 75.2765 44.2547 76.8455 44.7827C77.993 45.1838 79.095 45.705 80.133 46.3377C81.6905 47.3167 82.6045 49.5137 81.866 51.1332C80.2305 54.7187 74.4355 53.8782 70.434 54.4332C65.618 49.6237 64.1725 48.3087 62.082 45.5002C61.505 44.7486 61.0625 43.9028 60.774 43.0002C60.6067 42.4115 60.5688 41.7935 60.663 41.1887H60.6615ZM45.17 36.1542C45.1697 36.1092 45.1517 36.0661 45.1199 36.0343C45.0881 36.0025 45.045 35.9845 45 35.9842C43.1235 36.0052 39.9785 36.1377 37.988 35.9457C37.4734 35.9429 36.9723 35.7814 36.553 35.4832C36.3694 35.3482 36.2417 35.1507 36.194 34.9279C36.1462 34.7051 36.1818 34.4725 36.294 34.2742C36.5974 33.8512 37.0349 33.5432 37.5355 33.4002C38.0454 33.2403 38.5694 33.1296 39.1005 33.0697C39.2735 33.0447 39.2505 32.7822 39.1005 32.7417C38.4166 32.6381 37.7841 32.3173 37.2965 31.8267C37.1979 31.7207 37.1219 31.5958 37.073 31.4596C37.0241 31.3234 37.0033 31.1786 37.012 31.0342C37.0206 30.8897 37.0585 30.7485 37.1233 30.619C37.1881 30.4896 37.2785 30.3747 37.389 30.2812C37.8444 29.9869 38.3838 29.8499 38.9245 29.8912C40.513 29.9302 42.07 30.3427 43.4695 31.0957C43.5052 31.115 43.5466 31.121 43.5864 31.1126C43.6261 31.1042 43.6616 31.0818 43.6864 31.0497C43.7111 31.0175 43.7237 30.9775 43.7217 30.9369C43.7197 30.8963 43.7033 30.8578 43.6755 30.8282C43.1812 30.3077 42.7219 29.7552 42.3005 29.1742C41.9979 28.8283 41.8323 28.3837 41.835 27.9242C41.8965 27.4507 42.3655 27.3242 42.7675 27.3982C43.2594 27.4969 43.7303 27.6809 44.159 27.9417C45.6969 28.7782 47.1292 29.7955 48.4255 30.9722C48.8195 31.3057 49.21 31.6437 49.597 31.9862C49.28 32.329 49.0038 32.7073 48.774 33.1137C47.5988 32.7159 46.317 32.7745 45.183 33.2777C44.983 33.3662 45.156 33.6592 45.3545 33.5712C46.4498 33.0926 47.6887 33.0603 48.8075 33.4812C48.8436 33.4917 48.8822 33.4898 48.9172 33.4759C48.9522 33.4619 48.9815 33.4367 49.0005 33.4042C49.2434 32.9526 49.5448 32.535 49.897 32.1622C49.9388 32.0922 49.9611 32.0123 49.9615 31.9307C49.9675 30.8757 50.052 29.8232 50.2145 28.7807C50.2805 28.4101 50.432 28.06 50.657 27.7582C50.907 27.4014 51.279 27.1485 51.7027 27.0472C52.1264 26.9459 52.5726 27.0031 52.957 27.2082C53.173 27.3842 53.3355 27.6172 53.426 27.8807C55.056 32.1527 52.991 42.0352 54.4355 44.4807C54.64 44.8442 54.9279 45.154 55.2755 45.3847C55.6231 45.6153 56.0205 45.7601 56.435 45.8072C56.8495 45.8542 57.2692 45.8021 57.6596 45.6551C58.05 45.5081 58.3999 45.2704 58.6805 44.9617C59.4435 44.2109 59.9999 43.2759 60.296 42.2472C60.4294 43.2775 60.8106 44.2601 61.407 45.1107C62.7157 46.9809 64.1997 48.7222 65.839 50.3107C65.1868 51.1891 64.4592 52.0088 63.6645 52.7607C62.9195 53.4947 62.0601 54.1026 61.12 54.5607C56.92 56.3282 52.015 54.7332 48.704 51.4237C47.5873 50.3193 46.8071 48.9206 46.454 47.3902C45.432 43.7807 45.27 39.9662 45.17 36.1542ZM26.8855 48.4552H38.9505C38.9575 49.3877 38.9065 50.1387 38.965 51.2787C38.9657 51.3194 38.9811 51.3585 39.0082 51.3889C39.0352 51.4193 39.0723 51.439 39.1127 51.4444C39.153 51.4499 39.194 51.4407 39.2282 51.4185C39.2623 51.3964 39.2874 51.3628 39.299 51.3237C39.6129 50.3902 39.8415 49.4301 39.982 48.4552H46.443C46.7375 49.3338 47.1824 50.1545 47.758 50.8807C50.5025 54.2842 55.682 56.5917 60.3395 55.1967C62.718 54.4837 64.577 52.5252 66.0765 50.5467C67.38 51.8697 68.6995 53.1782 70.0145 54.4902C69.1387 54.6343 68.2809 54.8721 67.456 55.1997C66.948 55.4127 66.2855 55.8232 66.5325 56.4792C66.8135 57.2262 67.76 57.1197 68.3895 57.0697C69.52 56.9797 69.932 56.9477 69.932 56.9477C69.932 56.9477 69.778 56.9822 69.588 57.0337C69.157 57.1512 68.731 57.2867 68.301 57.4097C67.942 57.5072 67.591 57.6322 67.251 57.7827C67.1121 57.8452 66.9908 57.9412 66.8981 58.0621C66.8053 58.1829 66.744 58.3248 66.7195 58.4752C66.7065 58.6502 66.741 58.8257 66.82 58.9827C66.8985 59.1397 67.0175 59.2727 67.1655 59.3672C67.4714 59.5562 67.8224 59.6597 68.182 59.6672C68.7235 59.7112 69.2105 59.7122 69.72 59.7047C69.252 59.7812 68.7895 59.8907 68.337 60.0327C68.072 60.0985 67.8425 60.2636 67.6958 60.4938C67.5491 60.724 67.4963 61.0017 67.5485 61.2697C67.706 61.7742 68.3285 61.9847 68.7945 62.0697C70.1805 62.3197 71.503 61.6322 73.0395 61.7402C74.772 74.9367 74.975 76.5307 74.9895 76.6457H68.8255C69.213 74.2882 69.181 71.8807 68.73 69.5347C68.6969 69.2438 68.5588 68.9749 68.3417 68.7785C68.1246 68.582 67.8432 68.4715 67.5505 68.4677C67.366 67.3857 66.4905 66.5587 65.5565 67.1282C65.4498 66.8518 65.2732 66.6077 65.0441 66.4198C64.8149 66.2319 64.541 66.1067 64.249 66.0562C63.957 66.0058 63.657 66.0318 63.378 66.1315C63.099 66.2312 62.8504 66.4012 62.6565 66.6252C62.6299 66.0566 62.475 65.5014 62.2035 65.0012C62.1264 64.8569 62.0134 64.7349 61.8753 64.6471C61.7373 64.5594 61.5789 64.5087 61.4155 64.5002C61.2189 64.5034 61.0269 64.5597 60.8597 64.663C60.6925 64.7663 60.5563 64.9129 60.4655 65.0872C60.128 65.8647 60.295 66.3637 60.326 67.8452C60.3785 70.3257 60.263 72.8072 59.979 75.2722C59.888 74.1597 59.39 67.8187 59.291 67.0272C58.9565 64.0742 57.026 62.6587 54.278 61.5597C50.4135 60.0332 48.0185 59.8467 44.146 59.6792C40.515 59.5217 37.1065 59.7622 34.0925 62.0247C31.753 63.7712 30.9775 66.1287 30.9255 69.0247C30.8869 71.6177 31.3046 74.1973 32.1595 76.6457H30.582L28.632 61.7897C29.0165 61.3562 29.412 60.8897 30.041 60.8967C30.666 60.9847 31.27 61.1807 31.827 61.4767C32.0935 61.6006 32.3842 61.6639 32.6782 61.662C32.9722 61.6601 33.262 61.5931 33.527 61.4657C33.745 61.3401 33.9122 61.1423 33.9997 60.9064C34.0871 60.6706 34.0894 60.4115 34.006 60.1742C33.895 59.9616 33.7367 59.7772 33.5435 59.6352C33.1579 59.3105 32.7455 59.0193 32.3105 58.7647C33.1205 59.0307 33.928 59.3437 34.685 58.8012C34.9026 58.6487 35.0539 58.4191 35.1082 58.1591C35.1626 57.899 35.1158 57.628 34.9775 57.4012C34.672 56.9652 34.0275 56.8187 33.5575 56.6512C33.194 56.5238 32.8272 56.4059 32.4575 56.2977C33.3473 56.2917 34.2358 56.2302 35.118 56.1137C36.1945 55.9327 36.659 55.0747 35.555 54.3202C34.652 53.7032 33.4465 53.5997 32.386 53.5177C30.7808 53.397 29.1666 53.4979 27.589 53.8177C27.4955 53.1437 26.8975 48.5442 26.8855 48.4552ZM16.8505 49.1002C17.081 49.1077 17.308 49.1602 17.519 49.2537C17.7205 49.3857 17.906 49.5402 18.0725 49.7142C18.908 50.5722 18.6495 51.2377 18.136 51.3982C18.1505 51.3947 18.1655 51.3902 18.1805 51.3857C17.9445 51.4522 17.6955 51.4567 17.457 51.3992C16.2755 51.1317 15.607 49.7352 14.3635 49.0992C15.1878 48.9748 16.0262 48.9751 16.8505 49.1002ZM13.143 49.4002C13.3495 49.3277 13.56 49.2682 13.7735 49.2222C13.8775 49.2462 13.977 49.2857 14.069 49.3402C15.2625 49.8997 15.8995 51.2527 17.1735 51.6787C18.7145 52.1947 19.6915 50.8567 18.336 49.4727C21.036 50.4227 22.1755 52.7122 23.3605 55.1397C21.0788 56.1296 18.9647 57.4677 17.0935 59.1062C15.8935 60.1507 14.181 62.2012 13.274 61.9762C13.593 61.1802 14.381 59.6997 14.6765 59.1732C15.1715 58.2772 15.3439 57.2383 15.1647 56.2304C14.9855 55.2225 14.4656 54.3068 13.6921 53.6363C12.9185 52.9658 11.9382 52.5813 10.9151 52.547C9.89196 52.5128 8.88812 52.8309 8.07147 53.4482C9.68897 51.2052 11.521 49.9502 13.1435 49.4002H13.143ZM10.5285 71.2662C9.3678 71.3111 8.20608 71.2103 7.07047 70.9662C3.70447 70.2132 1.46647 66.0832 3.84047 60.7067C4.63918 59.0512 5.55362 57.4541 6.57697 55.9272C6.86292 55.4212 7.1757 54.9308 7.51397 54.4582C8.15428 53.641 9.07878 53.0949 10.1035 52.9285C11.1282 52.7621 12.178 52.9877 13.044 53.5602C13.91 54.1328 14.5286 55.0104 14.7768 56.0185C15.025 57.0265 14.8846 58.091 14.3835 59.0002C14.108 59.4917 13.8575 59.9972 13.5945 60.4952C13.3277 60.9906 13.0938 61.503 12.8945 62.0292C12.8848 62.0654 12.8872 62.1037 12.9014 62.1384C12.9156 62.1731 12.9407 62.2022 12.973 62.2212C13.553 62.5472 14.246 62.1032 14.707 61.7602C16.691 60.1907 17.407 58.6922 21.37 56.5012C25.14 54.3617 29.579 53.3172 33.82 54.0392C34.3586 54.1156 34.8755 54.3028 35.338 54.5892C35.541 54.7172 35.806 54.9042 35.8415 55.1622C35.8476 55.2498 35.8275 55.3372 35.7838 55.4133C35.74 55.4894 35.6747 55.5508 35.596 55.5897C35.1456 55.7965 34.6527 55.8943 34.1575 55.8752C32.649 55.9897 31.6815 55.9752 31.23 55.9822C31.1897 55.9838 31.1513 55.9995 31.1214 56.0265C31.0915 56.0536 31.0721 56.0903 31.0665 56.1302C31.0609 56.1702 31.0697 56.2108 31.0913 56.2449C31.1129 56.279 31.1459 56.3042 31.1845 56.3162C32.3072 56.5733 33.4044 56.9316 34.4625 57.3867C34.56 57.4447 34.6414 57.5264 34.6991 57.6242C34.7567 57.722 34.7889 57.8327 34.7925 57.9462C34.7958 58.0597 34.7703 58.1722 34.7184 58.2732C34.6664 58.3742 34.5897 58.4604 34.4955 58.5237C34.2734 58.6576 34.0233 58.7382 33.7649 58.7591C33.5064 58.78 33.2467 58.7407 33.006 58.6442C32.4085 58.3993 31.777 58.2476 31.1335 58.1942C30.98 58.1987 30.8835 58.4407 31.048 58.5112C31.8809 58.8628 32.6562 59.3376 33.348 59.9197C33.533 60.0427 33.6695 60.2272 33.7335 60.4402C33.7469 60.5662 33.7282 60.6936 33.6791 60.8104C33.6299 60.9272 33.552 61.0297 33.4525 61.1082C32.293 61.9862 30.747 59.9852 29.3025 60.7332C28.8224 61.0537 28.4028 61.4566 28.063 61.9232C27.216 62.8732 26.3865 63.8397 25.4995 64.7532C23.5582 66.774 21.2357 68.3901 18.6661 69.5079C16.0965 70.6257 13.3308 71.2232 10.529 71.2657L10.5285 71.2662ZM13.5285 71.3452C15.2926 71.0658 17.0159 70.5716 18.66 69.8737C22.2465 68.3557 24.781 66.2037 27.2295 63.3692C27.5975 62.9552 27.964 62.5397 28.333 62.1262L29.554 71.4227C28.1002 72.3396 26.4697 72.9403 24.7685 73.1857C22.6701 73.5191 20.534 73.5403 18.4295 73.2487C16.6673 73.0167 14.9868 72.3636 13.5305 71.3447L13.5285 71.3452ZM12.0315 74.3917C13.8241 73.6958 15.7411 73.3771 17.6625 73.4557C18.474 73.6152 19.2965 73.7167 20.1225 73.7587C21.0775 73.9527 22.008 74.2532 22.8965 74.6542L12.0315 74.3917Z" fill="black"/>
<path d="M61.1631 84.5588C60.3821 84.5548 59.6016 84.5348 58.8206 84.5468C58.7983 84.5467 58.7762 84.5511 58.7556 84.5597C58.735 84.5683 58.7163 84.5809 58.7006 84.5968C58.6847 84.6124 58.6721 84.6311 58.6635 84.6517C58.6548 84.6723 58.6504 84.6944 58.6504 84.7168C58.6504 84.7391 58.6548 84.7612 58.6635 84.7818C58.6721 84.8024 58.6847 84.8211 58.7006 84.8368C58.7321 84.8688 58.7756 84.8868 58.8206 84.8868C59.6016 84.8908 60.3821 84.9108 61.1631 84.8993C61.2066 84.8966 61.2475 84.8775 61.2775 84.8459C61.3075 84.8142 61.3243 84.7724 61.3246 84.7288C61.3247 84.6851 61.3079 84.6431 61.2779 84.6115C61.2478 84.5798 61.2067 84.5609 61.1631 84.5588Z" fill="black"/>
<path d="M65.451 68.3374C65.5098 68.6955 65.5027 69.0613 65.43 69.4169C65.4217 69.4592 65.4295 69.5032 65.452 69.54C65.4745 69.5768 65.51 69.6039 65.5515 69.6159C65.5933 69.6274 65.6378 69.6226 65.6762 69.6025C65.7146 69.5823 65.7438 69.5483 65.758 69.5074C65.8604 69.0942 65.8676 68.6632 65.779 68.2469C65.7295 68.0334 65.401 68.1239 65.451 68.3374Z" fill="black"/>
<path d="M67.3739 69.0703C67.3964 69.3843 67.3964 69.6988 67.3739 70.0128C67.3539 70.2303 67.6939 70.2288 67.7139 70.0128C67.7364 69.6988 67.7364 69.3843 67.7139 69.0703C67.7009 68.8518 67.3624 68.8513 67.3739 69.0703Z" fill="black"/>
<path d="M43.1883 57.4195C43.6221 57.7754 44.1759 57.9514 44.7356 57.9113C45.2953 57.8711 45.8183 57.6178 46.1968 57.2035C46.468 56.8661 46.6404 56.4602 46.6951 56.0307C46.7497 55.6013 46.6843 55.1651 46.5063 54.7705C46.3281 54.376 46.044 54.0386 45.6857 53.7957C45.3274 53.5528 44.9087 53.414 44.4763 53.3945C42.6213 53.414 41.8068 56.2245 43.1883 57.4195ZM44.1613 53.7725C45.6848 53.446 46.8898 55.2345 46.1538 56.678C45.9514 57.0178 45.645 57.2833 45.2799 57.4353C44.9148 57.5873 44.5105 57.6177 44.1268 57.522C43.8723 57.4584 43.6343 57.3411 43.4288 57.178C42.3723 56.3035 42.7558 54.0735 44.1613 53.7725Z" fill="black"/>
<path d="M43.3197 52.6803C43.9327 52.6523 45.9552 52.5553 46.3537 52.5353C46.7637 52.5133 47.3632 52.5353 47.4912 52.0393C47.5127 51.9627 47.5134 51.8818 47.4932 51.8049C47.473 51.728 47.4326 51.6579 47.3762 51.6018C47.2388 51.4958 47.0691 51.4407 46.8957 51.4458C46.7077 51.433 46.5191 51.4361 46.3317 51.4553C46.4937 51.3278 46.6477 51.1908 46.7932 51.0448C46.9295 50.9303 47.0244 50.7742 47.0635 50.6005C47.1025 50.4268 47.0834 50.2451 47.0092 50.0833C46.9069 49.9492 46.762 49.8541 46.5983 49.8136C46.4347 49.7732 46.2621 49.7898 46.1092 49.8608C45.9617 49.9093 45.8192 49.9708 45.6822 50.0453C45.8434 49.7404 45.9025 49.3918 45.8507 49.0508C45.826 48.9336 45.7559 48.831 45.6557 48.7653C45.5556 48.6997 45.4334 48.6765 45.3162 48.7008C45.2011 48.7333 45.0941 48.7893 45.0019 48.8654C44.9097 48.9415 44.8344 49.036 44.7807 49.1428C44.1038 50.1789 43.5578 51.2949 43.1552 52.4653C43.1484 52.4906 43.1476 52.517 43.1527 52.5427C43.1578 52.5683 43.1687 52.5924 43.1846 52.6132C43.2005 52.634 43.2209 52.6508 43.2443 52.6624C43.2678 52.6741 43.2935 52.6802 43.3197 52.6803ZM45.0752 49.3143C45.1487 49.2023 45.2492 49.0343 45.4017 49.0313C45.5792 49.0278 45.5337 49.3013 45.5182 49.4123C45.4366 49.7957 45.2824 50.16 45.0637 50.4853C45.0419 50.5251 45.0369 50.5719 45.0496 50.6154C45.0624 50.6589 45.0919 50.6955 45.1317 50.7173C45.3362 50.8283 45.3582 50.5173 46.0997 50.2243C46.2882 50.1518 46.6662 50.0393 46.7417 50.3193C46.8172 50.5993 46.5532 50.8163 46.3697 50.9693C46.1047 51.1913 45.8362 51.4098 45.5697 51.6298C45.4352 51.7403 45.5797 51.9598 45.7347 51.9138C46.0589 51.8166 46.3963 51.7705 46.7347 51.7773C46.8412 51.7773 47.0482 51.7608 47.1347 51.8413C47.2312 51.9318 47.1042 52.0688 47.0207 52.1093C46.8607 52.1668 46.6907 52.1923 46.5207 52.1848C46.3847 52.1923 43.6797 52.3223 43.5707 52.3273C43.946 51.2647 44.4513 50.2527 45.0752 49.3143Z" fill="black"/>
<path d="M30.5334 83.3013V77.5098C30.5335 77.4875 30.5292 77.4653 30.5207 77.4446C30.5122 77.424 30.4997 77.4052 30.4839 77.3893C30.4681 77.3735 30.4493 77.361 30.4286 77.3525C30.4079 77.344 30.3857 77.3397 30.3634 77.3398C30.341 77.3398 30.3189 77.3442 30.2983 77.3528C30.2777 77.3613 30.2589 77.3739 30.2432 77.3896C30.2274 77.4054 30.2148 77.4242 30.2063 77.4448C30.1978 77.4654 30.1934 77.4875 30.1934 77.5098V83.3013C30.1932 83.3237 30.1975 83.3459 30.206 83.3666C30.2145 83.3872 30.227 83.406 30.2429 83.4218C30.2587 83.4377 30.2775 83.4502 30.2981 83.4587C30.3188 83.4672 30.341 83.4715 30.3634 83.4713C30.4084 83.4713 30.4517 83.4534 30.4836 83.4216C30.5155 83.3897 30.5334 83.3464 30.5334 83.3013Z" fill="black"/>
<path d="M75.1826 77.215C75.1395 77.2165 75.0987 77.2343 75.0682 77.2647C75.0378 77.2952 75.02 77.336 75.0186 77.379V83.2995C75.0186 83.3445 75.0366 83.388 75.0686 83.4195C75.0842 83.4354 75.1029 83.4481 75.1235 83.4567C75.1441 83.4653 75.1662 83.4698 75.1886 83.4698C75.2109 83.4698 75.233 83.4653 75.2536 83.4567C75.2742 83.4481 75.2929 83.4354 75.3086 83.4195C75.3406 83.388 75.3586 83.3445 75.3586 83.2995V77.379C75.358 77.3567 75.3529 77.3347 75.3436 77.3143C75.3343 77.2939 75.321 77.2757 75.3046 77.2605C75.2884 77.2451 75.2692 77.2331 75.2482 77.2252C75.2273 77.2174 75.2049 77.214 75.1826 77.215Z" fill="black"/>
<path d="M91.4187 75.9861C90.9961 75.4773 90.7123 74.8679 90.5947 74.2171C90.5262 73.8406 88.7447 58.5306 88.7377 58.4786C88.7137 58.2636 88.3737 58.2611 88.3977 58.4786C88.6427 60.7236 90.2342 74.1556 90.2847 74.3996C90.487 75.2781 90.9384 76.0796 91.5847 76.7081C92.6537 77.9221 97.2197 83.4171 97.2197 83.4171C97.3607 83.5846 97.6002 83.3431 97.4602 83.1766C97.3647 83.0651 91.6477 76.2606 91.4187 75.9861Z" fill="black"/>
<path d="M84.3868 83.2138C84.2478 83.0328 79.5458 76.8488 79.2903 76.5138C78.8903 75.9883 78.3373 75.4443 78.2843 74.7553C78.2638 74.3953 78.2683 74.0338 78.2968 73.6743C78.3193 73.2978 78.8058 63.1638 78.8163 62.9918C78.8288 62.7733 78.4888 62.7738 78.4758 62.9918C78.2968 66.0233 77.9638 73.5883 77.9333 74.3363C77.9154 74.6679 77.9646 74.9997 78.0778 75.3119C78.191 75.6241 78.366 75.9102 78.5923 76.1533C79.4788 77.2738 84.0923 83.3863 84.0923 83.3863C84.2238 83.5573 84.5193 83.3878 84.3868 83.2138Z" fill="black"/>
<path d="M69.5013 77.333L68.2213 83.2515C68.1748 83.465 68.5028 83.556 68.5488 83.342L69.8288 77.4235C69.8758 77.21 69.5478 77.119 69.5013 77.333Z" fill="black"/>
<path d="M79.8556 83.3433L80.6706 79.2013C80.7126 78.9878 80.3851 78.8958 80.3426 79.1108L79.5271 83.2528C79.4851 83.4668 79.8131 83.5583 79.8556 83.3433Z" fill="black"/>
<path d="M14.7302 43.1452C14.541 42.7629 14.2388 42.4481 13.8645 42.2435C13.4903 42.0389 13.0621 41.9545 12.6382 42.0017C12.3032 42.0212 12.2072 42.1287 11.8852 42.0122C11.4382 41.8502 11.0572 41.5937 10.6852 41.8897C10.5032 42.1084 10.4117 42.3883 10.4292 42.6722C10.122 42.6263 9.80806 42.6766 9.53055 42.8161C9.25303 42.9557 9.0255 43.1777 8.87917 43.4517C8.58953 44.0007 8.41112 44.6016 8.35417 45.2197C8.22999 45.622 8.19252 46.046 8.24423 46.4639C8.29594 46.8817 8.43566 47.2838 8.65417 47.6437C9.63117 49.0397 11.8267 48.2527 14.8747 47.9672C14.9152 47.9655 14.9537 47.9495 14.9836 47.9221C15.0134 47.8947 15.0326 47.8576 15.0376 47.8174C15.0427 47.7772 15.0334 47.7365 15.0114 47.7025C14.9893 47.6685 14.956 47.6434 14.9172 47.6317C14.6457 47.5387 14.5937 47.2257 14.6132 46.9747C14.6597 46.4062 15.4717 44.6052 14.7302 43.1452ZM14.4622 46.1142C14.3408 46.4573 14.2791 46.8187 14.2797 47.1827C14.2927 47.3577 14.3502 47.5272 14.4472 47.6737C12.8787 47.8497 12.1392 48.0277 10.6037 48.1102C10.1195 48.1423 9.63788 48.018 9.22967 47.7557C8.54767 47.2357 8.51217 46.2897 8.64917 45.5192C8.71467 44.9757 8.84017 44.4407 9.02267 43.9247C9.12767 43.6397 9.31017 43.3887 9.55017 43.2017C9.69686 43.1075 9.8608 43.0434 10.0325 43.0131C10.2041 42.9828 10.3801 42.9869 10.5502 43.0252C10.5946 43.0363 10.6416 43.0294 10.6809 43.006C10.7203 42.9825 10.7487 42.9445 10.7602 42.9002C10.7777 42.8297 10.7072 42.0417 11.0747 42.0932C11.3369 42.16 11.5934 42.2477 11.8417 42.3552C12.0899 42.4021 12.345 42.3983 12.5917 42.3442C12.994 42.287 13.4037 42.3688 13.7532 42.576C14.1028 42.7832 14.3712 43.1034 14.5142 43.4837C14.7751 44.344 14.7569 45.2649 14.4622 46.1142Z" fill="black"/>
<path d="M89.1119 53.3363C89.4203 52.7416 89.6494 52.109 89.7934 51.4548C89.8399 51.2413 89.5119 51.1503 89.4649 51.3643C89.329 51.99 89.1117 52.5951 88.8184 53.1643C88.7184 53.3588 89.0114 53.5308 89.1119 53.3363Z" fill="black"/>
<path d="M55.9417 54.3986H57.8417C57.8867 54.3986 57.9302 54.3806 57.9617 54.3486C57.9776 54.3329 57.9902 54.3142 57.9988 54.2936C58.0075 54.273 58.0119 54.2509 58.0119 54.2286C58.0119 54.2063 58.0075 54.1842 57.9988 54.1636C57.9902 54.143 57.9776 54.1243 57.9617 54.1086C57.946 54.0927 57.9273 54.0801 57.9067 54.0716C57.8861 54.063 57.864 54.0586 57.8417 54.0586H55.9417C55.9194 54.0586 55.8973 54.063 55.8767 54.0716C55.8561 54.0801 55.8374 54.0927 55.8217 54.1086C55.8058 54.1243 55.7932 54.143 55.7845 54.1636C55.7759 54.1842 55.7715 54.2063 55.7715 54.2286C55.7715 54.2509 55.7759 54.273 55.7845 54.2936C55.7932 54.3142 55.8058 54.3329 55.8217 54.3486C55.8532 54.3806 55.8967 54.3986 55.9417 54.3986Z" fill="black"/>
<path d="M74.4268 56.1418L73.4173 56.2488C73.2018 56.2713 73.1998 56.6118 73.4173 56.5888L74.4268 56.4818C74.6418 56.4588 74.6443 56.1183 74.4268 56.1418Z" fill="black"/>
<path d="M74.6589 58.9609H73.6009C73.5786 58.9609 73.5565 58.9653 73.5359 58.9739C73.5153 58.9825 73.4966 58.9951 73.4809 59.0109C73.465 59.0266 73.4523 59.0453 73.4437 59.0659C73.4351 59.0865 73.4307 59.1086 73.4307 59.1309C73.4307 59.1533 73.4351 59.1754 73.4437 59.196C73.4523 59.2166 73.465 59.2353 73.4809 59.2509C73.5124 59.2829 73.5559 59.3009 73.6009 59.3009H74.6579C74.7029 59.3009 74.7464 59.2829 74.7779 59.2509C74.7938 59.2353 74.8064 59.2166 74.815 59.196C74.8237 59.1754 74.8281 59.1533 74.8281 59.1309C74.8281 59.1086 74.8237 59.0865 74.815 59.0659C74.8064 59.0453 74.7938 59.0266 74.7779 59.0109C74.7622 58.9951 74.7435 58.9825 74.7229 58.9739C74.7023 58.9653 74.6802 58.9609 74.6579 58.9609H74.6589Z" fill="black"/>
<path d="M13.4874 43.7034C12.5779 42.9489 11.0809 43.6229 10.5984 44.5709C10.4399 44.875 10.3932 45.2251 10.4663 45.5601C10.5394 45.8952 10.7277 46.194 10.9984 46.4044C11.2018 46.5902 11.4446 46.7276 11.7086 46.8062C11.9726 46.8848 12.251 46.9026 12.5229 46.8583C12.7948 46.814 13.0531 46.7087 13.2785 46.5504C13.5039 46.392 13.6905 46.1847 13.8244 45.9439C14.0206 45.5849 14.0938 45.1715 14.033 44.767C13.9721 44.3624 13.7805 43.9889 13.4874 43.7034ZM13.7064 45.2339C13.6724 45.5202 13.5564 45.7906 13.3722 46.0124C13.188 46.2342 12.9436 46.3979 12.6684 46.4839C11.6319 46.7804 10.5259 45.9064 10.8304 44.8889C11.0081 44.4613 11.3413 44.117 11.7629 43.9254C11.9543 43.8191 12.166 43.7544 12.3842 43.7354C12.6023 43.7165 12.822 43.7437 13.0289 43.8154C13.2725 43.9551 13.4679 44.1656 13.5889 44.419C13.7099 44.6724 13.7509 44.9567 13.7064 45.2339Z" fill="black"/>
<path d="M49.2773 18.0218V24.9448C49.2797 24.9884 49.2987 25.0294 49.3303 25.0594C49.362 25.0894 49.404 25.1061 49.4476 25.1061C49.4912 25.1061 49.5332 25.0894 49.5648 25.0594C49.5965 25.0294 49.6155 24.9884 49.6178 24.9448V18.0218C49.6178 17.9767 49.5999 17.9334 49.568 17.9014C49.536 17.8695 49.4927 17.8516 49.4476 17.8516C49.4024 17.8516 49.3591 17.8695 49.3272 17.9014C49.2953 17.9334 49.2773 17.9767 49.2773 18.0218Z" fill="black"/>
<path d="M45.8313 22.3115C45.7994 22.2796 45.7562 22.2617 45.7111 22.2617C45.666 22.2617 45.6227 22.2796 45.5908 22.3115C45.5589 22.3434 45.541 22.3867 45.541 22.4318C45.541 22.4769 45.5589 22.5201 45.5908 22.552L48.2868 25.2475C48.3191 25.2774 48.3617 25.2936 48.4057 25.2928C48.4497 25.2919 48.4916 25.274 48.5227 25.2429C48.5538 25.2118 48.5716 25.1698 48.5723 25.1258C48.5731 25.0818 48.5568 25.0392 48.5268 25.007C47.6431 24.0939 46.7444 23.1953 45.8313 22.3115Z" fill="black"/>
<path d="M52.6433 22.5654C51.7931 23.3897 50.9568 24.2281 50.1348 25.0804C50.119 25.0962 50.1065 25.115 50.0979 25.1356C50.0894 25.1562 50.085 25.1784 50.085 25.2007C50.085 25.223 50.0894 25.2451 50.0979 25.2658C50.1065 25.2864 50.119 25.3051 50.1348 25.3209C50.1506 25.3367 50.1693 25.3493 50.1899 25.3578C50.2106 25.3663 50.2327 25.3707 50.255 25.3707C50.2774 25.3707 50.2995 25.3663 50.3201 25.3578C50.3407 25.3493 50.3595 25.3367 50.3753 25.3209L52.8838 22.8059C52.9157 22.774 52.9336 22.7308 52.9336 22.6857C52.9336 22.6406 52.9157 22.5973 52.8838 22.5654C52.8519 22.5335 52.8086 22.5156 52.7635 22.5156C52.7184 22.5156 52.6752 22.5335 52.6433 22.5654Z" fill="black"/>
<path d="M29.0123 30.8385C29.3003 30.8305 29.3373 30.8235 29.3458 30.525C29.3543 30.2265 29.3493 29.5195 29.3378 27.795C29.3374 27.7501 29.3195 27.7072 29.2878 27.6754C29.2561 27.6436 29.2132 27.6255 29.1683 27.625H26.3028C26.258 27.6258 26.2152 27.6439 26.1835 27.6756C26.1517 27.7074 26.1336 27.7502 26.1328 27.795V30.66C26.1335 30.7049 26.1516 30.7478 26.1833 30.7795C26.2151 30.8112 26.2579 30.8294 26.3028 30.83C27.9863 30.842 28.7003 30.849 29.0123 30.8385ZM26.4728 27.965H29.0003V30.49H26.4753L26.4728 27.965Z" fill="black"/>
<path d="M5.54512 42.684C4.93556 43.9053 4.70271 45.2801 4.87612 46.634C4.87726 46.6787 4.89553 46.7213 4.92717 46.753C4.95881 46.7846 5.00139 46.8029 5.04612 46.804C5.06842 46.804 5.0905 46.7996 5.1111 46.7911C5.13169 46.7825 5.1504 46.77 5.16615 46.7542C5.18189 46.7384 5.19437 46.7196 5.20286 46.699C5.21135 46.6784 5.21568 46.6563 5.21562 46.634C5.05072 45.3407 5.26726 44.0274 5.83862 42.8555C5.93612 42.6605 5.64262 42.488 5.54512 42.684Z" fill="black"/>
<path d="M4.30029 42.6411C3.69077 43.8624 3.45775 45.2372 3.63079 46.5911C3.63194 46.6358 3.65023 46.6783 3.68188 46.7099C3.71353 46.7415 3.75611 46.7596 3.80079 46.7606C3.82311 46.7608 3.84523 46.7565 3.86589 46.748C3.88654 46.7396 3.90531 46.7271 3.92112 46.7113C3.93692 46.6956 3.94945 46.6768 3.95798 46.6562C3.9665 46.6356 3.97086 46.6135 3.97079 46.5911C3.80554 45.2978 4.02209 43.9844 4.59379 42.8126C4.69129 42.6171 4.40029 42.4451 4.30029 42.6411Z" fill="black"/>
<path d="M60.4808 62.7288C60.4943 62.7707 60.5234 62.8057 60.562 62.8266C60.6006 62.8476 60.6458 62.8529 60.6883 62.8413C60.7306 62.8296 60.7668 62.8019 60.7892 62.764C60.8116 62.7262 60.8184 62.6811 60.8083 62.6383C60.6163 61.8928 59.8823 59.2883 59.8673 59.2383C59.8614 59.2168 59.8513 59.1966 59.8376 59.179C59.8239 59.1614 59.8068 59.1466 59.7874 59.1356C59.768 59.1245 59.7466 59.1174 59.7245 59.1146C59.7023 59.1118 59.6798 59.1134 59.6583 59.1193C59.6367 59.1253 59.6166 59.1353 59.5989 59.149C59.5813 59.1628 59.5665 59.1798 59.5555 59.1992C59.5444 59.2186 59.5373 59.24 59.5345 59.2622C59.5317 59.2843 59.5334 59.3068 59.5393 59.3283C59.7958 60.3268 60.4398 62.5898 60.4808 62.7288Z" fill="black"/>
<path d="M61.5903 63.1213C62.1403 62.0328 63.4013 59.5458 63.4798 59.3908C63.5798 59.1958 63.2853 59.0233 63.1863 59.2188C62.6363 60.3073 61.3753 62.7948 61.2963 62.9498C61.1978 63.1443 61.4913 63.3168 61.5903 63.1213Z" fill="black"/>
<path d="M62.2886 63.6963L64.9351 62.7563C65.1396 62.6833 65.0516 62.3563 64.8446 62.4283L62.1981 63.3683C61.9936 63.4413 62.0816 63.7698 62.2886 63.6963Z" fill="black"/>
<path d="M17.0394 19.4161L17.3964 21.2596C17.4379 21.4746 17.7654 21.3836 17.7239 21.1696C17.6055 20.5548 17.4867 19.9402 17.3674 19.3256C17.3259 19.1111 16.9999 19.2021 17.0394 19.4161Z" fill="black"/>
<path d="M14.6026 25.5192C14.6121 25.4775 14.6056 25.4338 14.5844 25.3968C14.5632 25.3597 14.5288 25.332 14.4881 25.3192C13.9486 25.1657 13.4116 25.0017 12.8686 24.8597C12.8259 24.85 12.7812 24.8572 12.7437 24.8797C12.7062 24.9022 12.6788 24.9383 12.6672 24.9804C12.6556 25.0226 12.6607 25.0676 12.6815 25.1061C12.7022 25.1446 12.737 25.1736 12.7786 25.1872C13.3181 25.3407 13.8546 25.5057 14.3976 25.6472C14.4195 25.6523 14.4422 25.6531 14.4643 25.6495C14.4865 25.6458 14.5077 25.6378 14.5268 25.6259C14.5459 25.614 14.5624 25.5985 14.5754 25.5801C14.5884 25.5618 14.5977 25.5411 14.6026 25.5192Z" fill="black"/>
<path d="M13.327 30.2934L11.977 31.3509C11.805 31.4859 12.047 31.7249 12.2175 31.5914L13.5675 30.5334C13.7395 30.3984 13.497 30.1594 13.327 30.2934Z" fill="black"/>
<path d="M18.869 32.079L18.555 30.3845C18.5145 30.1695 18.187 30.2605 18.227 30.475L18.541 32.1695C18.581 32.3845 18.909 32.293 18.869 32.079Z" fill="black"/>
<path d="M29.2172 58.1004C29.0027 58.1414 29.0937 58.4694 29.3077 58.4279C29.6261 58.3664 29.9532 58.3635 30.2727 58.4194C30.4867 58.4569 30.5787 58.1294 30.3632 58.0914C29.9839 58.0239 29.5954 58.027 29.2172 58.1004Z" fill="black"/>
<path d="M29.2141 56.3492C29.5601 56.2655 29.9175 56.2388 30.2721 56.2702C30.4901 56.2892 30.4886 55.9487 30.2721 55.9302C29.8863 55.8982 29.4979 55.9291 29.1221 56.0217C28.9111 56.0727 29.0011 56.3992 29.2141 56.3492Z" fill="black"/>
<path d="M4.68015 67.3041C4.55215 67.1291 4.25715 67.2986 4.38665 67.4756L5.59215 69.1256C5.72015 69.3006 6.01515 69.1311 5.88615 68.9541L4.68015 67.3041Z" fill="black"/>
<path d="M80.505 74.2452V72.5452C80.5051 72.5229 80.5007 72.5008 80.4921 72.4802C80.4835 72.4596 80.4709 72.4409 80.455 72.4252C80.4394 72.4093 80.4207 72.3967 80.4001 72.3881C80.3795 72.3794 80.3574 72.375 80.335 72.375C80.3127 72.375 80.2906 72.3794 80.27 72.3881C80.2494 72.3967 80.2307 72.4093 80.215 72.4252C80.1992 72.4409 80.1866 72.4596 80.178 72.4802C80.1694 72.5008 80.165 72.5229 80.165 72.5452V74.2452C80.165 74.2902 80.183 74.3337 80.215 74.3652C80.2307 74.3811 80.2494 74.3937 80.27 74.4024C80.2906 74.411 80.3127 74.4154 80.335 74.4154C80.3574 74.4154 80.3795 74.411 80.4001 74.4024C80.4207 74.3937 80.4394 74.3811 80.455 74.3652C80.487 74.3337 80.505 74.2902 80.505 74.2452Z" fill="black"/>
<path d="M22.4724 29.7003L24.0674 31.5948C24.2084 31.7623 24.4479 31.5208 24.3079 31.3543L22.7124 29.4598C22.5714 29.2908 22.3319 29.5323 22.4724 29.7003Z" fill="black"/>
</svg>
